  <svg
      xmlns="http://www.w3.org/2000/svg"
      xmlSpace="preserve"
      viewBox="0 0 215 215"
    >
      <path
        fill="#FE7018"
        d="M111.4 134.3h12.3v74.8h-12.3zM92.8 163.9h11.4v45.6H92.8zM90.1 127.7l.1 1 .9-.8-.7 1 .9-.8-.7 1 .9-.8-.8 1 1-.8-.8 1 1-.8-.8 1 1-.9-.8 1 1-.8-.8 1 1-.8-.8 1 1-.8-.8 1 1-.8-.8 1 1-.8-.8 1 1-.8-.8 1 1-.9-.8 1 1-.8-.8 1 1-.8-.8 1 .9-.8-.7 1 .9-.8-.7 1 .9-.8-.7 1 .9-.8-.8 1 1-.9-.8 1 1-.8-.8 1 1-.8-.8 1 1-.8-.8 1 1-.8-.8 1 1-.8-.8 1 1-.9-.8 1.1 1-.9-.8 1 1-.8-.8 1 1-.8-.8 1 1-.8-.8 1 1-.8-.8 1 1-.8-.8 1 1-.8-.8 1 1-.8-.8 1 1-.8-.8 1 1-.9-.8 1 .9-.8-.7 1 .9-.8-.7 1 .9-.8-.7 1 .9-.8-.7 1 .9-.8-.7 1 .9-.8-.7 1 .9-.8-.7 1 .9-.8-.7 1 .9-.8-.7 1 1-.8-.8 1 .9-.8-.7 1 1-.8-.8 1 1-.8-.8 1 1-.8-.9.2.5 1.3-1.4-.4.3 1.4-1.4-.3.4 1.4-1.4-.4.3 1.4-1.4-.3.4 1.4-1.4-.4.3 1.4-1.4-.3.4 1.4-1.4-.4.3 1.4-1.4-.3.4 1.4-1.4-.4.3 1.4-1.4-.3.4 1.4-1.4-.4.3 1.4-1.4-.4.4 1.5-1.4-.4.4 1.4-1.5-.4.4 1.4-1.4-.3.4 1.4-1.4-.4.3 1.4-1.4-.3.4 1.4-1.4-.4.3 1.4-1.4-.3.4 1.4-1.4-.4.3 1.4-1.4-.3.4 1.4-1.4-.4.3 1.4-1.4-.3.4 1.4-1.4-.4.3 1.4-1.4-.3.4 1.4-1.4-.4.3 1.4-1.4-.3.4 1.4-1.4-.4.3 1.4-1.4-.3.4 1.4-1.4-.4.3 1.4-1.4-.3.4 1.4-1.4-.4.3 1.4-1.4-.3.4 1.4-1.5-.4.4 1.4-1.4-.3.4 1.4-1.5-.4.4 1.5-1.4-.4.3 1.4-1.4-.3.4 1.4-1.4-.4.3 1.4-1.4-.3.4 1.4-1.4-.4.3 1.4-1.4-.3.4 1.4-1.4-.4.3 1.4-1.4-.3.4 1.4-1.5-.4.4 1.5-1.4-.4.3 1.4-1.4-.3.4 1.4-1.4-.4.3 1.4-1.4-.3.3 1.4-1.4-.3.3 1.5v-1.1l-1 .8.8-1-1 .8.8-1-1 .8.8-1-1 .8.8-1-1 .8.8-.9-1 .7.8-.9-.9.8.7-1-.9.8.8-1-1 .8.8-1-1 .8.8-1-1 .8.8-1-1 .8.8-1-1 .8.8-1-1 .8.8-1-1 .8.8-1-1 .8.8-.9-.9.8.8-1-1 .8.8-1-1 .8.8-1-1 .8.8-1-1 .8.8-1-1 .8.8-1-1 .8.8-1-1 .8.8-.9-1 .7.8-.9-.9.8.8-1-1 .8.8-1-1 .8.8-1-1 .8.8-1-1 .8.8-1-1 .8.8-1-1 .8.8-1-1 .8.8-1-1 .8.8-1-1 .8.8-1-1 .8.8-1-1 .8.8-1-1 .8.8-.9-1 .7.8-.9-1 .7.8-.9-1 .7.8-.9-.9.8.7-1-.9.8.7-1-.9.8.8-1-1 .8.8-1-1 .8.8-1-1 .8.8-1-1 .8.8-1-1 .8.7-1-.9.8.8-.3-.4-1.3 1.4.4-.4-1.4 1.4.4-.3-1.5 1.4.4-.4-1.4 1.4.4-.4-1.4 1.5.3-.4-1.4 1.4.4-.4-1.4 1.5.3-.4-1.4 1.4.4-.4-1.4 1.4.3-.3-1.4 1.4.4-.4-1.4 1.4.4-.3-1.5 1.4.4-.4-1.4 1.4.4-.4-1.4 1.4.3-.3-1.4 1.4.4-.4-1.4 1.4.4-.4-1.4 1.5.3-.4-1.4 1.4.4-.4-1.4 1.4.3-.3-1.4 1.4.4-.4-1.4 1.4.3-.3-1.4 1.4.4-.4-1.4 1.4.3-.3-1.4 1.4.4-.4-1.4 1.4.4-.3-1.5 1.4.4-.4-1.4 1.4.4-.4-1.4 1.5.3-.4-1.4 1.4.4-.4-1.4 1.5.3-.4-1.4 1.4.4-.4-1.4 1.5.3-.4-1.4 1.4.4-.4-1.4 1.5.3-.4-1.4 1.4.4-.4-1.4 1.5.3-.4-1.4 1.4.4-.4-1.4 1.5.3-.4-1.4 1.4.4-.3-1.5 1.4.4-.4-1.4 1.4.4-.4-1.4 1.5.3-.4-1.4 1.4.4-.3-1.5 1.4.4-.4-1.4 1.4.4-.3-1.5 1.4.4-.4-1.4 1.4.3-.3-1.4 1.4.4-.4-1.4 1.5.3-.4-1.4 1.5.2zM33.5 177.6v-.8l-.7.5.5-.7-.7.6.5-.7-.7.5.6-.7-.7.5.5-.7-.7.5.5-.7-.7.5.5-.7-.7.5.5-.7-.7.5.5-.7-.7.5.5-.7-.7.6.5-.7-.7.5.6-.7-.7.5.5-.7-.7.5.5-.7-.7.5.5-.7-.7.5.5-.7-.7.5.5-.6-.7.5.5-.7-.6.5.5-.7-.7.5.5-.7-.7.5.5-.7-.7.5.5-.7-.7.5.5-.7-.7.6.5-.7-.7.5.6-.7-.7.5.5-.7-.7.5.5-.7-.7.5.5-.7-.7.5.5-.7-.7.5.5-.7-.7.5.5-.7-.7.5.5-.6-.7.5.5-.7-.7.5.5-.7-.6.5.5-.7-.7.5.5-.7-.7.5.5-.7-.7.5.5-.7-.7.5.5-.7-.7.5.5-.7-.7.5.5-.7-.7.5.5-.6-.7.5.5-.7-.7.5.5-.7-.6.5.5-.7-.7.5.5-.7-.7.5.5-.7-.7.5.5-.7-.7.5.5-.7-.7.5.5-.7-.7.5.5-.2-.3-.8.9.2-.3-.9.9.3-.2-.9.9.3-.3-.9.9.2-.3-.9 1 .3-.3-.9.9.2-.3-.9.9.3-.2-.9.9.3-.3-1 .9.3-.2-.9.9.3-.3-.9.9.2-.3-.9 1 .3-.3-.9.9.3-.3-1 .9.3-.2-.9.9.3-.3-.9.9.2-.3-.9 1 .3-.3-.9.9.3-.3-1 .9.3-.2-.9.9.3-.3-1 .9.3-.3-.9 1 .3-.3-.9.9.2-.3-.9 1 .3-.3-.9.9.2-.3-.9.9.3-.2-.9.9.3-.3-1 .9.3-.2-.9.9.3-.3-1 .9.3-.3-.9 1 .3-.3-.9.9.2-.3-.9 1 .3-.3-.9.9.2-.3-.9.9.3-.2-.9.9.3-.3-1 .9.3-.3-.9 1 .3-.3-.9.9.2-.3-.9 1 .3-.3-.9.9.2-.3-.9 1 .3-.3-.9.9.2-.3-.9 1 .3-.3-.9.9.2-.3-.9 1 .3-.3-.9.9.2-.3-.9 1 .3-.3-.9.9.2-.2-.9.9.3-.2-1v.7l.7-.5-.5.7.7-.5-.5.7.7-.5-.5.7.7-.5-.5.7.7-.5-.5.7.7-.5-.5.7.6-.5-.5.7.7-.6-.5.7.7-.5-.5.7.7-.5-.5.7.7-.5-.5.7.7-.5-.5.7.7-.5-.5.7.7-.5-.5.7.7-.5-.5.7.7-.5-.5.7.6-.5-.5.6.7-.5-.5.7.7-.5-.5.7.7-.5-.5.7.7-.5-.5.7.7-.5-.5.7.7-.5-.5.7.7-.5-.5.7.7-.5-.6.7.7-.5-.5.6.7-.5-.5.7.7-.5-.5.7.7-.5-.5.7.7-.5-.5.7.7-.5-.5.7.7-.5-.5.7.7-.5-.5.7.7-.5-.5.7.7-.5-.5.7.7-.5-.5.7.7-.5-.5.7.7-.5-.5.7.7-.5-.5.7.7-.5-.5.7.7-.5-.5.7.6-.5-.5.7.7-.5-.5.7.7-.5-.5.6.7-.5-.5.7.7-.4-.5.6.7-.5-.5.7.7-.5-.5.7.7-.4-.5.7.7-.5-.5.2.3.8-.9-.3.3.9-.9-.3.3 1-1-.3.3.9-.9-.3.3.9-1-.3.3 1-.9-.3.3.9-1-.3.3.9-.9-.2.3.9-.9-.3.2.9-.9-.3.3 1-.9-.3.2.9-.9-.3.3.9-.9-.3.2 1-.9-.3.3.9-.9-.3.3.9-1-.2.3.9-.9-.3.3.9-.9-.3.2.9-.9-.2.3.9-.9-.3.2.9-.9-.3.3 1-.9-.3.2.9-.9-.3.3.9-.9-.2.2.9-.9-.3.3.9-.9-.3.2 1-.9-.3.3.9-.9-.3.2.9-.9-.2.3.9-.9-.3.2.9-.9-.3.3 1-.9-.3.2.9-.9-.3.3.9-.9-.2.3.9-1-.3.3.9-.9-.3.3 1-.9-.3.2.9-.9-.3.3.9-.9-.2.2.9-.9-.3.3.9-1-.3.3 1-.9-.3.3.9-1-.3.3 1-.9-.3.3.9-1-.3.3 1-.9-.3.2.9-.9-.3.3 1-.9-.3.2.9-.9-.3.3 1-1.1-.2zM137.7 157.7h.7l-.5-.6.6.4-.5-.6.6.5-.5-.6.7.5-.5-.6.6.4-.5-.6.6.5-.5-.6.7.5-.5-.6.6.4-.5-.6.6.5-.5-.6.6.5-.5-.6.7.4-.5-.6.6.5-.5-.6.6.5-.5-.6.7.4-.5-.6.6.5-.5-.6.6.5-.5-.6.6.4-.5-.6.7.5-.5-.6.6.5-.5-.6.6.5-.5-.7.6.5-.5-.6.7.5-.5-.6.6.5-.5-.7.6.5-.5-.6.6.5-.5-.6.7.5-.5-.6.6.4-.5-.6.6.5-.5-.6.7.5-.5-.6.6.4-.5-.6.6.5-.5-.6.6.5-.5-.6.6.5-.5-.7.7.5-.5-.6.6.5-.5-.6.6.5-.5-.6.6.4-.5-.6.7.5-.5-.6.6.5-.5-.7.6.5-.4-.6.6.5-.5-.6.6.4-.5-.6.7.5-.5-.6.6.4-.5-.6.6.5-.5-.6.7.5-.5-.6.6.4-.5-.6.6.5-.5-.6.7.4-.5-.6.6.5-.5-.6.2.5.8-.3-.3.9.9-.3-.2.9.9-.2-.3.8.9-.2-.2.9.8-.2-.2.8.9-.2-.3.9.9-.3-.2.9.9-.2-.3.9.9-.3-.2.9.9-.2-.3.8.9-.2-.2.9.8-.2-.2.8.9-.2-.3.9.9-.3-.2.9.9-.2-.3.8.9-.2-.2.9.8-.3-.2.9.9-.2-.3.9.9-.3-.2.9.9-.2-.3.8.9-.2-.2.9.8-.2-.2.8.9-.2-.2.9.8-.2-.2.8.9-.2-.3.9.9-.3-.2.9.9-.2-.3.9.9-.3-.2.9.9-.2-.3.8.9-.2-.2.9.8-.2-.2.8.9-.2-.2.9.8-.2-.2.8.9-.2-.3.9.9-.3-.2.9.9-.2-.3.8.9-.2-.2.9.8-.2-.2.8.9-.2-.2.9.8-.2-.2.8.9-.2-.2.9.8-.3-.2.9.9-.2-.2.9.8-.2-.2.8.9-.2-.2.9.8-.2-.2.8.9-.2-.2.9.8-.2-.2.8.9-.2-.2.9.9-.2-.3.9 1-.2h-.7l.5.6-.6-.5.5.6-.7-.5.5.7-.6-.5.5.6-.6-.5.5.6-.6-.5.5.6-.7-.4.5.6-.6-.5.5.6-.6-.5.5.6-.7-.5.5.7-.6-.5.5.6-.6-.5.5.6-.6-.5.5.6-.7-.4.5.6-.6-.5.5.6-.6-.5.5.6-.6-.5.4.7-.6-.5.5.6-.6-.5.5.6-.6-.5.5.6-.6-.5.4.7-.6-.5.5.6-.6-.5.5.6-.6-.5.5.6-.7-.5.5.7-.6-.5.5.6-.6-.5.5.6-.6-.5.5.6-.7-.4.5.6-.6-.5.5.6-.6-.5.5.6-.6-.5.5.6-.6-.5.4.7-.6-.5.5.6-.6-.5.5.6-.6-.5.5.6-.6-.5.4.7-.6-.5.5.6-.6-.5.5.6-.7-.5.5.7-.6-.5.5.6-.6-.5.5.6-.7-.4.5.6-.6-.5.5.6-.6-.5.5.6-.7-.4.5.6-.6-.5.5.6-.6-.5.4.7-.6-.5.5.6-.6-.5.5.6-.2-.5-.8.3.2-.9-.8.3.2-.9-.9.2.3-.8-.9.2.2-.9-.8.3.2-.9-.9.2.2-.8-.8.2.2-.9-.9.3.2-.9-.8.2.2-.9-.9.3.3-.9-.9.3.2-.9-.8.2.2-.9-.9.3.2-.9-.8.2.2-.8-.9.2.3-.9-.9.3.2-.9-.8.2.2-.8-.9.2.2-.9-.8.3.2-.9-.9.2.3-.8-.9.2.2-.9-.9.3.3-.9-.9.2.2-.9-.8.3.2-.9-.9.2.2-.8-.8.2.2-.9-.9.3.3-.9-.9.2.2-.8-.9.2.3-.9-.9.2.2-.8-.9.2.3-.9-.9.3.2-.9-.8.2.2-.8-.9.2.2-.9-.8.3.2-.9-.9.2.3-.8-.9.2.2-.9-.9.3.3-.9-.9.2.2-.9-.8.3.2-.9-.9.2.2-.9-.8.3.2-.9-.9.2.2-.8-.8.2.2-.9-.9.2.2-.8-.9.2.3-.9-.9.3.2-.9-.9.2.3-.9-.9.3.2-.9-.9.2.1-1zM130.5 123.2h1l-.8-.9.9.8-.8-.9.9.8-.8-.9.9.7-.7-.9.9.8-.8-.9.9.8-.8-.9.9.7-.7-.9.9.8-.8-.9.9.8-.8-.9.9.7-.7-.9.9.8-.8-.9.9.8-.8-.9.9.7-.7-.9.9.8-.8-.9.9.8-.8-.9.9.8-.8-1 1 .8-.8-.9.9.8-.8-.9.9.8-.8-.9.9.7-.7-.9.9.8-.8-.9.9.8-.8-.9.9.7-.7-.9.9.8-.8-.9.9.8-.8-.9.9.7-.8-.9 1 .8-.8-.9.9.8-.8-.9.9.8-.8-1 .9.8-.7-.9.9.8-.8-.9.9.8-.8-.9.9.8-.8-1 1 .8-.8-.9.9.8-.8-.9.9.8-.8-.9.9.7-.7-.9.9.8-.8-.9.9.8-.8-1 1 .8-.8-.9.9.8-.8-.9.9.7-.7-.9.9.8-.8-.9.9.8-.8-1 1 .8-.8-.9.9.8-.8-.9.9.8-.7-1 .9.8-.8-.9.9.8-.8-1 1 .8-.8-.9.1.8 1.4-.4-.4 1.4 1.4-.3-.3 1.3 1.3-.3-.3 1.4 1.4-.3-.3 1.3 1.3-.3-.3 1.4 1.4-.3-.3 1.3 1.4-.3-.4 1.4 1.4-.3-.3 1.3 1.3-.3-.3 1.4 1.4-.3-.3 1.3 1.3-.3-.3 1.4 1.4-.3-.3 1.3 1.3-.3-.3 1.4 1.4-.4-.4 1.4 1.4-.3-.3 1.4 1.4-.4-.4 1.4 1.4-.3-.3 1.3 1.3-.3-.3 1.4 1.4-.3-.3 1.3 1.3-.3-.3 1.4 1.4-.3-.3 1.3 1.3-.3-.3 1.4 1.4-.3-.3 1.3 1.3-.3-.3 1.4 1.4-.3-.3 1.3 1.3-.3-.3 1.4 1.4-.3-.3 1.3 1.3-.3-.3 1.4 1.4-.3-.3 1.3 1.3-.3-.3 1.4 1.4-.3-.3 1.3 1.4-.3-.4 1.4 1.4-.3-.3 1.4 1.4-.4-.4 1.4 1.4-.3-.3 1.4 1.4-.4-.3 1.4 1.3-.3-.3 1.4 1.4-.3-.3 1.3 1.3-.3-.3 1.4 1.4-.3-.3 1.3 1.4-.3-.4 1.4 1.4-.3-.3 1.3 1.4-.3-.4 1.4 1.4-.3-.3 1.4 1.4-.4-.3 1.4 1.3-.3-.3 1.4 1.4-.3-.3 1.3 1.3-.3-.3 1.4 1.4-.3-.3 1.4 1.4-.3-.3 1.3 1.4-.2h-1l.8.9-.9-.8.8.9-.9-.7.8.9-1-.8.8.9-.9-.8.8.9-.9-.7.8.9-1-.8.8.9-.9-.8.8.9-.9-.7.7.9-.9-.8.8.9-.9-.8.8 1-.9-.8.7.9-.9-.8.8.9-.9-.8.8 1-.9-.8.7.9-.9-.8.8.9-.9-.8.8 1-.9-.8.7.9-.9-.8.8.9-.9-.8.8 1-.9-.8.7.9-.9-.8.8.9-.9-.8.8.9-.9-.7.7.9-.9-.8.8.9-.9-.8.8 1-.9-.8.7.9-.9-.8.8.9-.9-.8.8 1-.9-.8.7.9-.9-.8.8.9-.9-.8.8.9-.9-.7.8.9-1-.8.8.9-.9-.8.8.9-.9-.8.8 1-1-.8.8.9-.9-.8.8.9-.9-.7.7.9-.9-.8.8.9-.9-.7.8.9-1-.8.8.9-.9-.8.8 1-.9-.8.7.9-.9-.8.8.9-.9-.7.8.9-1-.8.8.9-.9-.8.8 1-1-.8.8.9-.9-.8.8 1-.2-.9-1.3.4.3-1.3-1.3.3.3-1.4-1.4.3.3-1.3-1.3.3.3-1.4-1.4.3.3-1.4-1.3.4.3-1.4-1.4.3.3-1.4-1.3.4.3-1.4-1.4.3.4-1.4-1.4.4.3-1.4-1.4.3.4-1.4-1.4.4.3-1.4-1.3.3.3-1.3-1.4.3.4-1.4-1.4.3.3-1.3-1.4.3.4-1.4-1.4.3.3-1.3-1.3.3.3-1.4-1.4.3.3-1.3-1.3.3.3-1.4-1.4.3.4-1.3-1.4.3.3-1.4-1.4.3.3-1.3-1.3.3.3-1.4-1.4.3.4-1.4-1.4.4.3-1.4-1.4.3.4-1.4-1.4.4.3-1.4-1.4.3.4-1.4-1.4.4.3-1.4-1.4.3.4-1.4-1.4.3.3-1.3-1.4.3.4-1.4-1.4.3.3-1.3-1.4.3.4-1.4-1.4.3.3-1.4-1.4.4.3-1.4-1.3.3.3-1.4-1.4.3.3-1.3-1.3.3.3-1.4-1.4.3.3-1.4-1.3.4.3-1.4-1.4.3.3-1.4-1.3.3.3-1.3-1.4.3.3-1.4-1.4.3.4-1.4-1.4.4.3-1.4-1.4.3.4-1.4-1.4.3.3-1.3-1.4.3.1-1.5zM164.6 113.7h45.9v4.9h-45.9zM135.3 94.9h75.2v4.8h-75.2zM5.4 110.7h75.1v11.2H5.4zM5.4 91.8h45.4V103H5.4zM78.9 96.9l.1.9-.8-1 .9.8-.7-.9.9.8-.8-.9.9.8-.8-.9.9.8-.8-1 .9.8-.7-.9.9.8-.8-.9.9.8-.8-.9.9.8-.7-1 .9.8-.8-.9.9.8-.8-.9.9.8-.8-.9.9.8-.7-1 .9.8-.8-.9.9.8-.8-.9.9.8-.8-.9.9.8-.7-1 .9.8-.8-.9.9.8-.8-.9.9.8-.8-.9.9.8-.7-.9.9.7-.8-.9.9.8-.8-.9.9.8-.7-.9.9.8-.8-.9.9.7-.8-.9.9.8-.8-.9.9.8-.7-.9.9.8-.8-.9.9.8-.8-1 .9.8-.8-.9.9.8-.8-.9.9.8-.7-.9.9.8-.8-.9.9.8-.8-1 .9.8-.8-.9 1 .8-.8-.9.9.8-.8-.9.9.7-.8-.9 1 .8-.8-.9.9.8-.8-.9.9.7-.7-.9.9.8-.8-.9.9.8-.8-.9.9.8-.7-1 .9.8-.8-.9.9.8-.8-.9.9.8-.7-1 .9.8-.8-.9.9.8-.7-1h.9l-1.4.3.3-1.4-1.3.3.3-1.3-1.4.3.3-1.4-1.4.3.4-1.3-1.4.3.3-1.4-1.4.3.4-1.3-1.4.3.3-1.4-1.4.3.3-1.3-1.3.3.3-1.4-1.4.3.3-1.3-1.3.3.3-1.4-1.4.3.3-1.3-1.3.3.3-1.4-1.4.3.3-1.3-1.3.3.3-1.4-1.4.4.3-1.4-1.3.3.3-1.4-1.4.4.4-1.4-1.4.3.3-1.4-1.4.4.3-1.4-1.3.3.3-1.4-1.4.4.3-1.4-1.3.3.3-1.4-1.4.3.3-1.3-1.4.3.4-1.4-1.4.3.3-1.3-1.4.3.3-1.4-1.3.3.3-1.3-1.4.3.3-1.4-1.3.3.3-1.4-1.4.4.3-1.4-1.4.3.4-1.4-1.4.4.3-1.4-1.4.3.3-1.4-1.3.3.3-1.3-1.4.3.3-1.4-1.4.3.4-1.4-1.4.4.3-1.4-1.4.3.3-1.4-1.3.3.3-1.3-1.4.3.3-1.4-1.4.3.4-1.3-1.4.3.3-1.4-1.4.3.3-1.4-1.3.4.3-1.4-1.4.3.3-1.4-1.4.3.3-1.3-1.3.3.3-1.4-1.4.3.3-1.4-1.4.3.3-1.3-1.3.3-.1-.8.8.9-.9-.8.7.9-.9-.8.8.9-.9-.8.8.9-.9-.7.8.9-.9-.8.7.9-.9-.8.8.9-.9-.8.8.9-.9-.8.8 1-.9-.8.7.9-.9-.8.8.9-.9-.8.8.9-.9-.8.8 1-.9-.8.7.9-.9-.8.8.9-.9-.8.8.9-.9-.8.8.9-.9-.8.7 1-.9-.8.8.9-.9-.8.8.9-.9-.8.8.9-.9-.8.7.9-.9-.7.8.9-.9-.8.8.9-.9-.8.8.9-.9-.8.7.9-.9-.8.8 1-.9-.8.8.9-.9-.8.8.9-.9-.8.8.9-.9-.8.7.9-.8-.8.7.9-.9-.8.8 1-.9-.8.8.9-.9-.8.8.9-.9-.8.7.9-.9-.8.8.9-.9-.7.8.9-.9-.8.7.9-.9-.8.8.9-.9-.8.8 1-.9-.8.7.9-.9-.8.8.9-.9-.8.8 1-.9-.8.7.9-.9-.8.8.9-.9-.8.8.9-.9-.7.7.9-.9-.8.8.9-.9-.8.8 1h-1l1.4-.3-.3 1.4 1.4-.3-.4 1.3 1.4-.3-.3 1.4 1.4-.3-.4 1.3 1.4-.3-.3 1.4 1.4-.3-.4 1.4 1.4-.4-.3 1.4 1.4-.3-.3 1.4 1.3-.4-.3 1.4 1.4-.3-.3 1.4 1.3-.4-.3 1.4 1.4-.3-.4 1.4 1.4-.4-.3 1.4 1.4-.3-.4 1.4 1.4-.4-.3 1.4 1.4-.3-.4 1.4 1.4-.4-.3 1.4L44 62l-.3 1.4 1.4-.4-.3 1.4 1.3-.3-.3 1.4 1.4-.4-.3 1.4 1.3-.3-.3 1.4 1.4-.3-.3 1.3 1.4-.3-.4 1.4 1.4-.3-.3 1.3 1.4-.3-.4 1.4 1.4-.3-.3 1.4 1.4-.4-.3 1.4 1.3-.3-.3 1.4 1.4-.3-.3 1.3 1.3-.3-.3 1.4 1.4-.3-.3 1.3 1.4-.3-.4 1.4 1.4-.3-.3 1.4L62 80l-.4 1.3L63 81l-.3 1.4 1.4-.3-.3 1.4 1.3-.4-.3 1.4 1.4-.3-.3 1.4 1.4-.3-.4 1.3 1.4-.3-.3 1.4 1.4-.3-.4 1.3 1.4-.3-.3 1.4 1.4-.3-.3 1.4 1.3-.3-.3 1.3 1.4-.3-.3 1.4 1.4-.3-.3 1.4 1.3-.3-.3 1.3 1.4-.3-.3 1.4 1.4-.3-.1 1.5zM71.4 62.9l.1.5-.5-.6.6.5-.4-.6.6.5-.5-.7.6.5-.5-.6.6.5-.4-.6.6.5-.5-.6.6.5-.5-.7.6.5-.4-.6.6.5-.5-.6.6.5-.5-.7.6.5-.4-.6.6.5-.5-.6.6.5-.5-.6.6.5-.4-.7.6.5-.5-.6.6.5-.5-.6.6.5-.4-.6.6.5-.5-.7.6.5-.5-.6.6.5-.5-.6.7.5-.5-.6.6.5-.5-.7.6.5-.5-.6.6.5-.4-.6.6.5-.5-.7.6.5-.5-.6.6.5-.4-.6.6.5-.5-.6.6.5-.5-.7.6.5-.4-.6.6.5-.5-.6.6.5-.5-.6.6.5-.5-.6.6.5-.4-.7.6.5-.5-.6.6.5-.5-.6.6.5-.4-.7.6.5-.5-.6.6.5-.4-.6.6.5-.5-.7.6.5-.5-.6.6.5-.4-.6.6.5-.5-.7.6.5-.4-.6.6.5-.5-.6.6.5-.5-.7.6.5-.4-.6.6.5-.5-.6.6.4-.4-.6.6.5-.5-.6h.7l-.9.1.2-.8-.9.2.3-.9-.9.3.2-.9-.8.2.2-.9-.9.3.2-.9-.8.2.2-.8-.9.2.2-.9-.8.2.2-.8-.9.2.3-.9-.9.3.2-.9-.9.2.3-.9-.9.3.2-.9-.8.2.2-.8-.9.2.2-.9-.8.3.2-.9-.9.2.3-.9-.9.3.2-.9-.9.2.3-.8-.9.2.2-.9-.8.3.2-.9-.9.2.2-.9-.8.3.2-.9-.9.2.2-.9-.8.3.2-.9-.9.2.2-.8-.8.2.2-.9-.9.2.3-.8-.9.2.2-.9-.9.3.3-.9-.9.2.2-.9-.9.3.3-.9-.9.2.2-.9-.9.3.3-.9-.9.2.2-.8-.8.2.2-.9-.9.3.2-.9-.8.2.2-.9-.9.3.3-.9-.9.2.2-.9-.9.3.2-.9-.8.2.2-.9-.9.3.2-.9-.8.2.2-.9-.9.3.2-.9-.8.2.2-.9-.9.3.2-.9-.9.2.3-.9-.9.3.2-.9-.9.2.3-.9-.9.3.2-.9-.8.2-.2-.5.5.6-.6-.5.5.6-.6-.4.5.6-.6-.5.5.6-.7-.5.5.6-.6-.4.5.6-.6-.5.5.6-.6-.5.5.6-.7-.4.5.6-.6-.5.5.6-.6-.5.5.6-.6-.5.5.7-.7-.5.5.6-.6-.5.5.6-.6-.5.5.6-.6-.4.5.6-.7-.5.5.6-.6-.5.5.6-.6-.5.5.7-.6-.5.5.6-.7-.5.6.6-.7-.5.5.6-.6-.4.5.6-.6-.5.5.6-.6-.5.5.6-.7-.4.5.6-.6-.5.5.6-.6-.5.5.6-.6-.5.5.6-.7-.4.5.6-.6-.5.5.6-.6-.5.5.6-.6-.5.5.6-.6-.4.5.6-.7-.5.5.6-.6-.5.5.6-.6-.4.5.6-.6-.5.5.6-.7-.5.5.6-.6-.4.5.6-.6-.5.5.6-.7-.5.5.7-.6-.5.5.6-.6-.5.5.6-.7-.4.5.6-.6-.5.5.6-.6-.5.5.6-.7-.4.5.6-.6-.5.5.6-.6-.4.4.6h-.7l1-.2-.3.9.9-.2-.2.8.8-.2-.2.9.9-.3-.3.9.9-.2-.2.8.8-.2-.2.9.9-.2-.2.8.8-.2-.2.9.9-.3-.3.9.9-.2-.2.8.8-.2-.2.9.9-.2-.3.8.9-.2-.2.9.8-.3-.2.9.9-.2-.3.8.9-.2-.2.9.8-.3-.2.9.9-.2-.3.8.9-.2-.2.9.8-.2-.2.8.9-.2-.2.9.8-.3-.2.9.9-.2-.3.9.9-.3-.2.9.8-.2-.2.8.9-.2-.3.9.9-.3-.2.9.9-.2-.3.9.9-.3-.2.9.8-.2-.2.8.9-.2-.3.9.9-.2-.2.8.9-.2-.3.9.9-.3-.2.9.8-.2-.2.8.9-.2-.3.9.9-.3-.2.9.8-.2-.2.9.9-.3-.3.9.9-.2-.2.9.9-.3-.3.9.9-.2-.2.8.8-.2-.2.9.9-.2-.2.8.8-.2-.2.9.9-.2-.2.8.8-.2-.2.9.9-.2-.2.8.8-.2-.2.9.9-.2-.1.9zM96 4.5h5.2v74.8H96zM115 4.5h5.3v45.4H115zM172.5 25.7v.9l.9-.8-.8.8.8-.7-.8.8.9-.8-.8.8.8-.8-.8.9.9-.8-.8.8.8-.8-.8.9.9-.8-.8.8.8-.7-.8.8.9-.8-.8.8.8-.7-.8.8.9-.8-.8.8.8-.7-.8.8.9-.8-.8.8.8-.7-.8.8.9-.8-.8.8.8-.7-.8.8.9-.8-.8.8.8-.8-.8.9.9-.8-.8.8.8-.8-.8.9.8-.8-.7.8.8-.8-.8.9.8-.8-.7.8.8-.8-.8.9.8-.8-.7.8.8-.8-.8.9.8-.8-.7.8.8-.8-.8.9.8-.8-.7.8.8-.8-.8.9.8-.8-.7.8.8-.8-.8.9.8-.8-.7.8.8-.8-.8.9.8-.8-.7.8.8-.8-.8.9.8-.8-.7.8.8-.8-.8.9.9-.8-.8.8.8-.7-.8.8.9-.8-.8.8.8-.7-.8.8.9-.8-.8.8.8-.7-.7.8.8-.8-.8.8.8-.7-.7.8.8-.8-.8.9.8-.8-.7.8.8-.7-.8.8.9-.8-.8.1.3 1.3-1.4-.3.3 1.3-1.3-.2.3 1.3-1.4-.3.3 1.3-1.3-.2.2 1.3-1.3-.3.3 1.4-1.3-.3.2 1.3-1.3-.2.3 1.3-1.4-.3.3 1.3-1.3-.2.2 1.3-1.3-.3.3 1.4-1.3-.3.2 1.3-1.3-.3.3 1.4-1.3-.3.2 1.3-1.3-.3.3 1.4-1.3-.3.2 1.3-1.3-.3.3 1.4-1.3-.3.2 1.3-1.3-.2.3 1.3-1.4-.3.3 1.3-1.3-.2.3 1.3-1.4-.3.3 1.4-1.3-.3.2 1.3-1.3-.2.3 1.3-1.4-.3.3 1.3-1.3-.2.2 1.3-1.3-.3.3 1.4-1.3-.3.2 1.3-1.3-.3.3 1.4-1.4-.3.3 1.3-1.3-.2.2 1.3-1.3-.3.3 1.4-1.3-.3.2 1.3-1.3-.2.3 1.3-1.4-.3.3 1.4-1.3-.3.2 1.3-1.3-.2.3 1.3-1.4-.3.3 1.4-1.3-.3.2 1.3-1.3-.2.3 1.3-1.4-.3.3 1.3-1.3-.2.2 1.3-1.3-.3.3 1.4-1.4-.3.3 1.3-1.3-.2.2 1.3-1.3-.3.3 1.4-1.4-.3.3 1.3-1.3-.2.2 1.3-1.3-.2.3 1.3-1.4-.3.3 1.4-1.4-.3.3 1.4v-.9l-.8.8.7-.8-.8.7.8-.8-.8.8.7-.8-.8.7.8-.8-.8.8.7-.8-.8.7.8-.8-.9.8.8-.8-.8.7.8-.8-.9.8.8-.9-.8.8.8-.8-.9.8.8-.9-.8.8.7-.8-.8.8.8-.9-.8.8.7-.8-.8.8.8-.9-.8.8.7-.8-.8.8.8-.9-.8.8.7-.8-.8.8.8-.9-.8.8.7-.8-.8.8.8-.9-.8.8.7-.8-.8.8.8-.9-.8.8.7-.8-.8.7.8-.8-.8.8.7-.8-.8.7.8-.8-.8.8.7-.8-.8.7.8-.8-.8.8.7-.8-.8.7.8-.8-.8.8.7-.8-.8.7.8-.8-.9.8.8-.8-.8.7.8-.8-.9.8.8-.9-.8.8.7-.8-.8.8.8-.9-.8.8.7-.8-.8.7.8-.8-.9.8.8-.8-.8.7.8-.8-.9.8.8-.9-.8.8.7-.8-.8.8.8-.9-.8.8.7-.8-.8.7.8-.8-.9.8.8-.8-.8.7.7-.8-.8.8.8-.1-.3-1.3 1.3.3-.2-1.4 1.3.3-.3-1.3 1.4.3-.3-1.4 1.3.3-.2-1.3 1.3.2-.3-1.3 1.3.3-.2-1.3 1.3.2-.3-1.3 1.4.3-.3-1.4 1.3.3-.2-1.3 1.3.3-.3-1.4 1.3.3-.2-1.3 1.3.3-.3-1.4 1.4.3-.3-1.3 1.3.3-.3-1.4 1.4.3-.3-1.3 1.3.3-.2-1.4 1.3.3-.3-1.3 1.3.3-.2-1.4 1.3.3-.3-1.3 1.3.3-.2-1.4 1.3.3-.3-1.3 1.4.2-.3-1.3 1.3.3-.2-1.3 1.3.2-.3-1.3 1.4.3-.3-1.4 1.3.3-.2-1.3 1.3.3-.3-1.4 1.4.3-.3-1.3 1.3.2-.2-1.3 1.3.3-.3-1.4 1.4.3-.3-1.3 1.3.3-.2-1.4 1.3.3-.3-1.3 1.3.2-.2-1.3 1.3.3-.2-1.4 1.3.3-.3-1.3 1.4.2-.3-1.3 1.3.3-.2-1.3 1.3.2-.3-1.3 1.4.3-.3-1.4 1.3.3-.2-1.3 1.3.2-.3-1.3 1.4.3-.3-1.4 1.3.3-.2-1.3 1.3.2-.3-1.3 1.4.3-.3-1.4 1.3.3-.2-1.3 1.3.2-.2-1.3 1.3.3-.3-1.4 1.5.1zM156.1 75.1v-.6l-.5.5.5-.5-.6.4.5-.5-.5.5.5-.5-.5.4.4-.5-.5.5.5-.5-.6.4.5-.5-.5.5.5-.5-.6.4.5-.5-.5.5.5-.5-.6.4.5-.5-.5.5.5-.5-.6.4.5-.5-.5.5.5-.5-.6.4.5-.5-.5.5.5-.5-.6.4.5-.5-.5.5.5-.5-.5.4.4-.5-.5.5.5-.5-.5.5.4-.6-.5.5.5-.5-.5.5.4-.6-.5.5.5-.5-.5.5.4-.6-.5.5.5-.5-.5.5.4-.6-.5.5.5-.5-.5.5.4-.6-.5.5.5-.5-.5.5.4-.6-.5.5.5-.5-.5.5.4-.6-.5.5.5-.5-.5.5.4-.6-.5.5.5-.5-.5.5.4-.6-.5.5.5-.5-.5.5.4-.6-.5.5.5-.5-.6.4.5-.5-.5.5.5-.5-.6.4.5-.5-.5.5.5-.5-.6.4.5-.5-.5.5.5-.6-.6.5.5-.5-.5.5.4-.6-.5.5.5-.5-.6.4.5-.5-.5.5.5-.1-.2-.8.8.2-.2-.8.8.2-.1-.9.8.2-.2-.8.8.2-.2-.9.9.2-.2-.8.8.2-.2-.9.9.2-.2-.8.8.2-.2-.8.9.1-.2-.8.8.2-.2-.8.9.1-.2-.8.8.2-.2-.8.9.1-.2-.8.8.2-.2-.8.8.2-.1-.9.8.2-.2-.8.8.2-.1-.9.8.2-.2-.8.8.2-.2-.8.9.1-.2-.8.8.2-.2-.8.9.1-.2-.8.8.2-.1-.9.8.2-.2-.8.8.2-.2-.9.9.2-.2-.8.8.2-.2-.8.9.1-.2-.8.8.2-.2-.8.9.1-.2-.8.8.2-.1-.9.8.2-.2-.8.8.2-.2-.8.9.1-.2-.8.8.2-.2-.8.9.1-.2-.8.8.2-.2-.8.9.1-.2-.8.8.2-.2-.8.9.1-.2-.8.8.2-.2-.8.9.1-.2-.8.8.2-.1-.9.8.2-.2-.8.8.2-.1-.9.8.2-.2-.8.9.1-.2-.8.8.2-.2-.8.9.1-.2-.8.8.2-.1-.9v.5l.5-.4-.5.5.6-.5-.5.5.5-.4-.5.5.6-.5-.5.5.5-.4-.5.5.6-.5-.5.5.5-.4-.4.5.5-.5-.5.5.5-.4-.4.5.5-.5-.5.6.5-.5-.4.5.5-.5-.5.6.5-.5-.4.5.5-.5-.5.6.5-.5-.4.5.5-.5-.5.6.5-.5-.4.5.5-.5-.5.6.5-.5-.4.5.5-.5-.5.6.5-.5-.4.5.5-.5-.5.6.5-.5-.4.5.5-.5-.5.6.5-.5-.4.5.5-.5-.5.6.5-.5-.4.5.5-.5-.5.6.5-.5-.4.5.5-.5-.5.6.5-.5-.4.5.5-.5-.5.6.5-.5-.4.5.5-.5-.5.6.5-.5-.4.5.5-.5-.5.6.6-.5-.5.5.5-.4-.5.5.6-.5-.5.5.5-.4-.4.5.5-.5-.5.6.5-.5-.4.5.5-.5-.5.6.5-.5-.4.5.5-.5-.5.6.6-.5-.5.5.5-.4-.5.5.6-.5-.5.6.5-.5-.4.5.5-.5-.5.1.2.8-.8-.2.2.8-.9-.1.2.8-.8-.2.2.8-.8-.2.1.9-.8-.2.2.8-.8-.2.1.9-.8-.2.2.8-.8-.2.1.9-.8-.2.2.8-.8-.2.1.9-.8-.2.2.8-.8-.2.1.8-.8-.1.2.8-.8-.2.1.8-.8-.2.2.9-.8-.2.2.8-.9-.2.2.9-.8-.2.2.8-.9-.2.2.8-.8-.1.2.8-.9-.2.2.8-.8-.1.2.8-.9-.2.2.8-.8-.1.2.8-.9-.2.2.8-.8-.1.2.8-.9-.2.2.8-.8-.1.2.8-.9-.2.2.8-.8-.1.1.8-.8-.2.2.8-.8-.1.1.8-.8-.2.2.8-.8-.2.1.9-.8-.2.2.8-.8-.2.2.9-.9-.2.2.8-.8-.2.2.9-.9-.2.2.8-.8-.2.1.9-.8-.2.2.8-.8-.2.1.9-.8-.2.2.8-.9-.2.2.9-.8-.2.2.8-.9-.1.2.8-.8-.2.1.8-.8-.1.2.8-.9-.2.2.9-.9-.1z"
      />
    </svg>