<svg xmlns="http://www.w3.org/2000/svg" viewBox="0 0 1366 768" preserveAspectRatio="xMidYMid" width="1366" height="768" style="shape-rendering: auto; display: block; background: rgb(255, 255, 255);"><g style="transform: matrix(-1, 0, 0, 1, 1366, 0);" data-idx="1"><linearGradient y2="1" y1="0" x2="0" x1="0" id="lg-nq4q5u6dq7r" data-idx="2">
  <stop offset="0" stop-color="#fe701888" data-idx="3"></stop>
  <stop offset="1" stop-color="#fe701888" data-idx="4"></stop>
</linearGradient><path opacity="0.4" fill="url(#lg-nq4q5u6dq7r)" d="M 0 0 L 771.942 0 Q 659.616 96 636.475 192 T 511.011 384 T 501.345 576 T 417.275 768 L 0 768 Z" data-idx="5">
  
</path><path opacity="0.4" fill="url(#lg-nq4q5u6dq7r)" d="M 0 0 L 795.031 0 Q 670.238 96 635.996 192 T 539.007 384 T 488.09 576 T 372.714 768 L 0 768 Z" data-idx="7">
  
</path><path opacity="0.4" fill="url(#lg-nq4q5u6dq7r)" d="M 0 0 L 687.295 0 Q 679.782 96 638.669 192 T 594.942 384 T 481.281 576 T 447.753 768 L 0 768 Z" data-idx="9">
  
</path><path opacity="0.4" fill="url(#lg-nq4q5u6dq7r)" d="M 0 0 L 784.344 0 Q 660.155 96 632.603 192 T 626.204 384 T 466.563 576 T 450.556 768 L 0 768 Z" data-idx="11">
  
</path><path opacity="0.4" fill="url(#lg-nq4q5u6dq7r)" d="M 0 0 L 805.764 0 Q 696.741 96 667.039 192 T 571.531 384 T 514.307 576 T 459.766 768 L 0 768 Z" data-idx="13">
  
</path><g data-idx="15"></g></g></svg>