<svg xmlns="http://www.w3.org/2000/svg" viewBox="0 0 1536 826" preserveAspectRatio="xMidYMid" width="1536" height="826" style="shape-rendering: auto; display: block; background: rgb(255, 255, 255);"><g data-idx="1"><g transform="matrix(0.9659258262890683,0.25881904510252074,-0.25881904510252074,0.9659258262890683,133.0612310373366,-102.10039442200002)" data-idx="2">
<path stroke-width="2" stroke-opacity="0" stroke="rgb(253, 92, 99)" fill="none" d="M -384 144.902 C 0 144.902 384 -144.902 768 -144.902 C 1152 -144.902 1536 144.902 1920 144.902 C 2304 144.902 2688 -144.902 3072 -144.902 C 3456 -144.902 3840 144.902 4224 144.902" data-idx="3" transform="matrix(1,0,0,1,-1046.7071533203125,0)">
  
  
  
</path>
</g><g transform="matrix(0.9659258262890683,0.25881904510252074,-0.25881904510252074,0.9659258262890683,133.0612310373366,557.4996193109101)" data-idx="7">
<path stroke-width="2" stroke-opacity="0" stroke="rgb(253, 92, 99)" fill="none" d="M -384 145.272 C 0 145.272 384 -145.272 768 -145.272 C 1152 -145.272 1536 145.272 1920 145.272 C 2304 145.272 2688 -145.272 3072 -145.272 C 3456 -145.272 3840 145.272 4224 145.272" data-idx="8" transform="matrix(1,0,0,1,-1052.0498046875,0)">
  
  
  
</path>
</g><g transform="matrix(0.9659258262890683,0.25881904510252074,-0.25881904510252074,0.9659258262890683,133.0612310373366,-99.71039503235158)" data-idx="12">
<path stroke-width="2" stroke-opacity="0" stroke="rgb(253, 92, 99)" fill="none" d="M -384 145.62 C 0 145.62 384 -145.62 768 -145.62 C 1152 -145.62 1536 145.62 1920 145.62 C 2304 145.62 2688 -145.62 3072 -145.62 C 3456 -145.62 3840 145.62 4224 145.62" data-idx="13" transform="matrix(1,0,0,1,-1057.3924560546875,0)">
  
  
  
</path>
</g><g transform="matrix(0.9659258262890683,0.25881904510252074,-0.25881904510252074,0.9659258262890683,133.0612310373366,555.1096046624726)" data-idx="17">
<path stroke-width="2" stroke-opacity="0" stroke="rgb(253, 92, 99)" fill="none" d="M -384 145.948 C 0 145.948 384 -145.948 768 -145.948 C 1152 -145.948 1536 145.948 1920 145.948 C 2304 145.948 2688 -145.948 3072 -145.948 C 3456 -145.948 3840 145.948 4224 145.948" data-idx="18" transform="matrix(1,0,0,1,-1062.735107421875,0)">
  
  
  
</path>
</g><g transform="matrix(0.9659258262890683,0.25881904510252074,-0.25881904510252074,0.9659258262890683,133.0612310373366,-97.31039350647268)" data-idx="22">
<path stroke-width="2" stroke-opacity="0" stroke="rgb(253, 92, 99)" fill="none" d="M -384 146.254 C 0 146.254 384 -146.254 768 -146.254 C 1152 -146.254 1536 146.254 1920 146.254 C 2304 146.254 2688 -146.254 3072 -146.254 C 3456 -146.254 3840 146.254 4224 146.254" data-idx="23" transform="matrix(1,0,0,1,-1068.07763671875,0)">
  
  
  
</path>
</g><g transform="matrix(0.9659258262890683,0.25881904510252074,-0.25881904510252074,0.9659258262890683,133.0612310373366,552.7095802484101)" data-idx="27">
<path stroke-width="2" stroke-opacity="0" stroke="rgb(253, 92, 99)" fill="none" d="M -384 146.539 C 0 146.539 384 -146.539 768 -146.539 C 1152 -146.539 1536 146.539 1920 146.539 C 2304 146.539 2688 -146.539 3072 -146.539 C 3456 -146.539 3840 146.539 4224 146.539" data-idx="28" transform="matrix(1,0,0,1,-1073.420166015625,0)">
  
  
  
</path>
</g><g transform="matrix(0.9659258262890683,0.25881904510252074,-0.25881904510252074,0.9659258262890683,133.0612310373366,-94.92039411682424)" data-idx="32">
<path stroke-width="2" stroke-opacity="0" stroke="rgb(253, 92, 99)" fill="none" d="M -384 146.804 C 0 146.804 384 -146.804 768 -146.804 C 1152 -146.804 1536 146.804 1920 146.804 C 2304 146.804 2688 -146.804 3072 -146.804 C 3456 -146.804 3840 146.804 4224 146.804" data-idx="33" transform="matrix(1,0,0,1,-1078.7628173828125,0)">
  
  
  
</path>
</g><g transform="matrix(0.9659258262890683,0.25881904510252074,-0.25881904510252074,0.9659258262890683,133.0612310373366,550.3196266351289)" data-idx="37">
<path stroke-width="2" stroke-opacity="0" stroke="rgb(253, 92, 99)" fill="none" d="M -384 147.049 C 0 147.049 384 -147.049 768 -147.049 C 1152 -147.049 1536 147.049 1920 147.049 C 2304 147.049 2688 -147.049 3072 -147.049 C 3456 -147.049 3840 147.049 4224 147.049" data-idx="38" transform="matrix(1,0,0,1,-1084.10546875,0)">
  
  
  
</path>
</g><g transform="matrix(0.9659258262890683,0.25881904510252074,-0.25881904510252074,0.9659258262890683,133.0612310373366,-92.52039259094533)" data-idx="42">
<path stroke-width="2" stroke-opacity="0" stroke="rgb(253, 92, 99)" fill="none" d="M -384 147.273 C 0 147.273 384 -147.273 768 -147.273 C 1152 -147.273 1536 147.273 1920 147.273 C 2304 147.273 2688 -147.273 3072 -147.273 C 3456 -147.273 3840 147.273 4224 147.273" data-idx="43" transform="matrix(1,0,0,1,-1089.447998046875,0)">
  
  
  
</path>
</g><g transform="matrix(0.9659258262890683,0.25881904510252074,-0.25881904510252074,0.9659258262890683,133.0612310373366,547.9296119866914)" data-idx="47">
<path stroke-width="2" stroke-opacity="0" stroke="rgb(253, 92, 99)" fill="none" d="M -384 147.478 C 0 147.478 384 -147.478 768 -147.478 C 1152 -147.478 1536 147.478 1920 147.478 C 2304 147.478 2688 -147.478 3072 -147.478 C 3456 -147.478 3840 147.478 4224 147.478" data-idx="48" transform="matrix(1,0,0,1,-1094.7906494140625,0)">
  
  
  
</path>
</g><g transform="matrix(0.9659258262890683,0.25881904510252074,-0.25881904510252074,0.9659258262890683,133.0612310373366,-90.1303932012969)" data-idx="52">
<path stroke-width="2" stroke-opacity="0" stroke="rgb(253, 92, 99)" fill="none" d="M -384 147.664 C 0 147.664 384 -147.664 768 -147.664 C 1152 -147.664 1536 147.664 1920 147.664 C 2304 147.664 2688 -147.664 3072 -147.664 C 3456 -147.664 3840 147.664 4224 147.664" data-idx="53" transform="matrix(1,0,0,1,-1100.13330078125,0)">
  
  
  
</path>
</g><g transform="matrix(0.9659258262890683,0.25881904510252074,-0.25881904510252074,0.9659258262890683,133.0612310373366,545.5295875726289)" data-idx="57">
<path stroke-width="2" stroke-opacity="0" stroke="rgb(253, 92, 99)" fill="none" d="M -384 147.83 C 0 147.83 384 -147.83 768 -147.83 C 1152 -147.83 1536 147.83 1920 147.83 C 2304 147.83 2688 -147.83 3072 -147.83 C 3456 -147.83 3840 147.83 4224 147.83" data-idx="58" transform="matrix(1,0,0,1,-1105.475830078125,0)">
  
  
  
</path>
</g><g transform="matrix(0.9659258262890683,0.25881904510252074,-0.25881904510252074,0.9659258262890683,133.0612310373366,-87.73039167541799)" data-idx="62">
<path stroke-width="2" stroke-opacity="0" stroke="rgb(253, 92, 99)" fill="none" d="M -384 147.977 C 0 147.977 384 -147.977 768 -147.977 C 1152 -147.977 1536 147.977 1920 147.977 C 2304 147.977 2688 -147.977 3072 -147.977 C 3456 -147.977 3840 147.977 4224 147.977" data-idx="63" transform="matrix(1,0,0,1,-1110.8184814453125,0)">
  
  
  
</path>
</g><g transform="matrix(0.9659258262890683,0.25881904510252074,-0.25881904510252074,0.9659258262890683,133.0612310373366,543.1396339593476)" data-idx="67">
<path stroke-width="2" stroke-opacity="0" stroke="rgb(253, 92, 99)" fill="none" d="M -384 148.106 C 0 148.106 384 -148.106 768 -148.106 C 1152 -148.106 1536 148.106 1920 148.106 C 2304 148.106 2688 -148.106 3072 -148.106 C 3456 -148.106 3840 148.106 4224 148.106" data-idx="68" transform="matrix(1,0,0,1,-1116.1611328125,0)">
  
  
  
</path>
</g><g transform="matrix(0.9659258262890683,0.25881904510252074,-0.25881904510252074,0.9659258262890683,133.0612310373366,-85.34039228576955)" data-idx="72">
<path stroke-width="2" stroke-opacity="0" stroke="rgb(253, 92, 99)" fill="none" d="M -384 148.216 C 0 148.216 384 -148.216 768 -148.216 C 1152 -148.216 1536 148.216 1920 148.216 C 2304 148.216 2688 -148.216 3072 -148.216 C 3456 -148.216 3840 148.216 4224 148.216" data-idx="73" transform="matrix(1,0,0,1,-1121.503662109375,0)">
  
  
  
</path>
</g><g transform="matrix(0.9659258262890683,0.25881904510252074,-0.25881904510252074,0.9659258262890683,133.0612310373366,540.7396095452851)" data-idx="77">
<path stroke-width="2" stroke-opacity="0" stroke="rgb(253, 92, 99)" fill="none" d="M -384 148.307 C 0 148.307 384 -148.307 768 -148.307 C 1152 -148.307 1536 148.307 1920 148.307 C 2304 148.307 2688 -148.307 3072 -148.307 C 3456 -148.307 3840 148.307 4224 148.307" data-idx="78" transform="matrix(1,0,0,1,-1126.8463134765625,0)">
  
  
  
</path>
</g><g transform="matrix(0.9659258262890683,0.25881904510252074,-0.25881904510252074,0.9659258262890683,133.0612310373366,-82.95039289612112)" data-idx="82">
<path stroke-width="2" stroke-opacity="0" stroke="rgb(253, 92, 99)" fill="none" d="M -384 148.381 C 0 148.381 384 -148.381 768 -148.381 C 1152 -148.381 1536 148.381 1920 148.381 C 2304 148.381 2688 -148.381 3072 -148.381 C 3456 -148.381 3840 148.381 4224 148.381" data-idx="83" transform="matrix(1,0,0,1,-1132.18896484375,0)">
  
  
  
</path>
</g><g transform="matrix(0.9659258262890683,0.25881904510252074,-0.25881904510252074,0.9659258262890683,133.0612310373366,538.3495948968476)" data-idx="87">
<path stroke-width="2" stroke-opacity="0" stroke="rgb(253, 92, 99)" fill="none" d="M -384 148.437 C 0 148.437 384 -148.437 768 -148.437 C 1152 -148.437 1536 148.437 1920 148.437 C 2304 148.437 2688 -148.437 3072 -148.437 C 3456 -148.437 3840 148.437 4224 148.437" data-idx="88" transform="matrix(1,0,0,1,-1137.531494140625,0)">
  
  
  
</path>
</g><g transform="matrix(0.9659258262890683,0.25881904510252074,-0.25881904510252074,0.9659258262890683,133.0612310373366,-80.55039137024221)" data-idx="92">
<path stroke-width="2" stroke-opacity="0" stroke="rgb(253, 92, 99)" fill="none" d="M -384 148.475 C 0 148.475 384 -148.475 768 -148.475 C 1152 -148.475 1536 148.475 1920 148.475 C 2304 148.475 2688 -148.475 3072 -148.475 C 3456 -148.475 3840 148.475 4224 148.475" data-idx="93" transform="matrix(1,0,0,1,-1142.8741455078125,0)">
  
  
  
</path>
</g><g transform="matrix(0.9659258262890683,0.25881904510252074,-0.25881904510252074,0.9659258262890683,133.0612310373366,535.9595802484101)" data-idx="97">
<path stroke-width="2" stroke-opacity="0" stroke="rgb(253, 92, 99)" fill="none" d="M -384 148.496 C 0 148.496 384 -148.496 768 -148.496 C 1152 -148.496 1536 148.496 1920 148.496 C 2304 148.496 2688 -148.496 3072 -148.496 C 3456 -148.496 3840 148.496 4224 148.496" data-idx="98" transform="matrix(1,0,0,1,-1148.216796875,0)">
  
  
  
</path>
</g><g transform="matrix(0.9659258262890683,0.25881904510252074,-0.25881904510252074,0.9659258262890683,133.0612310373366,-78.16039198059377)" data-idx="102">
<path stroke-width="2" stroke-opacity="0" stroke="rgb(253, 92, 99)" fill="none" d="M -384 148.499 C 0 148.499 384 -148.499 768 -148.499 C 1152 -148.499 1536 148.499 1920 148.499 C 2304 148.499 2688 -148.499 3072 -148.499 C 3456 -148.499 3840 148.499 4224 148.499" data-idx="103" transform="matrix(1,0,0,1,-1153.559326171875,0)">
  
  
  
</path>
</g><g transform="matrix(0.9659258262890683,0.25881904510252074,-0.25881904510252074,0.9659258262890683,133.0612310373366,533.5596168695039)" data-idx="107">
<path stroke-width="2" stroke-opacity="0" stroke="rgb(253, 92, 99)" fill="none" d="M -384 148.486 C 0 148.486 384 -148.486 768 -148.486 C 1152 -148.486 1536 148.486 1920 148.486 C 2304 148.486 2688 -148.486 3072 -148.486 C 3456 -148.486 3840 148.486 4224 148.486" data-idx="108" transform="matrix(1,0,0,1,-1158.9019775390625,0)">
  
  
  
</path>
</g><g transform="matrix(0.9659258262890683,0.25881904510252074,-0.25881904510252074,0.9659258262890683,133.0612310373366,-75.76039045471487)" data-idx="112">
<path stroke-width="2" stroke-opacity="0" stroke="rgb(253, 92, 99)" fill="none" d="M -384 148.455 C 0 148.455 384 -148.455 768 -148.455 C 1152 -148.455 1536 148.455 1920 148.455 C 2304 148.455 2688 -148.455 3072 -148.455 C 3456 -148.455 3840 148.455 4224 148.455" data-idx="113" transform="matrix(1,0,0,1,-1164.2445068359375,0)">
  
  
  
</path>
</g><g transform="matrix(0.9659258262890683,0.25881904510252074,-0.25881904510252074,0.9659258262890683,133.0612310373366,531.1696022210664)" data-idx="117">
<path stroke-width="2" stroke-opacity="0" stroke="rgb(253, 92, 99)" fill="none" d="M -384 148.406 C 0 148.406 384 -148.406 768 -148.406 C 1152 -148.406 1536 148.406 1920 148.406 C 2304 148.406 2688 -148.406 3072 -148.406 C 3456 -148.406 3840 148.406 4224 148.406" data-idx="118" transform="matrix(1,0,0,1,-1169.587158203125,0)">
  
  
  
</path>
</g><g transform="matrix(0.9659258262890683,0.25881904510252074,-0.25881904510252074,0.9659258262890683,133.0612310373366,-73.37039106506643)" data-idx="122">
<path stroke-width="2" stroke-opacity="0" stroke="rgb(253, 92, 99)" fill="none" d="M -384 148.34 C 0 148.34 384 -148.34 768 -148.34 C 1152 -148.34 1536 148.34 1920 148.34 C 2304 148.34 2688 -148.34 3072 -148.34 C 3456 -148.34 3840 148.34 4224 148.34" data-idx="123" transform="matrix(1,0,0,1,-1174.9298095703125,0)">
  
  
  
</path>
</g><g transform="matrix(0.9659258262890683,0.25881904510252074,-0.25881904510252074,0.9659258262890683,133.0612310373366,528.7695778070039)" data-idx="127">
<path stroke-width="2" stroke-opacity="0" stroke="rgb(253, 92, 99)" fill="none" d="M -384 148.256 C 0 148.256 384 -148.256 768 -148.256 C 1152 -148.256 1536 148.256 1920 148.256 C 2304 148.256 2688 -148.256 3072 -148.256 C 3456 -148.256 3840 148.256 4224 148.256" data-idx="128" transform="matrix(1,0,0,1,-1180.2723388671875,0)">
  
  
  
</path>
</g><g transform="matrix(0.9659258262890683,0.25881904510252074,-0.25881904510252074,0.9659258262890683,133.0612310373366,-70.98039167541799)" data-idx="132">
<path stroke-width="2" stroke-opacity="0" stroke="rgb(253, 92, 99)" fill="none" d="M -384 148.154 C 0 148.154 384 -148.154 768 -148.154 C 1152 -148.154 1536 148.154 1920 148.154 C 2304 148.154 2688 -148.154 3072 -148.154 C 3456 -148.154 3840 148.154 4224 148.154" data-idx="133" transform="matrix(1,0,0,1,-1185.614990234375,0)">
  
  
  
</path>
</g><g transform="matrix(0.9659258262890683,0.25881904510252074,-0.25881904510252074,0.9659258262890683,133.0612310373366,526.3796241937226)" data-idx="137">
<path stroke-width="2" stroke-opacity="0" stroke="rgb(253, 92, 99)" fill="none" d="M -384 148.033 C 0 148.033 384 -148.033 768 -148.033 C 1152 -148.033 1536 148.033 1920 148.033 C 2304 148.033 2688 -148.033 3072 -148.033 C 3456 -148.033 3840 148.033 4224 148.033" data-idx="138" transform="matrix(1,0,0,1,-1190.9576416015625,0)">
  
  
  
</path>
</g><g transform="matrix(0.9659258262890683,0.25881904510252074,-0.25881904510252074,0.9659258262890683,133.0612310373366,-68.58039014953908)" data-idx="142">
<path stroke-width="2" stroke-opacity="0" stroke="rgb(253, 92, 99)" fill="none" d="M -384 147.894 C 0 147.894 384 -147.894 768 -147.894 C 1152 -147.894 1536 147.894 1920 147.894 C 2304 147.894 2688 -147.894 3072 -147.894 C 3456 -147.894 3840 147.894 4224 147.894" data-idx="143" transform="matrix(1,0,0,1,-1196.3001708984375,0)">
  
  
  
</path>
</g><g transform="matrix(0.9659258262890683,0.25881904510252074,-0.25881904510252074,0.9659258262890683,133.0612310373366,523.9795997796601)" data-idx="147">
<path stroke-width="2" stroke-opacity="0" stroke="rgb(253, 92, 99)" fill="none" d="M -384 147.735 C 0 147.735 384 -147.735 768 -147.735 C 1152 -147.735 1536 147.735 1920 147.735 C 2304 147.735 2688 -147.735 3072 -147.735 C 3456 -147.735 3840 147.735 4224 147.735" data-idx="148" transform="matrix(1,0,0,1,-1201.642822265625,0)">
  
  
  
</path>
</g><g transform="matrix(0.9659258262890683,0.25881904510252074,-0.25881904510252074,0.9659258262890683,133.0612310373366,-66.19039075989065)" data-idx="152">
<path stroke-width="2" stroke-opacity="0" stroke="rgb(253, 92, 99)" fill="none" d="M -384 147.558 C 0 147.558 384 -147.558 768 -147.558 C 1152 -147.558 1536 147.558 1920 147.558 C 2304 147.558 2688 -147.558 3072 -147.558 C 3456 -147.558 3840 147.558 4224 147.558" data-idx="153" transform="matrix(1,0,0,1,-1206.9854736328125,0)">
  
  
  
</path>
</g><g transform="matrix(0.9659258262890683,0.25881904510252074,-0.25881904510252074,0.9659258262890683,133.0612310373366,521.5895851312226)" data-idx="157">
<path stroke-width="2" stroke-opacity="0" stroke="rgb(253, 92, 99)" fill="none" d="M -384 147.361 C 0 147.361 384 -147.361 768 -147.361 C 1152 -147.361 1536 147.361 1920 147.361 C 2304 147.361 2688 -147.361 3072 -147.361 C 3456 -147.361 3840 147.361 4224 147.361" data-idx="158" transform="matrix(1,0,0,1,-1212.3280029296875,0)">
  
  
  
</path>
</g><g transform="matrix(0.9659258262890683,0.25881904510252074,-0.25881904510252074,0.9659258262890683,133.0612310373366,-63.79038923401174)" data-idx="162">
<path stroke-width="2" stroke-opacity="0" stroke="rgb(253, 92, 99)" fill="none" d="M -384 147.145 C 0 147.145 384 -147.145 768 -147.145 C 1152 -147.145 1536 147.145 1920 147.145 C 2304 147.145 2688 -147.145 3072 -147.145 C 3456 -147.145 3840 147.145 4224 147.145" data-idx="163" transform="matrix(1,0,0,1,-1217.670654296875,0)">
  
  
  
</path>
</g><g transform="matrix(0.9659258262890683,0.25881904510252074,-0.25881904510252074,0.9659258262890683,133.0612310373366,519.1996315179414)" data-idx="167">
<path stroke-width="2" stroke-opacity="0" stroke="rgb(253, 92, 99)" fill="none" d="M -384 146.908 C 0 146.908 384 -146.908 768 -146.908 C 1152 -146.908 1536 146.908 1920 146.908 C 2304 146.908 2688 -146.908 3072 -146.908 C 3456 -146.908 3840 146.908 4224 146.908" data-idx="168" transform="matrix(1,0,0,1,-1223.0133056640625,0)">
  
  
  
</path>
</g><g transform="matrix(0.9659258262890683,0.25881904510252074,-0.25881904510252074,0.9659258262890683,133.0612310373366,-61.4003898443633)" data-idx="172">
<path stroke-width="2" stroke-opacity="0" stroke="rgb(253, 92, 99)" fill="none" d="M -384 146.652 C 0 146.652 384 -146.652 768 -146.652 C 1152 -146.652 1536 146.652 1920 146.652 C 2304 146.652 2688 -146.652 3072 -146.652 C 3456 -146.652 3840 146.652 4224 146.652" data-idx="173" transform="matrix(1,0,0,1,-1228.35595703125,0)">
  
  
  
</path>
</g><g transform="matrix(0.9659258262890683,0.25881904510252074,-0.25881904510252074,0.9659258262890683,133.0612310373366,516.7996071038789)" data-idx="177">
<path stroke-width="2" stroke-opacity="0" stroke="rgb(253, 92, 99)" fill="none" d="M -384 146.375 C 0 146.375 384 -146.375 768 -146.375 C 1152 -146.375 1536 146.375 1920 146.375 C 2304 146.375 2688 -146.375 3072 -146.375 C 3456 -146.375 3840 146.375 4224 146.375" data-idx="178" transform="matrix(1,0,0,1,-1233.698486328125,0)">
  
  
  
</path>
</g><g transform="matrix(0.9659258262890683,0.25881904510252074,-0.25881904510252074,0.9659258262890683,133.0612310373366,-59.00039594787893)" data-idx="182">
<path stroke-width="2" stroke-opacity="0" stroke="rgb(253, 92, 99)" fill="none" d="M -384 146.078 C 0 146.078 384 -146.078 768 -146.078 C 1152 -146.078 1536 146.078 1920 146.078 C 2304 146.078 2688 -146.078 3072 -146.078 C 3456 -146.078 3840 146.078 4224 146.078" data-idx="183" transform="matrix(1,0,0,1,-1239.0411376953125,0)">
  
  
  
</path>
</g><g transform="matrix(0.9659258262890683,0.25881904510252074,-0.25881904510252074,0.9659258262890683,133.0612310373366,514.4095924554414)" data-idx="187">
<path stroke-width="2" stroke-opacity="0" stroke="rgb(253, 92, 99)" fill="none" d="M -384 145.759 C 0 145.759 384 -145.759 768 -145.759 C 1152 -145.759 1536 145.759 1920 145.759 C 2304 145.759 2688 -145.759 3072 -145.759 C 3456 -145.759 3840 145.759 4224 145.759" data-idx="188" transform="matrix(1,0,0,1,-1244.3837890625,0)">
  
  
  
</path>
</g><g transform="matrix(0.9659258262890683,0.25881904510252074,-0.25881904510252074,0.9659258262890683,133.0612310373366,-56.61039655823049)" data-idx="192">
<path stroke-width="2" stroke-opacity="0" stroke="rgb(253, 92, 99)" fill="none" d="M -384 145.42 C 0 145.42 384 -145.42 768 -145.42 C 1152 -145.42 1536 145.42 1920 145.42 C 2304 145.42 2688 -145.42 3072 -145.42 C 3456 -145.42 3840 145.42 4224 145.42" data-idx="193" transform="matrix(1,0,0,1,-1249.726318359375,0)">
  
  
  
</path>
</g><g transform="matrix(0.9659258262890683,0.25881904510252074,-0.25881904510252074,0.9659258262890683,133.0612310373366,512.0096290765351)" data-idx="197">
<path stroke-width="2" stroke-opacity="0" stroke="rgb(253, 92, 99)" fill="none" d="M -384 145.058 C 0 145.058 384 -145.058 768 -145.058 C 1152 -145.058 1536 145.058 1920 145.058 C 2304 145.058 2688 -145.058 3072 -145.058 C 3456 -145.058 3840 145.058 4224 145.058" data-idx="198" transform="matrix(1,0,0,1,-1255.0689697265625,0)">
  
  
  
</path>
</g><g transform="matrix(0.9659258262890683,0.25881904510252074,-0.25881904510252074,0.9659258262890683,133.0612310373366,-54.22039716858205)" data-idx="202">
<path stroke-width="2" stroke-opacity="0" stroke="rgb(253, 92, 99)" fill="none" d="M -384 144.676 C 0 144.676 384 -144.676 768 -144.676 C 1152 -144.676 1536 144.676 1920 144.676 C 2304 144.676 2688 -144.676 3072 -144.676 C 3456 -144.676 3840 144.676 4224 144.676" data-idx="203" transform="matrix(1,0,0,1,-1260.41162109375,0)">
  
  
  
</path>
</g><g transform="matrix(0.9659258262890683,0.25881904510252074,-0.25881904510252074,0.9659258262890683,133.0612310373366,509.61961442809763)" data-idx="207">
<path stroke-width="2" stroke-opacity="0" stroke="rgb(253, 92, 99)" fill="none" d="M -384 144.271 C 0 144.271 384 -144.271 768 -144.271 C 1152 -144.271 1536 144.271 1920 144.271 C 2304 144.271 2688 -144.271 3072 -144.271 C 3456 -144.271 3840 144.271 4224 144.271" data-idx="208" transform="matrix(1,0,0,1,-1265.754150390625,0)">
  
  
  
</path>
</g><g transform="matrix(0.9659258262890683,0.25881904510252074,-0.25881904510252074,0.9659258262890683,133.0612310373366,-51.820388013308616)" data-idx="212">
<path stroke-width="2" stroke-opacity="0" stroke="rgb(253, 92, 99)" fill="none" d="M -384 143.844 C 0 143.844 384 -143.844 768 -143.844 C 1152 -143.844 1536 143.844 1920 143.844 C 2304 143.844 2688 -143.844 3072 -143.844 C 3456 -143.844 3840 143.844 4224 143.844" data-idx="213" transform="matrix(1,0,0,1,-1271.0966796875,0)">
  
  
  
</path>
</g><g transform="matrix(0.9659258262890683,0.25881904510252074,-0.25881904510252074,0.9659258262890683,133.0612310373366,507.21959001403513)" data-idx="217">
<path stroke-width="2" stroke-opacity="0" stroke="rgb(253, 92, 99)" fill="none" d="M -384 143.394 C 0 143.394 384 -143.394 768 -143.394 C 1152 -143.394 1536 143.394 1920 143.394 C 2304 143.394 2688 -143.394 3072 -143.394 C 3456 -143.394 3840 143.394 4224 143.394" data-idx="218" transform="matrix(1,0,0,1,-1276.439453125,0)">
  
  
  
</path>
</g><g transform="matrix(0.9659258262890683,0.25881904510252074,-0.25881904510252074,0.9659258262890683,133.0612310373366,-49.43038862366018)" data-idx="222">
<path stroke-width="2" stroke-opacity="0" stroke="rgb(253, 92, 99)" fill="none" d="M -384 142.921 C 0 142.921 384 -142.921 768 -142.921 C 1152 -142.921 1536 142.921 1920 142.921 C 2304 142.921 2688 -142.921 3072 -142.921 C 3456 -142.921 3840 142.921 4224 142.921" data-idx="223" transform="matrix(1,0,0,1,-1281.7818603515625,0)">
  
  
  
</path>
</g><g transform="matrix(0.9659258262890683,0.25881904510252074,-0.25881904510252074,0.9659258262890683,133.0612310373366,504.8296364007539)" data-idx="227">
<path stroke-width="2" stroke-opacity="0" stroke="rgb(253, 92, 99)" fill="none" d="M -384 142.425 C 0 142.425 384 -142.425 768 -142.425 C 1152 -142.425 1536 142.425 1920 142.425 C 2304 142.425 2688 -142.425 3072 -142.425 C 3456 -142.425 3840 142.425 4224 142.425" data-idx="228" transform="matrix(1,0,0,1,-1287.12451171875,0)">
  
  
  
</path>
</g><g transform="matrix(0.9659258262890683,0.25881904510252074,-0.25881904510252074,0.9659258262890683,133.0612310373366,-47.0303947271758)" data-idx="232">
<path stroke-width="2" stroke-opacity="0" stroke="rgb(253, 92, 99)" fill="none" d="M -384 141.906 C 0 141.906 384 -141.906 768 -141.906 C 1152 -141.906 1536 141.906 1920 141.906 C 2304 141.906 2688 -141.906 3072 -141.906 C 3456 -141.906 3840 141.906 4224 141.906" data-idx="233" transform="matrix(1,0,0,1,-1292.4671630859375,0)">
  
  
  
</path>
</g><g transform="matrix(0.9659258262890683,0.25881904510252074,-0.25881904510252074,0.9659258262890683,133.0612310373366,502.4396217523164)" data-idx="237">
<path stroke-width="2" stroke-opacity="0" stroke="rgb(253, 92, 99)" fill="none" d="M -384 141.363 C 0 141.363 384 -141.363 768 -141.363 C 1152 -141.363 1536 141.363 1920 141.363 C 2304 141.363 2688 -141.363 3072 -141.363 C 3456 -141.363 3840 141.363 4224 141.363" data-idx="238" transform="matrix(1,0,0,1,-1297.809814453125,0)">
  
  
  
</path>
</g><g transform="matrix(0.9659258262890683,0.25881904510252074,-0.25881904510252074,0.9659258262890683,133.0612310373366,-44.640395337527366)" data-idx="242">
<path stroke-width="2" stroke-opacity="0" stroke="rgb(253, 92, 99)" fill="none" d="M -384 140.796 C 0 140.796 384 -140.796 768 -140.796 C 1152 -140.796 1536 140.796 1920 140.796 C 2304 140.796 2688 -140.796 3072 -140.796 C 3456 -140.796 3840 140.796 4224 140.796" data-idx="243" transform="matrix(1,0,0,1,-1303.15234375,0)">
  
  
  
</path>
</g><g transform="matrix(0.9659258262890683,0.25881904510252074,-0.25881904510252074,0.9659258262890683,133.0612310373366,500.0395973382539)" data-idx="247">
<path stroke-width="2" stroke-opacity="0" stroke="rgb(253, 92, 99)" fill="none" d="M -384 140.204 C 0 140.204 384 -140.204 768 -140.204 C 1152 -140.204 1536 140.204 1920 140.204 C 2304 140.204 2688 -140.204 3072 -140.204 C 3456 -140.204 3840 140.204 4224 140.204" data-idx="248" transform="matrix(1,0,0,1,-1308.4949951171875,0)">
  
  
  
</path>
</g><g transform="matrix(0.9659258262890683,0.25881904510252074,-0.25881904510252074,0.9659258262890683,133.0612310373366,-42.24038618225393)" data-idx="252">
<path stroke-width="2" stroke-opacity="0" stroke="rgb(253, 92, 99)" fill="none" d="M -384 139.588 C 0 139.588 384 -139.588 768 -139.588 C 1152 -139.588 1536 139.588 1920 139.588 C 2304 139.588 2688 -139.588 3072 -139.588 C 3456 -139.588 3840 139.588 4224 139.588" data-idx="253" transform="matrix(1,0,0,1,-1313.837646484375,0)">
  
  
  
</path>
</g><g transform="matrix(0.9659258262890683,0.25881904510252074,-0.25881904510252074,0.9659258262890683,133.0612310373366,497.6495826898164)" data-idx="257">
<path stroke-width="2" stroke-opacity="0" stroke="rgb(253, 92, 99)" fill="none" d="M -384 138.946 C 0 138.946 384 -138.946 768 -138.946 C 1152 -138.946 1536 138.946 1920 138.946 C 2304 138.946 2688 -138.946 3072 -138.946 C 3456 -138.946 3840 138.946 4224 138.946" data-idx="258" transform="matrix(1,0,0,1,-1319.18017578125,0)">
  
  
  
</path>
</g><g transform="matrix(0.9659258262890683,0.25881904510252074,-0.25881904510252074,0.9659258262890683,133.0612310373366,-39.85038679260549)" data-idx="262">
<path stroke-width="2" stroke-opacity="0" stroke="rgb(253, 92, 99)" fill="none" d="M -384 138.28 C 0 138.28 384 -138.28 768 -138.28 C 1152 -138.28 1536 138.28 1920 138.28 C 2304 138.28 2688 -138.28 3072 -138.28 C 3456 -138.28 3840 138.28 4224 138.28" data-idx="263" transform="matrix(1,0,0,1,-1324.5228271484375,0)">
  
  
  
</path>
</g><g transform="matrix(0.9659258262890683,0.25881904510252074,-0.25881904510252074,0.9659258262890683,133.0612310373366,495.24961931091013)" data-idx="267">
<path stroke-width="2" stroke-opacity="0" stroke="rgb(253, 92, 99)" fill="none" d="M -384 137.587 C 0 137.587 384 -137.587 768 -137.587 C 1152 -137.587 1536 137.587 1920 137.587 C 2304 137.587 2688 -137.587 3072 -137.587 C 3456 -137.587 3840 137.587 4224 137.587" data-idx="268" transform="matrix(1,0,0,1,-1329.865478515625,0)">
  
  
  
</path>
</g><g transform="matrix(0.9659258262890683,0.25881904510252074,-0.25881904510252074,0.9659258262890683,133.0612310373366,-37.46038740295705)" data-idx="272">
<path stroke-width="2" stroke-opacity="0" stroke="rgb(253, 92, 99)" fill="none" d="M -384 136.869 C 0 136.869 384 -136.869 768 -136.869 C 1152 -136.869 1536 136.869 1920 136.869 C 2304 136.869 2688 -136.869 3072 -136.869 C 3456 -136.869 3840 136.869 4224 136.869" data-idx="273" transform="matrix(1,0,0,1,-1335.2080078125,0)">
  
  
  
</path>
</g><g transform="matrix(0.9659258262890683,0.25881904510252074,-0.25881904510252074,0.9659258262890683,133.0612310373366,492.85960466247263)" data-idx="277">
<path stroke-width="2" stroke-opacity="0" stroke="rgb(253, 92, 99)" fill="none" d="M -384 136.125 C 0 136.125 384 -136.125 768 -136.125 C 1152 -136.125 1536 136.125 1920 136.125 C 2304 136.125 2688 -136.125 3072 -136.125 C 3456 -136.125 3840 136.125 4224 136.125" data-idx="278" transform="matrix(1,0,0,1,-1340.5506591796875,0)">
  
  
  
</path>
</g><g transform="matrix(0.9659258262890683,0.25881904510252074,-0.25881904510252074,0.9659258262890683,133.0612310373366,-35.06039350647268)" data-idx="282">
<path stroke-width="2" stroke-opacity="0" stroke="rgb(253, 92, 99)" fill="none" d="M -384 135.353 C 0 135.353 384 -135.353 768 -135.353 C 1152 -135.353 1536 135.353 1920 135.353 C 2304 135.353 2688 -135.353 3072 -135.353 C 3456 -135.353 3840 135.353 4224 135.353" data-idx="283" transform="matrix(1,0,0,1,-1345.893310546875,0)">
  
  
  
</path>
</g><g transform="matrix(0.9659258262890683,0.25881904510252074,-0.25881904510252074,0.9659258262890683,133.0612310373366,490.46959001403513)" data-idx="287">
<path stroke-width="2" stroke-opacity="0" stroke="rgb(253, 92, 99)" fill="none" d="M -384 134.555 C 0 134.555 384 -134.555 768 -134.555 C 1152 -134.555 1536 134.555 1920 134.555 C 2304 134.555 2688 -134.555 3072 -134.555 C 3456 -134.555 3840 134.555 4224 134.555" data-idx="288" transform="matrix(1,0,0,1,-1351.23583984375,0)">
  
  
  
</path>
</g><g transform="matrix(0.9659258262890683,0.25881904510252074,-0.25881904510252074,0.9659258262890683,133.0612310373366,-32.67039411682424)" data-idx="292">
<path stroke-width="2" stroke-opacity="0" stroke="rgb(253, 92, 99)" fill="none" d="M -384 133.73 C 0 133.73 384 -133.73 768 -133.73 C 1152 -133.73 1536 133.73 1920 133.73 C 2304 133.73 2688 -133.73 3072 -133.73 C 3456 -133.73 3840 133.73 4224 133.73" data-idx="293" transform="matrix(1,0,0,1,-1356.5784912109375,0)">
  
  
  
</path>
</g><g transform="matrix(0.9659258262890683,0.25881904510252074,-0.25881904510252074,0.9659258262890683,133.0612310373366,488.0696266351289)" data-idx="297">
<path stroke-width="2" stroke-opacity="0" stroke="rgb(253, 92, 99)" fill="none" d="M -384 132.877 C 0 132.877 384 -132.877 768 -132.877 C 1152 -132.877 1536 132.877 1920 132.877 C 2304 132.877 2688 -132.877 3072 -132.877 C 3456 -132.877 3840 132.877 4224 132.877" data-idx="298" transform="matrix(1,0,0,1,-1361.921142578125,0)">
  
  
  
</path>
</g><g transform="matrix(0.9659258262890683,0.25881904510252074,-0.25881904510252074,0.9659258262890683,133.0612310373366,-30.270400220339866)" data-idx="302">
<path stroke-width="2" stroke-opacity="0" stroke="rgb(253, 92, 99)" fill="none" d="M -384 131.996 C 0 131.996 384 -131.996 768 -131.996 C 1152 -131.996 1536 131.996 1920 131.996 C 2304 131.996 2688 -131.996 3072 -131.996 C 3456 -131.996 3840 131.996 4224 131.996" data-idx="303" transform="matrix(1,0,0,1,-1367.2637939453125,0)">
  
  
  
</path>
</g><g transform="matrix(0.9659258262890683,0.25881904510252074,-0.25881904510252074,0.9659258262890683,133.0612310373366,485.6796119866914)" data-idx="307">
<path stroke-width="2" stroke-opacity="0" stroke="rgb(253, 92, 99)" fill="none" d="M -384 131.086 C 0 131.086 384 -131.086 768 -131.086 C 1152 -131.086 1536 131.086 1920 131.086 C 2304 131.086 2688 -131.086 3072 -131.086 C 3456 -131.086 3840 131.086 4224 131.086" data-idx="308" transform="matrix(1,0,0,1,-1372.6063232421875,0)">
  
  
  
</path>
</g><g transform="matrix(0.9659258262890683,0.25881904510252074,-0.25881904510252074,0.9659258262890683,133.0612310373366,-27.880385571902366)" data-idx="312">
<path stroke-width="2" stroke-opacity="0" stroke="rgb(253, 92, 99)" fill="none" d="M -384 130.148 C 0 130.148 384 -130.148 768 -130.148 C 1152 -130.148 1536 130.148 1920 130.148 C 2304 130.148 2688 -130.148 3072 -130.148 C 3456 -130.148 3840 130.148 4224 130.148" data-idx="313" transform="matrix(1,0,0,1,-1377.948974609375,0)">
  
  
  
</path>
</g><g transform="matrix(0.9659258262890683,0.25881904510252074,-0.25881904510252074,0.9659258262890683,133.0612310373366,483.2795875726289)" data-idx="317">
<path stroke-width="2" stroke-opacity="0" stroke="rgb(253, 92, 99)" fill="none" d="M -384 129.182 C 0 129.182 384 -129.182 768 -129.182 C 1152 -129.182 1536 129.182 1920 129.182 C 2304 129.182 2688 -129.182 3072 -129.182 C 3456 -129.182 3840 129.182 4224 129.182" data-idx="318" transform="matrix(1,0,0,1,-1383.2916259765625,0)">
  
  
  
</path>
</g><g transform="matrix(0.9659258262890683,0.25881904510252074,-0.25881904510252074,0.9659258262890683,133.0612310373366,-25.49038618225393)" data-idx="322">
<path stroke-width="2" stroke-opacity="0" stroke="rgb(253, 92, 99)" fill="none" d="M -384 128.185 C 0 128.185 384 -128.185 768 -128.185 C 1152 -128.185 1536 128.185 1920 128.185 C 2304 128.185 2688 -128.185 3072 -128.185 C 3456 -128.185 3840 128.185 4224 128.185" data-idx="323" transform="matrix(1,0,0,1,-1388.6341552734375,0)">
  
  
  
</path>
</g><g transform="matrix(0.9659258262890683,0.25881904510252074,-0.25881904510252074,0.9659258262890683,133.0612310373366,480.88963395934763)" data-idx="327">
<path stroke-width="2" stroke-opacity="0" stroke="rgb(253, 92, 99)" fill="none" d="M -384 127.16 C 0 127.16 384 -127.16 768 -127.16 C 1152 -127.16 1536 127.16 1920 127.16 C 2304 127.16 2688 -127.16 3072 -127.16 C 3456 -127.16 3840 127.16 4224 127.16" data-idx="328" transform="matrix(1,0,0,1,-1393.976806640625,0)">
  
  
  
</path>
</g><g transform="matrix(0.9659258262890683,0.25881904510252074,-0.25881904510252074,0.9659258262890683,133.0612310373366,-23.090392285769553)" data-idx="332">
<path stroke-width="2" stroke-opacity="0" stroke="rgb(253, 92, 99)" fill="none" d="M -384 126.104 C 0 126.104 384 -126.104 768 -126.104 C 1152 -126.104 1536 126.104 1920 126.104 C 2304 126.104 2688 -126.104 3072 -126.104 C 3456 -126.104 3840 126.104 4224 126.104" data-idx="333" transform="matrix(1,0,0,1,-1399.3194580078125,0)">
  
  
  
</path>
</g><g transform="matrix(0.9659258262890683,0.25881904510252074,-0.25881904510252074,0.9659258262890683,133.0612310373366,478.48960954528513)" data-idx="337">
<path stroke-width="2" stroke-opacity="0" stroke="rgb(253, 92, 99)" fill="none" d="M -384 125.018 C 0 125.018 384 -125.018 768 -125.018 C 1152 -125.018 1536 125.018 1920 125.018 C 2304 125.018 2688 -125.018 3072 -125.018 C 3456 -125.018 3840 125.018 4224 125.018" data-idx="338" transform="matrix(1,0,0,1,-1404.661865234375,0)">
  
  
  
</path>
</g><g transform="matrix(0.9659258262890683,0.25881904510252074,-0.25881904510252074,0.9659258262890683,133.0612310373366,-20.700392896121116)" data-idx="342">
<path stroke-width="2" stroke-opacity="0" stroke="rgb(253, 92, 99)" fill="none" d="M -384 123.902 C 0 123.902 384 -123.902 768 -123.902 C 1152 -123.902 1536 123.902 1920 123.902 C 2304 123.902 2688 -123.902 3072 -123.902 C 3456 -123.902 3840 123.902 4224 123.902" data-idx="343" transform="matrix(1,0,0,1,-1410.004638671875,0)">
  
  
  
</path>
</g><g transform="matrix(0.9659258262890683,0.25881904510252074,-0.25881904510252074,0.9659258262890683,133.0612310373366,476.09959489684763)" data-idx="347">
<path stroke-width="2" stroke-opacity="0" stroke="rgb(253, 92, 99)" fill="none" d="M -384 122.754 C 0 122.754 384 -122.754 768 -122.754 C 1152 -122.754 1536 122.754 1920 122.754 C 2304 122.754 2688 -122.754 3072 -122.754 C 3456 -122.754 3840 122.754 4224 122.754" data-idx="348" transform="matrix(1,0,0,1,-1415.34716796875,0)">
  
  
  
</path>
</g><g transform="matrix(0.9659258262890683,0.25881904510252074,-0.25881904510252074,0.9659258262890683,133.0612310373366,-18.30039899963674)" data-idx="352">
<path stroke-width="2" stroke-opacity="0" stroke="rgb(253, 92, 99)" fill="none" d="M -384 121.575 C 0 121.575 384 -121.575 768 -121.575 C 1152 -121.575 1536 121.575 1920 121.575 C 2304 121.575 2688 -121.575 3072 -121.575 C 3456 -121.575 3840 121.575 4224 121.575" data-idx="353" transform="matrix(1,0,0,1,-1420.689697265625,0)">
  
  
  
</path>
</g><g transform="matrix(0.9659258262890683,0.25881904510252074,-0.25881904510252074,0.9659258262890683,133.0612310373366,473.70958024841013)" data-idx="357">
<path stroke-width="2" stroke-opacity="0" stroke="rgb(253, 92, 99)" fill="none" d="M -384 120.365 C 0 120.365 384 -120.365 768 -120.365 C 1152 -120.365 1536 120.365 1920 120.365 C 2304 120.365 2688 -120.365 3072 -120.365 C 3456 -120.365 3840 120.365 4224 120.365" data-idx="358" transform="matrix(1,0,0,1,-1426.0323486328125,0)">
  
  
  
</path>
</g><g transform="matrix(0.9659258262890683,0.25881904510252074,-0.25881904510252074,0.9659258262890683,133.0612310373366,-15.910399609988303)" data-idx="362">
<path stroke-width="2" stroke-opacity="0" stroke="rgb(253, 92, 99)" fill="none" d="M -384 119.123 C 0 119.123 384 -119.123 768 -119.123 C 1152 -119.123 1536 119.123 1920 119.123 C 2304 119.123 2688 -119.123 3072 -119.123 C 3456 -119.123 3840 119.123 4224 119.123" data-idx="363" transform="matrix(1,0,0,1,-1431.375,0)">
  
  
  
</path>
</g><g transform="matrix(0.9659258262890683,0.25881904510252074,-0.25881904510252074,0.9659258262890683,133.0612310373366,471.3096168695039)" data-idx="367">
<path stroke-width="2" stroke-opacity="0" stroke="rgb(253, 92, 99)" fill="none" d="M -384 117.849 C 0 117.849 384 -117.849 768 -117.849 C 1152 -117.849 1536 117.849 1920 117.849 C 2304 117.849 2688 -117.849 3072 -117.849 C 3456 -117.849 3840 117.849 4224 117.849" data-idx="368" transform="matrix(1,0,0,1,-1436.7176513671875,0)">
  
  
  
</path>
</g><g transform="matrix(0.9659258262890683,0.25881904510252074,-0.25881904510252074,0.9659258262890683,133.0612310373366,-13.510390454714866)" data-idx="372">
<path stroke-width="2" stroke-opacity="0" stroke="rgb(253, 92, 99)" fill="none" d="M -384 116.542 C 0 116.542 384 -116.542 768 -116.542 C 1152 -116.542 1536 116.542 1920 116.542 C 2304 116.542 2688 -116.542 3072 -116.542 C 3456 -116.542 3840 116.542 4224 116.542" data-idx="373" transform="matrix(1,0,0,1,-1442.0601806640625,0)">
  
  
  
</path>
</g><g transform="matrix(0.9659258262890683,0.25881904510252074,-0.25881904510252074,0.9659258262890683,133.0612310373366,468.9196022210664)" data-idx="377">
<path stroke-width="2" stroke-opacity="0" stroke="rgb(253, 92, 99)" fill="none" d="M -384 115.203 C 0 115.203 384 -115.203 768 -115.203 C 1152 -115.203 1536 115.203 1920 115.203 C 2304 115.203 2688 -115.203 3072 -115.203 C 3456 -115.203 3840 115.203 4224 115.203" data-idx="378" transform="matrix(1,0,0,1,-1447.40283203125,0)">
  
  
  
</path>
</g><g transform="matrix(0.9659258262890683,0.25881904510252074,-0.25881904510252074,0.9659258262890683,133.0612310373366,-11.120391065066428)" data-idx="382">
<path stroke-width="2" stroke-opacity="0" stroke="rgb(253, 92, 99)" fill="none" d="M -384 113.83 C 0 113.83 384 -113.83 768 -113.83 C 1152 -113.83 1536 113.83 1920 113.83 C 2304 113.83 2688 -113.83 3072 -113.83 C 3456 -113.83 3840 113.83 4224 113.83" data-idx="383" transform="matrix(1,0,0,1,-1452.7454833984375,0)">
  
  
  
</path>
</g><g transform="matrix(0.9659258262890683,0.25881904510252074,-0.25881904510252074,0.9659258262890683,133.0612310373366,466.5195778070039)" data-idx="387">
<path stroke-width="2" stroke-opacity="0" stroke="rgb(253, 92, 99)" fill="none" d="M -384 112.425 C 0 112.425 384 -112.425 768 -112.425 C 1152 -112.425 1536 112.425 1920 112.425 C 2304 112.425 2688 -112.425 3072 -112.425 C 3456 -112.425 3840 112.425 4224 112.425" data-idx="388" transform="matrix(1,0,0,1,-1458.0880126953125,0)">
  
  
  
</path>
</g><g transform="matrix(0.9659258262890683,0.25881904510252074,-0.25881904510252074,0.9659258262890683,133.0612310373366,-8.73039167541799)" data-idx="392">
<path stroke-width="2" stroke-opacity="0" stroke="rgb(253, 92, 99)" fill="none" d="M -384 110.985 C 0 110.985 384 -110.985 768 -110.985 C 1152 -110.985 1536 110.985 1920 110.985 C 2304 110.985 2688 -110.985 3072 -110.985 C 3456 -110.985 3840 110.985 4224 110.985" data-idx="393" transform="matrix(1,0,0,1,-1463.4306640625,0)">
  
  
  
</path>
</g><g transform="matrix(0.9659258262890683,0.25881904510252074,-0.25881904510252074,0.9659258262890683,133.0612310373366,464.12962419372263)" data-idx="397">
<path stroke-width="2" stroke-opacity="0" stroke="rgb(253, 92, 99)" fill="none" d="M -384 109.512 C 0 109.512 384 -109.512 768 -109.512 C 1152 -109.512 1536 109.512 1920 109.512 C 2304 109.512 2688 -109.512 3072 -109.512 C 3456 -109.512 3840 109.512 4224 109.512" data-idx="398" transform="matrix(1,0,0,1,-1468.7733154296875,0)">
  
  
  
</path>
</g><g transform="matrix(0.9659258262890683,0.25881904510252074,-0.25881904510252074,0.9659258262890683,133.0612310373366,-6.330397778933616)" data-idx="402">
<path stroke-width="2" stroke-opacity="0" stroke="rgb(253, 92, 99)" fill="none" d="M -384 108.005 C 0 108.005 384 -108.005 768 -108.005 C 1152 -108.005 1536 108.005 1920 108.005 C 2304 108.005 2688 -108.005 3072 -108.005 C 3456 -108.005 3840 108.005 4224 108.005" data-idx="403" transform="matrix(1,0,0,1,-1474.1158447265625,0)">
  
  
  
</path>
</g><g transform="matrix(0.9659258262890683,0.25881904510252074,-0.25881904510252074,0.9659258262890683,133.0612310373366,461.72959977966013)" data-idx="407">
<path stroke-width="2" stroke-opacity="0" stroke="rgb(253, 92, 99)" fill="none" d="M -384 106.464 C 0 106.464 384 -106.464 768 -106.464 C 1152 -106.464 1536 106.464 1920 106.464 C 2304 106.464 2688 -106.464 3072 -106.464 C 3456 -106.464 3840 106.464 4224 106.464" data-idx="408" transform="matrix(1,0,0,1,-1479.45849609375,0)">
  
  
  
</path>
</g><g transform="matrix(0.9659258262890683,0.25881904510252074,-0.25881904510252074,0.9659258262890683,133.0612310373366,-3.9403983892851784)" data-idx="412">
<path stroke-width="2" stroke-opacity="0" stroke="rgb(253, 92, 99)" fill="none" d="M -384 104.888 C 0 104.888 384 -104.888 768 -104.888 C 1152 -104.888 1536 104.888 1920 104.888 C 2304 104.888 2688 -104.888 3072 -104.888 C 3456 -104.888 3840 104.888 4224 104.888" data-idx="413" transform="matrix(1,0,0,1,-1484.8011474609375,0)">
  
  
  
</path>
</g><g transform="matrix(0.9659258262890683,0.25881904510252074,-0.25881904510252074,0.9659258262890683,133.0612310373366,459.33958513122263)" data-idx="417">
<path stroke-width="2" stroke-opacity="0" stroke="rgb(253, 92, 99)" fill="none" d="M -384 103.278 C 0 103.278 384 -103.278 768 -103.278 C 1152 -103.278 1536 103.278 1920 103.278 C 2304 103.278 2688 -103.278 3072 -103.278 C 3456 -103.278 3840 103.278 4224 103.278" data-idx="418" transform="matrix(1,0,0,1,-1490.1436767578125,0)">
  
  
  
</path>
</g><g transform="matrix(0.9659258262890683,0.25881904510252074,-0.25881904510252074,0.9659258262890683,133.0612310373366,-1.5403892340117409)" data-idx="422">
<path stroke-width="2" stroke-opacity="0" stroke="rgb(253, 92, 99)" fill="none" d="M -384 101.633 C 0 101.633 384 -101.633 768 -101.633 C 1152 -101.633 1536 101.633 1920 101.633 C 2304 101.633 2688 -101.633 3072 -101.633 C 3456 -101.633 3840 101.633 4224 101.633" data-idx="423" transform="matrix(1,0,0,1,-1495.486328125,0)">
  
  
  
</path>
</g><g transform="matrix(0.9659258262890683,0.25881904510252074,-0.25881904510252074,0.9659258262890683,133.0612310373366,456.9496315179414)" data-idx="427">
<path stroke-width="2" stroke-opacity="0" stroke="rgb(253, 92, 99)" fill="none" d="M -384 99.9525 C 0 99.9525 384 -99.9525 768 -99.9525 C 1152 -99.9525 1536 99.9525 1920 99.9525 C 2304 99.9525 2688 -99.9525 3072 -99.9525 C 3456 -99.9525 3840 99.9525 4224 99.9525" data-idx="428" transform="matrix(1,0,0,1,-1500.8289794921875,0)">
  
  
  
</path>
</g><g transform="matrix(0.9659258262890683,0.25881904510252074,-0.25881904510252074,0.9659258262890683,133.0612310373366,0.8496101556366966)" data-idx="432">
<path stroke-width="2" stroke-opacity="0" stroke="rgb(253, 92, 99)" fill="none" d="M -384 98.2374 C 0 98.2374 384 -98.2374 768 -98.2374 C 1152 -98.2374 1536 98.2374 1920 98.2374 C 2304 98.2374 2688 -98.2374 3072 -98.2374 C 3456 -98.2374 3840 98.2374 4224 98.2374" data-idx="433" transform="matrix(1,0,0,1,-1506.1715087890625,0)">
  
  
  
</path>
</g><g transform="matrix(0.9659258262890683,0.25881904510252074,-0.25881904510252074,0.9659258262890683,133.0612310373366,454.5496071038789)" data-idx="437">
<path stroke-width="2" stroke-opacity="0" stroke="rgb(253, 92, 99)" fill="none" d="M -384 96.4872 C 0 96.4872 384 -96.4872 768 -96.4872 C 1152 -96.4872 1536 96.4872 1920 96.4872 C 2304 96.4872 2688 -96.4872 3072 -96.4872 C 3456 -96.4872 3840 96.4872 4224 96.4872" data-idx="438" transform="matrix(1,0,0,1,-1511.51416015625,0)">
  
  
  
</path>
</g><g transform="matrix(0.9659258262890683,0.25881904510252074,-0.25881904510252074,0.9659258262890683,133.0612310373366,3.239609545285134)" data-idx="442">
<path stroke-width="2" stroke-opacity="0" stroke="rgb(253, 92, 99)" fill="none" d="M -384 94.7017 C 0 94.7017 384 -94.7017 768 -94.7017 C 1152 -94.7017 1536 94.7017 1920 94.7017 C 2304 94.7017 2688 -94.7017 3072 -94.7017 C 3456 -94.7017 3840 94.7017 4224 94.7017" data-idx="443" transform="matrix(1,0,0,1,-1516.8568115234375,0)">
  
  
  
</path>
</g><g transform="matrix(0.9659258262890683,0.25881904510252074,-0.25881904510252074,0.9659258262890683,133.0612310373366,452.1595924554414)" data-idx="447">
<path stroke-width="2" stroke-opacity="0" stroke="rgb(253, 92, 99)" fill="none" d="M -384 92.881 C 0 92.881 384 -92.881 768 -92.881 C 1152 -92.881 1536 92.881 1920 92.881 C 2304 92.881 2688 -92.881 3072 -92.881 C 3456 -92.881 3840 92.881 4224 92.881" data-idx="448" transform="matrix(1,0,0,1,-1522.199462890625,0)">
  
  
  
</path>
</g><g transform="matrix(0.9659258262890683,0.25881904510252074,-0.25881904510252074,0.9659258262890683,133.0612310373366,5.639603441769509)" data-idx="452">
<path stroke-width="2" stroke-opacity="0" stroke="rgb(253, 92, 99)" fill="none" d="M -384 91.025 C 0 91.025 384 -91.025 768 -91.025 C 1152 -91.025 1536 91.025 1920 91.025 C 2304 91.025 2688 -91.025 3072 -91.025 C 3456 -91.025 3840 91.025 4224 91.025" data-idx="453" transform="matrix(1,0,0,1,-1527.5419921875,0)">
  
  
  
</path>
</g><g transform="matrix(0.9659258262890683,0.25881904510252074,-0.25881904510252074,0.9659258262890683,133.0612310373366,449.75962907653513)" data-idx="457">
<path stroke-width="2" stroke-opacity="0" stroke="rgb(253, 92, 99)" fill="none" d="M -384 89.1338 C 0 89.1338 384 -89.1338 768 -89.1338 C 1152 -89.1338 1536 89.1338 1920 89.1338 C 2304 89.1338 2688 -89.1338 3072 -89.1338 C 3456 -89.1338 3840 89.1338 4224 89.1338" data-idx="458" transform="matrix(1,0,0,1,-1532.8846435546875,0)">
  
  
  
</path>
</g><g transform="matrix(0.9659258262890683,0.25881904510252074,-0.25881904510252074,0.9659258262890683,133.0612310373366,8.029602831417947)" data-idx="462">
<path stroke-width="2" stroke-opacity="0" stroke="rgb(253, 92, 99)" fill="none" d="M -384 87.2074 C 0 87.2074 384 -87.2074 768 -87.2074 C 1152 -87.2074 1536 87.2074 1920 87.2074 C 2304 87.2074 2688 -87.2074 3072 -87.2074 C 3456 -87.2074 3840 87.2074 4224 87.2074" data-idx="463" transform="matrix(1,0,0,1,-1538.227294921875,0)">
  
  
  
</path>
</g><g transform="matrix(0.9659258262890683,0.25881904510252074,-0.25881904510252074,0.9659258262890683,133.0612310373366,447.36961442809763)" data-idx="467">
<path stroke-width="2" stroke-opacity="0" stroke="rgb(253, 92, 99)" fill="none" d="M -384 85.2459 C 0 85.2459 384 -85.2459 768 -85.2459 C 1152 -85.2459 1536 85.2459 1920 85.2459 C 2304 85.2459 2688 -85.2459 3072 -85.2459 C 3456 -85.2459 3840 85.2459 4224 85.2459" data-idx="468" transform="matrix(1,0,0,1,-1543.56982421875,0)">
  
  
  
</path>
</g><g transform="matrix(0.9659258262890683,0.25881904510252074,-0.25881904510252074,0.9659258262890683,133.0612310373366,10.429611986691384)" data-idx="472">
<path stroke-width="2" stroke-opacity="0.010869565217391304" stroke="rgb(253, 92, 99)" fill="none" d="M -384 83.2493 C 0 83.2493 384 -83.2493 768 -83.2493 C 1152 -83.2493 1536 83.2493 1920 83.2493 C 2304 83.2493 2688 -83.2493 3072 -83.2493 C 3456 -83.2493 3840 83.2493 4224 83.2493" data-idx="473" transform="matrix(1,0,0,1,-1548.912353515625,0)">
  
  
  
</path>
</g><g transform="matrix(0.9659258262890683,0.25881904510252074,-0.25881904510252074,0.9659258262890683,133.0612310373366,444.97959977966013)" data-idx="477">
<path stroke-width="2" stroke-opacity="0.021739130434782608" stroke="rgb(253, 92, 99)" fill="none" d="M -384 81.218 C 0 81.218 384 -81.218 768 -81.218 C 1152 -81.218 1536 81.218 1920 81.218 C 2304 81.218 2688 -81.218 3072 -81.218 C 3456 -81.218 3840 81.218 4224 81.218" data-idx="478" transform="matrix(1,0,0,1,-1554.255126953125,0)">
  
  
  
</path>
</g><g transform="matrix(0.9659258262890683,0.25881904510252074,-0.25881904510252074,0.9659258262890683,133.0612310373366,12.819611376339822)" data-idx="482">
<path stroke-width="2" stroke-opacity="0.03260869565217391" stroke="rgb(253, 92, 99)" fill="none" d="M -384 79.1521 C 0 79.1521 384 -79.1521 768 -79.1521 C 1152 -79.1521 1536 79.1521 1920 79.1521 C 2304 79.1521 2688 -79.1521 3072 -79.1521 C 3456 -79.1521 3840 79.1521 4224 79.1521" data-idx="483" transform="matrix(1,0,0,1,-1559.5975341796875,0)">
  
  
  
</path>
</g><g transform="matrix(0.9659258262890683,0.25881904510252074,-0.25881904510252074,0.9659258262890683,133.0612310373366,442.5796364007539)" data-idx="487">
<path stroke-width="2" stroke-opacity="0.043478260869565216" stroke="rgb(253, 92, 99)" fill="none" d="M -384 77.0517 C 0 77.0517 384 -77.0517 768 -77.0517 C 1152 -77.0517 1536 77.0517 1920 77.0517 C 2304 77.0517 2688 -77.0517 3072 -77.0517 C 3456 -77.0517 3840 77.0517 4224 77.0517" data-idx="488" transform="matrix(1,0,0,1,-1564.940185546875,0)">
  
  
  
</path>
</g><g transform="matrix(0.9659258262890683,0.25881904510252074,-0.25881904510252074,0.9659258262890683,133.0612310373366,15.219605272824197)" data-idx="492">
<path stroke-width="2" stroke-opacity="0.05434782608695652" stroke="rgb(253, 92, 99)" fill="none" d="M -384 74.9173 C 0 74.9173 384 -74.9173 768 -74.9173 C 1152 -74.9173 1536 74.9173 1920 74.9173 C 2304 74.9173 2688 -74.9173 3072 -74.9173 C 3456 -74.9173 3840 74.9173 4224 74.9173" data-idx="493" transform="matrix(1,0,0,1,-1570.2828369140625,0)">
  
  
  
</path>
</g><g transform="matrix(0.9659258262890683,0.25881904510252074,-0.25881904510252074,0.9659258262890683,133.0612310373366,440.1896217523164)" data-idx="497">
<path stroke-width="2" stroke-opacity="0.06521739130434782" stroke="rgb(253, 92, 99)" fill="none" d="M -384 72.7491 C 0 72.7491 384 -72.7491 768 -72.7491 C 1152 -72.7491 1536 72.7491 1920 72.7491 C 2304 72.7491 2688 -72.7491 3072 -72.7491 C 3456 -72.7491 3840 72.7491 4224 72.7491" data-idx="498" transform="matrix(1,0,0,1,-1575.6253662109375,0)">
  
  
  
</path>
</g><g transform="matrix(0.9659258262890683,0.25881904510252074,-0.25881904510252074,0.9659258262890683,133.0612310373366,17.609604662472634)" data-idx="502">
<path stroke-width="2" stroke-opacity="0.07608695652173914" stroke="rgb(253, 92, 99)" fill="none" d="M -384 70.5476 C 0 70.5476 384 -70.5476 768 -70.5476 C 1152 -70.5476 1536 70.5476 1920 70.5476 C 2304 70.5476 2688 -70.5476 3072 -70.5476 C 3456 -70.5476 3840 70.5476 4224 70.5476" data-idx="503" transform="matrix(1,0,0,1,-1580.968017578125,0)">
  
  
  
</path>
</g><g transform="matrix(0.9659258262890683,0.25881904510252074,-0.25881904510252074,0.9659258262890683,133.0612310373366,437.7895973382539)" data-idx="507">
<path stroke-width="2" stroke-opacity="0.08695652173913043" stroke="rgb(253, 92, 99)" fill="none" d="M -384 68.3132 C 0 68.3132 384 -68.3132 768 -68.3132 C 1152 -68.3132 1536 68.3132 1920 68.3132 C 2304 68.3132 2688 -68.3132 3072 -68.3132 C 3456 -68.3132 3840 68.3132 4224 68.3132" data-idx="508" transform="matrix(1,0,0,1,-1586.3106689453125,0)">
  
  
  
</path>
</g><g transform="matrix(0.9659258262890683,0.25881904510252074,-0.25881904510252074,0.9659258262890683,133.0612310373366,19.99960405212107)" data-idx="512">
<path stroke-width="2" stroke-opacity="0.09782608695652174" stroke="rgb(253, 92, 99)" fill="none" d="M -384 66.0463 C 0 66.0463 384 -66.0463 768 -66.0463 C 1152 -66.0463 1536 66.0463 1920 66.0463 C 2304 66.0463 2688 -66.0463 3072 -66.0463 C 3456 -66.0463 3840 66.0463 4224 66.0463" data-idx="513" transform="matrix(1,0,0,1,-1591.6531982421875,0)">
  
  
  
</path>
</g><g transform="matrix(0.9659258262890683,0.25881904510252074,-0.25881904510252074,0.9659258262890683,133.0612310373366,435.3995826898164)" data-idx="517">
<path stroke-width="2" stroke-opacity="0.10869565217391304" stroke="rgb(253, 92, 99)" fill="none" d="M -384 63.7476 C 0 63.7476 384 -63.7476 768 -63.7476 C 1152 -63.7476 1536 63.7476 1920 63.7476 C 2304 63.7476 2688 -63.7476 3072 -63.7476 C 3456 -63.7476 3840 63.7476 4224 63.7476" data-idx="518" transform="matrix(1,0,0,1,-1596.995849609375,0)">
  
  
  
</path>
</g><g transform="matrix(0.9659258262890683,0.25881904510252074,-0.25881904510252074,0.9659258262890683,133.0612310373366,22.39961320739451)" data-idx="522">
<path stroke-width="2" stroke-opacity="0.11956521739130435" stroke="rgb(253, 92, 99)" fill="none" d="M -384 61.4176 C 0 61.4176 384 -61.4176 768 -61.4176 C 1152 -61.4176 1536 61.4176 1920 61.4176 C 2304 61.4176 2688 -61.4176 3072 -61.4176 C 3456 -61.4176 3840 61.4176 4224 61.4176" data-idx="523" transform="matrix(1,0,0,1,-1602.3385009765625,0)">
  
  
  
</path>
</g><g transform="matrix(0.9659258262890683,0.25881904510252074,-0.25881904510252074,0.9659258262890683,133.0612310373366,432.99961931091013)" data-idx="527">
<path stroke-width="2" stroke-opacity="0.13043478260869565" stroke="rgb(253, 92, 99)" fill="none" d="M -384 59.0569 C 0 59.0569 384 -59.0569 768 -59.0569 C 1152 -59.0569 1536 59.0569 1920 59.0569 C 2304 59.0569 2688 -59.0569 3072 -59.0569 C 3456 -59.0569 3840 59.0569 4224 59.0569" data-idx="528" transform="matrix(1,0,0,1,-1607.68115234375,0)">
  
  
  
</path>
</g><g transform="matrix(0.9659258262890683,0.25881904510252074,-0.25881904510252074,0.9659258262890683,133.0612310373366,24.789612597042947)" data-idx="532">
<path stroke-width="2" stroke-opacity="0.14130434782608695" stroke="rgb(253, 92, 99)" fill="none" d="M -384 56.6664 C 0 56.6664 384 -56.6664 768 -56.6664 C 1152 -56.6664 1536 56.6664 1920 56.6664 C 2304 56.6664 2688 -56.6664 3072 -56.6664 C 3456 -56.6664 3840 56.6664 4224 56.6664" data-idx="533" transform="matrix(1,0,0,1,-1613.023681640625,0)">
  
  
  
</path>
</g><g transform="matrix(0.9659258262890683,0.25881904510252074,-0.25881904510252074,0.9659258262890683,133.0612310373366,430.60960466247263)" data-idx="537">
<path stroke-width="2" stroke-opacity="0.15217391304347827" stroke="rgb(253, 92, 99)" fill="none" d="M -384 54.2467 C 0 54.2467 384 -54.2467 768 -54.2467 C 1152 -54.2467 1536 54.2467 1920 54.2467 C 2304 54.2467 2688 -54.2467 3072 -54.2467 C 3456 -54.2467 3840 54.2467 4224 54.2467" data-idx="538" transform="matrix(1,0,0,1,-1618.3663330078125,0)">
  
  
  
</path>
</g><g transform="matrix(0.9659258262890683,0.25881904510252074,-0.25881904510252074,0.9659258262890683,133.0612310373366,27.18960649352732)" data-idx="542">
<path stroke-width="2" stroke-opacity="0.16304347826086957" stroke="rgb(253, 92, 99)" fill="none" d="M -384 51.7988 C 0 51.7988 384 -51.7988 768 -51.7988 C 1152 -51.7988 1536 51.7988 1920 51.7988 C 2304 51.7988 2688 -51.7988 3072 -51.7988 C 3456 -51.7988 3840 51.7988 4224 51.7988" data-idx="543" transform="matrix(1,0,0,1,-1623.708984375,0)">
  
  
  
</path>
</g><g transform="matrix(0.9659258262890683,0.25881904510252074,-0.25881904510252074,0.9659258262890683,133.0612310373366,428.21959001403513)" data-idx="547">
<path stroke-width="2" stroke-opacity="0.17391304347826086" stroke="rgb(253, 92, 99)" fill="none" d="M -384 49.3234 C 0 49.3234 384 -49.3234 768 -49.3234 C 1152 -49.3234 1536 49.3234 1920 49.3234 C 2304 49.3234 2688 -49.3234 3072 -49.3234 C 3456 -49.3234 3840 49.3234 4224 49.3234" data-idx="548" transform="matrix(1,0,0,1,-1629.051513671875,0)">
  
  
  
</path>
</g><g transform="matrix(0.9659258262890683,0.25881904510252074,-0.25881904510252074,0.9659258262890683,133.0612310373366,29.57960588317576)" data-idx="552">
<path stroke-width="2" stroke-opacity="0.18478260869565216" stroke="rgb(253, 92, 99)" fill="none" d="M -384 46.8216 C 0 46.8216 384 -46.8216 768 -46.8216 C 1152 -46.8216 1536 46.8216 1920 46.8216 C 2304 46.8216 2688 -46.8216 3072 -46.8216 C 3456 -46.8216 3840 46.8216 4224 46.8216" data-idx="553" transform="matrix(1,0,0,1,-1634.3941650390625,0)">
  
  
  
</path>
</g><g transform="matrix(0.9659258262890683,0.25881904510252074,-0.25881904510252074,0.9659258262890683,133.0612310373366,425.8196266351289)" data-idx="557">
<path stroke-width="2" stroke-opacity="0.1956521739130435" stroke="rgb(253, 92, 99)" fill="none" d="M -384 44.2943 C 0 44.2943 384 -44.2943 768 -44.2943 C 1152 -44.2943 1536 44.2943 1920 44.2943 C 2304 44.2943 2688 -44.2943 3072 -44.2943 C 3456 -44.2943 3840 44.2943 4224 44.2943" data-idx="558" transform="matrix(1,0,0,1,-1639.73681640625,0)">
  
  
  
</path>
</g><g transform="matrix(0.9659258262890683,0.25881904510252074,-0.25881904510252074,0.9659258262890683,133.0612310373366,31.979599779660134)" data-idx="562">
<path stroke-width="2" stroke-opacity="0.20652173913043478" stroke="rgb(253, 92, 99)" fill="none" d="M -384 41.7427 C 0 41.7427 384 -41.7427 768 -41.7427 C 1152 -41.7427 1536 41.7427 1920 41.7427 C 2304 41.7427 2688 -41.7427 3072 -41.7427 C 3456 -41.7427 3840 41.7427 4224 41.7427" data-idx="563" transform="matrix(1,0,0,1,-1645.079345703125,0)">
  
  
  
</path>
</g><g transform="matrix(0.9659258262890683,0.25881904510252074,-0.25881904510252074,0.9659258262890683,133.0612310373366,423.4296119866914)" data-idx="567">
<path stroke-width="2" stroke-opacity="0.21739130434782608" stroke="rgb(253, 92, 99)" fill="none" d="M -384 39.1678 C 0 39.1678 384 -39.1678 768 -39.1678 C 1152 -39.1678 1536 39.1678 1920 39.1678 C 2304 39.1678 2688 -39.1678 3072 -39.1678 C 3456 -39.1678 3840 39.1678 4224 39.1678" data-idx="568" transform="matrix(1,0,0,1,-1650.4219970703125,0)">
  
  
  
</path>
</g><g transform="matrix(0.9659258262890683,0.25881904510252074,-0.25881904510252074,0.9659258262890683,133.0612310373366,34.369614428097634)" data-idx="572">
<path stroke-width="2" stroke-opacity="0.22826086956521738" stroke="rgb(253, 92, 99)" fill="none" d="M -384 36.5708 C 0 36.5708 384 -36.5708 768 -36.5708 C 1152 -36.5708 1536 36.5708 1920 36.5708 C 2304 36.5708 2688 -36.5708 3072 -36.5708 C 3456 -36.5708 3840 36.5708 4224 36.5708" data-idx="573" transform="matrix(1,0,0,1,-1655.7646484375,0)">
  
  
  
</path>
</g><g transform="matrix(0.9659258262890683,0.25881904510252074,-0.25881904510252074,0.9659258262890683,133.0612310373366,421.0295875726289)" data-idx="577">
<path stroke-width="2" stroke-opacity="0.2391304347826087" stroke="rgb(253, 92, 99)" fill="none" d="M -384 33.9531 C 0 33.9531 384 -33.9531 768 -33.9531 C 1152 -33.9531 1536 33.9531 1920 33.9531 C 2304 33.9531 2688 -33.9531 3072 -33.9531 C 3456 -33.9531 3840 33.9531 4224 33.9531" data-idx="578" transform="matrix(1,0,0,1,-1661.107177734375,0)">
  
  
  
</path>
</g><g transform="matrix(0.9659258262890683,0.25881904510252074,-0.25881904510252074,0.9659258262890683,133.0612310373366,36.75961381774607)" data-idx="582">
<path stroke-width="2" stroke-opacity="0.25" stroke="rgb(253, 92, 99)" fill="none" d="M -384 31.3158 C 0 31.3158 384 -31.3158 768 -31.3158 C 1152 -31.3158 1536 31.3158 1920 31.3158 C 2304 31.3158 2688 -31.3158 3072 -31.3158 C 3456 -31.3158 3840 31.3158 4224 31.3158" data-idx="583" transform="matrix(1,0,0,1,-1666.4498291015625,0)">
  
  
  
</path>
</g><g transform="matrix(0.9659258262890683,0.25881904510252074,-0.25881904510252074,0.9659258262890683,133.0612310373366,418.63963395934763)" data-idx="587">
<path stroke-width="2" stroke-opacity="0.2608695652173913" stroke="rgb(253, 92, 99)" fill="none" d="M -384 28.6604 C 0 28.6604 384 -28.6604 768 -28.6604 C 1152 -28.6604 1536 28.6604 1920 28.6604 C 2304 28.6604 2688 -28.6604 3072 -28.6604 C 3456 -28.6604 3840 28.6604 4224 28.6604" data-idx="588" transform="matrix(1,0,0,1,-1671.79248046875,0)">
  
  
  
</path>
</g><g transform="matrix(0.9659258262890683,0.25881904510252074,-0.25881904510252074,0.9659258262890683,133.0612310373366,39.15960771423045)" data-idx="592">
<path stroke-width="2" stroke-opacity="0.2717391304347826" stroke="rgb(253, 92, 99)" fill="none" d="M -384 25.9882 C 0 25.9882 384 -25.9882 768 -25.9882 C 1152 -25.9882 1536 25.9882 1920 25.9882 C 2304 25.9882 2688 -25.9882 3072 -25.9882 C 3456 -25.9882 3840 25.9882 4224 25.9882" data-idx="593" transform="matrix(1,0,0,1,-1677.135009765625,0)">
  
  
  
</path>
</g><g transform="matrix(0.9659258262890683,0.25881904510252074,-0.25881904510252074,0.9659258262890683,133.0612310373366,416.23960954528513)" data-idx="597">
<path stroke-width="2" stroke-opacity="0.2826086956521739" stroke="rgb(253, 92, 99)" fill="none" d="M -384 23.3006 C 0 23.3006 384 -23.3006 768 -23.3006 C 1152 -23.3006 1536 23.3006 1920 23.3006 C 2304 23.3006 2688 -23.3006 3072 -23.3006 C 3456 -23.3006 3840 23.3006 4224 23.3006" data-idx="598" transform="matrix(1,0,0,1,-1682.4775390625,0)">
  
  
  
</path>
</g><g transform="matrix(0.9659258262890683,0.25881904510252074,-0.25881904510252074,0.9659258262890683,133.0612310373366,41.549607103878884)" data-idx="602">
<path stroke-width="2" stroke-opacity="0.29347826086956524" stroke="rgb(253, 92, 99)" fill="none" d="M -384 20.5992 C 0 20.5992 384 -20.5992 768 -20.5992 C 1152 -20.5992 1536 20.5992 1920 20.5992 C 2304 20.5992 2688 -20.5992 3072 -20.5992 C 3456 -20.5992 3840 20.5992 4224 20.5992" data-idx="603" transform="matrix(1,0,0,1,-1687.8203125,0)">
  
  
  
</path>
</g><g transform="matrix(0.9659258262890683,0.25881904510252074,-0.25881904510252074,0.9659258262890683,133.0612310373366,413.84959489684763)" data-idx="607">
<path stroke-width="2" stroke-opacity="0.30434782608695654" stroke="rgb(253, 92, 99)" fill="none" d="M -384 17.8855 C 0 17.8855 384 -17.8855 768 -17.8855 C 1152 -17.8855 1536 17.8855 1920 17.8855 C 2304 17.8855 2688 -17.8855 3072 -17.8855 C 3456 -17.8855 3840 17.8855 4224 17.8855" data-idx="608" transform="matrix(1,0,0,1,-1693.162841796875,0)">
  
  
  
</path>
</g><g transform="matrix(0.9659258262890683,0.25881904510252074,-0.25881904510252074,0.9659258262890683,133.0612310373366,43.94960100036326)" data-idx="612">
<path stroke-width="2" stroke-opacity="0.31521739130434784" stroke="rgb(253, 92, 99)" fill="none" d="M -384 15.1611 C 0 15.1611 384 -15.1611 768 -15.1611 C 1152 -15.1611 1536 15.1611 1920 15.1611 C 2304 15.1611 2688 -15.1611 3072 -15.1611 C 3456 -15.1611 3840 15.1611 4224 15.1611" data-idx="613" transform="matrix(1,0,0,1,-1698.50537109375,0)">
  
  
  
</path>
</g><g transform="matrix(0.9659258262890683,0.25881904510252074,-0.25881904510252074,0.9659258262890683,133.0612310373366,411.45958024841013)" data-idx="617">
<path stroke-width="2" stroke-opacity="0.32608695652173914" stroke="rgb(253, 92, 99)" fill="none" d="M -384 12.4275 C 0 12.4275 384 -12.4275 768 -12.4275 C 1152 -12.4275 1536 12.4275 1920 12.4275 C 2304 12.4275 2688 -12.4275 3072 -12.4275 C 3456 -12.4275 3840 12.4275 4224 12.4275" data-idx="618" transform="matrix(1,0,0,1,-1703.8480224609375,0)">
  
  
  
</path>
</g><g transform="matrix(0.9659258262890683,0.25881904510252074,-0.25881904510252074,0.9659258262890683,133.0612310373366,46.3396003900117)" data-idx="622">
<path stroke-width="2" stroke-opacity="0.33695652173913043" stroke="rgb(253, 92, 99)" fill="none" d="M -384 9.6863 C 0 9.6863 384 -9.6863 768 -9.6863 C 1152 -9.6863 1536 9.6863 1920 9.6863 C 2304 9.6863 2688 -9.6863 3072 -9.6863 C 3456 -9.6863 3840 9.6863 4224 9.6863" data-idx="623" transform="matrix(1,0,0,1,-1709.190673828125,0)">
  
  
  
</path>
</g><g transform="matrix(0.9659258262890683,0.25881904510252074,-0.25881904510252074,0.9659258262890683,133.0612310373366,409.0596168695039)" data-idx="627">
<path stroke-width="2" stroke-opacity="0.34782608695652173" stroke="rgb(253, 92, 99)" fill="none" d="M -384 6.9393 C 0 6.9393 384 -6.9393 768 -6.9393 C 1152 -6.9393 1536 6.9393 1920 6.9393 C 2304 6.9393 2688 -6.9393 3072 -6.9393 C 3456 -6.9393 3840 6.9393 4224 6.9393" data-idx="628" transform="matrix(1,0,0,1,-1714.533203125,0)">
  
  
  
</path>
</g><g transform="matrix(0.9659258262890683,0.25881904510252074,-0.25881904510252074,0.9659258262890683,133.0612310373366,48.729599779660134)" data-idx="632">
<path stroke-width="2" stroke-opacity="0.358695652173913" stroke="rgb(253, 92, 99)" fill="none" d="M -384 4.18801 C 0 4.18801 384 -4.18801 768 -4.18801 C 1152 -4.18801 1536 4.18801 1920 4.18801 C 2304 4.18801 2688 -4.18801 3072 -4.18801 C 3456 -4.18801 3840 4.18801 4224 4.18801" data-idx="633" transform="matrix(1,0,0,1,-1719.8758544921875,0)">
  
  
  
</path>
</g><g transform="matrix(0.9659258262890683,0.25881904510252074,-0.25881904510252074,0.9659258262890683,133.0612310373366,406.6696022210664)" data-idx="637">
<path stroke-width="2" stroke-opacity="0.3695652173913043" stroke="rgb(253, 92, 99)" fill="none" d="M -384 1.43416 C 0 1.43416 384 -1.43416 768 -1.43416 C 1152 -1.43416 1536 1.43416 1920 1.43416 C 2304 1.43416 2688 -1.43416 3072 -1.43416 C 3456 -1.43416 3840 1.43416 4224 1.43416" data-idx="638" transform="matrix(1,0,0,1,-1725.218505859375,0)">
  
  
  
</path>
</g><g transform="matrix(0.9659258262890683,0.25881904510252074,-0.25881904510252074,0.9659258262890683,133.0612310373366,51.12960893493357)" data-idx="642">
<path stroke-width="2" stroke-opacity="0.3804347826086957" stroke="rgb(253, 92, 99)" fill="none" d="M -384 -1.32051 C 0 -1.32051 384 1.32051 768 1.32051 C 1152 1.32051 1536 -1.32051 1920 -1.32051 C 2304 -1.32051 2688 1.32051 3072 1.32051 C 3456 1.32051 3840 -1.32051 4224 -1.32051" data-idx="643" transform="matrix(1,0,0,1,-1730.56103515625,0)">
  
  
  
</path>
</g><g transform="matrix(0.9659258262890683,0.25881904510252074,-0.25881904510252074,0.9659258262890683,133.0612310373366,404.2695778070039)" data-idx="647">
<path stroke-width="2" stroke-opacity="0.391304347826087" stroke="rgb(253, 92, 99)" fill="none" d="M -384 -4.07444 C 0 -4.07444 384 4.07444 768 4.07444 C 1152 4.07444 1536 -4.07444 1920 -4.07444 C 2304 -4.07444 2688 4.07444 3072 4.07444 C 3456 4.07444 3840 -4.07444 4224 -4.07444" data-idx="648" transform="matrix(1,0,0,1,-1735.9036865234375,0)">
  
  
  
</path>
</g><g transform="matrix(0.9659258262890683,0.25881904510252074,-0.25881904510252074,0.9659258262890683,133.0612310373366,53.51960832458201)" data-idx="652">
<path stroke-width="2" stroke-opacity="0.40217391304347827" stroke="rgb(253, 92, 99)" fill="none" d="M -384 -6.82587 C 0 -6.82587 384 6.82587 768 6.82587 C 1152 6.82587 1536 -6.82587 1920 -6.82587 C 2304 -6.82587 2688 6.82587 3072 6.82587 C 3456 6.82587 3840 -6.82587 4224 -6.82587" data-idx="653" transform="matrix(1,0,0,1,-1741.246337890625,0)">
  
  
  
</path>
</g><g transform="matrix(0.9659258262890683,0.25881904510252074,-0.25881904510252074,0.9659258262890683,133.0612310373366,401.87962419372263)" data-idx="657">
<path stroke-width="2" stroke-opacity="0.41304347826086957" stroke="rgb(253, 92, 99)" fill="none" d="M -384 -9.57308 C 0 -9.57308 384 9.57308 768 9.57308 C 1152 9.57308 1536 -9.57308 1920 -9.57308 C 2304 -9.57308 2688 9.57308 3072 9.57308 C 3456 9.57308 3840 -9.57308 4224 -9.57308" data-idx="658" transform="matrix(1,0,0,1,-1746.5888671875,0)">
  
  
  
</path>
</g><g transform="matrix(0.9659258262890683,0.25881904510252074,-0.25881904510252074,0.9659258262890683,133.0612310373366,55.919602221066384)" data-idx="662">
<path stroke-width="2" stroke-opacity="0.42391304347826086" stroke="rgb(253, 92, 99)" fill="none" d="M -384 -12.3145 C 0 -12.3145 384 12.3145 768 12.3145 C 1152 12.3145 1536 -12.3145 1920 -12.3145 C 2304 -12.3145 2688 12.3145 3072 12.3145 C 3456 12.3145 3840 -12.3145 4224 -12.3145" data-idx="663" transform="matrix(1,0,0,1,-1751.9315185546875,0)">
  
  
  
</path>
</g><g transform="matrix(0.9659258262890683,0.25881904510252074,-0.25881904510252074,0.9659258262890683,133.0612310373366,399.48960954528513)" data-idx="667">
<path stroke-width="2" stroke-opacity="0.43478260869565216" stroke="rgb(253, 92, 99)" fill="none" d="M -384 -15.0485 C 0 -15.0485 384 15.0485 768 15.0485 C 1152 15.0485 1536 -15.0485 1920 -15.0485 C 2304 -15.0485 2688 15.0485 3072 15.0485 C 3456 15.0485 3840 -15.0485 4224 -15.0485" data-idx="668" transform="matrix(1,0,0,1,-1757.274169921875,0)">
  
  
  
</path>
</g><g transform="matrix(0.9659258262890683,0.25881904510252074,-0.25881904510252074,0.9659258262890683,133.0612310373366,58.30960161071482)" data-idx="672">
<path stroke-width="2" stroke-opacity="0.44565217391304346" stroke="rgb(253, 92, 99)" fill="none" d="M -384 -17.7733 C 0 -17.7733 384 17.7733 768 17.7733 C 1152 17.7733 1536 -17.7733 1920 -17.7733 C 2304 -17.7733 2688 17.7733 3072 17.7733 C 3456 17.7733 3840 -17.7733 4224 -17.7733" data-idx="673" transform="matrix(1,0,0,1,-1762.61669921875,0)">
  
  
  
</path>
</g><g transform="matrix(0.9659258262890683,0.25881904510252074,-0.25881904510252074,0.9659258262890683,133.0612310373366,397.08958513122263)" data-idx="677">
<path stroke-width="2" stroke-opacity="0.45652173913043476" stroke="rgb(253, 92, 99)" fill="none" d="M -384 -20.4875 C 0 -20.4875 384 20.4875 768 20.4875 C 1152 20.4875 1536 -20.4875 1920 -20.4875 C 2304 -20.4875 2688 20.4875 3072 20.4875 C 3456 20.4875 3840 -20.4875 4224 -20.4875" data-idx="678" transform="matrix(1,0,0,1,-1767.9593505859375,0)">
  
  
  
</path>
</g><g transform="matrix(0.9659258262890683,0.25881904510252074,-0.25881904510252074,0.9659258262890683,133.0612310373366,60.70961076598826)" data-idx="682">
<path stroke-width="2" stroke-opacity="0.4673913043478261" stroke="rgb(253, 92, 99)" fill="none" d="M -384 -23.1895 C 0 -23.1895 384 23.1895 768 23.1895 C 1152 23.1895 1536 -23.1895 1920 -23.1895 C 2304 -23.1895 2688 23.1895 3072 23.1895 C 3456 23.1895 3840 -23.1895 4224 -23.1895" data-idx="683" transform="matrix(1,0,0,1,-1773.302001953125,0)">
  
  
  
</path>
</g><g transform="matrix(0.9659258262890683,0.25881904510252074,-0.25881904510252074,0.9659258262890683,133.0612310373366,394.6996315179414)" data-idx="687">
<path stroke-width="2" stroke-opacity="0.4782608695652174" stroke="rgb(253, 92, 99)" fill="none" d="M -384 -25.8776 C 0 -25.8776 384 25.8776 768 25.8776 C 1152 25.8776 1536 -25.8776 1920 -25.8776 C 2304 -25.8776 2688 25.8776 3072 25.8776 C 3456 25.8776 3840 -25.8776 4224 -25.8776" data-idx="688" transform="matrix(1,0,0,1,-1778.6446533203125,0)">
  
  
  
</path>
</g><g data-idx="692"></g></g></svg>