<svg xmlns="http://www.w3.org/2000/svg" viewBox="0 0 1366 768" preserveAspectRatio="xMidYMid" width="1366" height="768" style="shape-rendering: auto; display: block; background: rgb(255, 255, 255);"><g data-idx="1"><g transform="matrix(1,0,0,1,0,0)" data-idx="2">
<path stroke-width="0.5" stroke-opacity="0" stroke="rgb(255, 106, 0)" fill="none" d="M 0 260.696 C 228 260.696 455 599.304 683 599.304 C 911 599.304 1138 260.696 1366 260.696 C 1594 260.696 1821 599.304 2049 599.304 C 2277 599.304 2504 260.696 2732 260.696" data-idx="3" transform="matrix(1,0,0,1,-131.2725830078125,0)">
  
  
  
</path>
</g><g transform="matrix(0.9986295347545738,0.052335956242943835,-0.052335956242943835,0.9986295347545738,21.03303495991645,-35.21919945968699)" data-idx="7">
<path stroke-width="0.5" stroke-opacity="0" stroke="rgb(255, 106, 0)" fill="none" d="M 0 262.623 C 228 262.623 455 597.377 683 597.377 C 911 597.377 1138 262.623 1366 262.623 C 1594 262.623 1821 597.377 2049 597.377 C 2277 597.377 2504 262.623 2732 262.623" data-idx="8" transform="matrix(1,0,0,1,-136.23985290527344,0)">
  
  
  
</path>
</g><g transform="matrix(0.9945218953682733,0.10452846326765347,-0.10452846326765347,0.9945218953682733,43.880475358248304,-69.28934823322425)" data-idx="12">
<path stroke-width="0.5" stroke-opacity="0" stroke="rgb(255, 106, 0)" fill="none" d="M 0 264.643 C 228 264.643 455 595.357 683 595.357 C 911 595.357 1138 264.643 1366 264.643 C 1594 264.643 1821 595.357 2049 595.357 C 2277 595.357 2504 264.643 2732 264.643" data-idx="13" transform="matrix(1,0,0,1,-141.20712280273438,0)">
  
  
  
</path>
</g><g transform="matrix(0.9876883405951378,0.15643446504023087,-0.15643446504023087,0.9876883405951378,68.4796979489696,-102.11706241101058)" data-idx="17">
<path stroke-width="0.5" stroke-opacity="0" stroke="rgb(255, 106, 0)" fill="none" d="M 0 266.757 C 228 266.757 455 593.243 683 593.243 C 911 593.243 1138 266.757 1366 266.757 C 1594 266.757 1821 593.243 2049 593.243 C 2277 593.243 2504 266.757 2732 266.757" data-idx="18" transform="matrix(1,0,0,1,-146.17440795898438,0)">
  
  
  
</path>
</g><g transform="matrix(0.9781476007338057,0.20791169081775934,-0.20791169081775934,0.9781476007338057,94.76327797283034,-133.61236351031107)" data-idx="22">
<path stroke-width="0.5" stroke-opacity="0" stroke="rgb(255, 106, 0)" fill="none" d="M 0 268.968 C 228 268.968 455 591.032 683 591.032 C 911 591.032 1138 268.968 1366 268.968 C 1594 268.968 1821 591.032 2049 591.032 C 2277 591.032 2504 268.968 2732 268.968" data-idx="23" transform="matrix(1,0,0,1,-151.1416778564453,0)">
  
  
  
</path>
</g><g transform="matrix(0.9659258262890683,0.25881904510252074,-0.25881904510252074,0.9659258262890683,122.65917396393434,-163.68892510002388)" data-idx="27">
<path stroke-width="0.5" stroke-opacity="0" stroke="rgb(255, 106, 0)" fill="none" d="M 0 271.276 C 228 271.276 455 588.724 683 588.724 C 911 588.724 1138 271.276 1366 271.276 C 1594 271.276 1821 588.724 2049 588.724 C 2277 588.724 2504 271.276 2732 271.276" data-idx="28" transform="matrix(1,0,0,1,-156.10894775390625,0)">
  
  
  
</path>
</g><g transform="matrix(0.9510565162951535,0.3090169943749474,-0.3090169943749474,0.9510565162951535,152.09092521038997,-192.264309415428)" data-idx="32">
<path stroke-width="0.5" stroke-opacity="0" stroke="rgb(255, 106, 0)" fill="none" d="M 0 273.683 C 228 273.683 455 586.317 683 586.317 C 911 586.317 1138 273.683 1366 273.683 C 1594 273.683 1821 586.317 2049 586.317 C 2277 586.317 2504 273.683 2732 273.683" data-idx="33" transform="matrix(1,0,0,1,-161.0762176513672,0)">
  
  
  
</path>
</g><g transform="matrix(0.9335804264972017,0.35836794954530027,-0.35836794954530027,0.9335804264972017,182.97786132780652,-219.26019331436555)" data-idx="37">
<path stroke-width="0.5" stroke-opacity="0" stroke="rgb(255, 106, 0)" fill="none" d="M 0 276.192 C 228 276.192 455 583.808 683 583.808 C 911 583.808 1138 276.192 1366 276.192 C 1594 276.192 1821 583.808 2049 583.808 C 2277 583.808 2504 276.192 2732 276.192" data-idx="38" transform="matrix(1,0,0,1,-166.04348754882812,0)">
  
  
  
</path>
</g><g transform="matrix(0.9135454576426009,0.4067366430758002,-0.4067366430758002,0.9135454576426009,215.23532337121082,-244.60258295553035)" data-idx="42">
<path stroke-width="0.5" stroke-opacity="0" stroke="rgb(255, 106, 0)" fill="none" d="M 0 278.802 C 228 278.802 455 581.198 683 581.198 C 911 581.198 1138 278.802 1366 278.802 C 1594 278.802 1821 581.198 2049 581.198 C 2277 581.198 2504 278.802 2732 278.802" data-idx="43" transform="matrix(1,0,0,1,-171.0107421875,0)">
  
  
  
</path>
</g><g transform="matrix(0.8910065241883679,0.45399049973954675,-0.45399049973954675,0.8910065241883679,248.77489587933064,-268.2220166104437)" data-idx="47">
<path stroke-width="0.5" stroke-opacity="0" stroke="rgb(255, 106, 0)" fill="none" d="M 0 281.517 C 228 281.517 455 578.483 683 578.483 C 911 578.483 1138 281.517 1366 281.517 C 1594 281.517 1821 578.483 2049 578.483 C 2277 578.483 2504 281.517 2732 281.517" data-idx="48" transform="matrix(1,0,0,1,-175.97804260253906,0)">
  
  
  
</path>
</g><g transform="matrix(0.8660254037844387,0.49999999999999994,-0.49999999999999994,0.8660254037844387,283.50464921522837,-290.05375505322445)" data-idx="52">
<path stroke-width="0.5" stroke-opacity="0" stroke="rgb(255, 106, 0)" fill="none" d="M 0 284.337 C 228 284.337 455 575.663 683 575.663 C 911 575.663 1138 284.337 1366 284.337 C 1594 284.337 1821 575.663 2049 575.663 C 2277 575.663 2504 284.337 2732 284.337" data-idx="53" transform="matrix(1,0,0,1,-180.94529724121094,0)">
  
  
  
</path>
</g><g transform="matrix(0.838670567945424,0.5446390350150271,-0.5446390350150271,0.838670567945424,319.3293915390458,-310.0379590063063)" data-idx="57">
<path stroke-width="0.5" stroke-opacity="0" stroke="rgb(255, 106, 0)" fill="none" d="M 0 287.263 C 228 287.263 455 572.737 683 572.737 C 911 572.737 1138 287.263 1366 287.263 C 1594 287.263 1821 572.737 2049 572.737 C 2277 572.737 2504 287.263 2732 287.263" data-idx="58" transform="matrix(1,0,0,1,-185.91259765625,0)">
  
  
  
</path>
</g><g transform="matrix(0.8090169943749475,0.5877852522924731,-0.5877852522924731,0.8090169943749475,356.15092972222055,-328.11985315573895)" data-idx="62">
<path stroke-width="0.5" stroke-opacity="0" stroke="rgb(255, 106, 0)" fill="none" d="M 0 290.297 C 228 290.297 455 569.703 683 569.703 C 911 569.703 1138 290.297 1366 290.297 C 1594 290.297 1821 569.703 2049 569.703 C 2277 569.703 2504 290.297 2732 290.297" data-idx="63" transform="matrix(1,0,0,1,-190.87986755371094,0)">
  
  
  
</path>
</g><g transform="matrix(0.7771459614569709,0.6293203910498374,-0.6293203910498374,0.7771459614569709,393.86833848802644,-344.2498762865157)" data-idx="67">
<path stroke-width="0.5" stroke-opacity="0" stroke="rgb(255, 106, 0)" fill="none" d="M 0 293.44 C 228 293.44 455 566.56 683 566.56 C 911 566.56 1138 293.44 1366 293.44 C 1594 293.44 1821 566.56 2049 566.56 C 2277 566.56 2504 293.44 2732 293.44" data-idx="68" transform="matrix(1,0,0,1,-195.8471221923828,0)">
  
  
  
</path>
</g><g transform="matrix(0.7431448254773942,0.6691306063588582,-0.6691306063588582,0.7431448254773942,432.3782370407413,-358.3838171264197)" data-idx="72">
<path stroke-width="0.5" stroke-opacity="0" stroke="rgb(255, 106, 0)" fill="none" d="M 0 296.692 C 228 296.692 455 563.308 683 563.308 C 911 563.308 1138 296.692 1366 296.692 C 1594 296.692 1821 563.308 2049 563.308 C 2277 563.308 2504 296.692 2732 296.692" data-idx="73" transform="matrix(1,0,0,1,-200.81439208984375,0)">
  
  
  
</path>
</g><g transform="matrix(0.7071067811865476,0.7071067811865476,-0.7071067811865476,0.7071067811865476,471.5750724252223,-370.4829355260463)" data-idx="77">
<path stroke-width="0.5" stroke-opacity="0" stroke="rgb(255, 106, 0)" fill="none" d="M 0 300.055 C 228 300.055 455 559.945 683 559.945 C 911 559.945 1138 300.055 1366 300.055 C 1594 300.055 1821 559.945 2049 559.945 C 2277 559.945 2504 300.055 2732 300.055" data-idx="78" transform="matrix(1,0,0,1,-205.7816619873047,0)">
  
  
  
</path>
</g><g transform="matrix(0.6691306063588582,0.7431448254773942,-0.7431448254773942,0.6691306063588582,511.3514088402192,-380.51406864286184)" data-idx="82">
<path stroke-width="0.5" stroke-opacity="0" stroke="rgb(255, 106, 0)" fill="none" d="M 0 303.53 C 228 303.53 455 556.47 683 556.47 C 911 556.47 1138 303.53 1366 303.53 C 1594 303.53 1821 556.47 2049 556.47 C 2277 556.47 2504 303.53 2732 303.53" data-idx="83" transform="matrix(1,0,0,1,-210.74893188476562,0)">
  
  
  
</path>
</g><g transform="matrix(0.6293203910498375,0.7771459614569709,-0.7771459614569709,0.6293203910498375,551.5982221124378,-388.4497218382487)" data-idx="87">
<path stroke-width="0.5" stroke-opacity="0" stroke="rgb(255, 106, 0)" fill="none" d="M 0 307.116 C 228 307.116 455 552.884 683 552.884 C 911 552.884 1138 307.116 1366 307.116 C 1594 307.116 1821 552.884 2049 552.884 C 2277 552.884 2504 307.116 2732 307.116" data-idx="88" transform="matrix(1,0,0,1,-215.71621704101562,0)">
  
  
  
</path>
</g><g transform="matrix(0.5877852522924731,0.8090169943749475,-0.8090169943749475,0.5877852522924731,592.2051985242207,-394.26814403839876)" data-idx="92">
<path stroke-width="0.5" stroke-opacity="0" stroke="rgb(255, 106, 0)" fill="none" d="M 0 310.814 C 228 310.814 455 549.186 683 549.186 C 911 549.186 1138 310.814 1366 310.814 C 1594 310.814 1821 549.186 2049 549.186 C 2277 549.186 2504 310.814 2732 310.814" data-idx="93" transform="matrix(1,0,0,1,-220.68348693847656,0)">
  
  
  
</path>
</g><g transform="matrix(0.5446390350150271,0.838670567945424,-0.838670567945424,0.5446390350150271,633.0610371757793,-397.95338735249504)" data-idx="97">
<path stroke-width="0.5" stroke-opacity="0" stroke="rgb(255, 106, 0)" fill="none" d="M 0 314.625 C 228 314.625 455 545.375 683 545.375 C 911 545.375 1138 314.625 1366 314.625 C 1594 314.625 1821 545.375 2049 545.375 C 2277 545.375 2504 314.625 2732 314.625" data-idx="98" transform="matrix(1,0,0,1,-225.6507568359375,0)">
  
  
  
</path>
</g><g transform="matrix(0.5000000000000001,0.8660254037844386,-0.8660254037844386,0.5000000000000001,674.0537550532244,-399.4953507847715)" data-idx="102">
<path stroke-width="0.5" stroke-opacity="0" stroke="rgb(255, 106, 0)" fill="none" d="M 0 318.547 C 228 318.547 455 541.453 683 541.453 C 911 541.453 1138 318.547 1366 318.547 C 1594 318.547 1821 541.453 2049 541.453 C 2277 541.453 2504 318.547 2732 318.547" data-idx="103" transform="matrix(1,0,0,1,-230.6180419921875,0)">
  
  
  
</path>
</g><g transform="matrix(0.4539904997395468,0.8910065241883678,-0.8910065241883678,0.4539904997395468,715.0709939662228,-398.88980792064115)" data-idx="107">
<path stroke-width="0.5" stroke-opacity="0" stroke="rgb(255, 106, 0)" fill="none" d="M 0 322.581 C 228 322.581 455 537.419 683 537.419 C 911 537.419 1138 322.581 1366 322.581 C 1594 322.581 1821 537.419 2049 537.419 C 2277 537.419 2504 322.581 2732 322.581" data-idx="108" transform="matrix(1,0,0,1,-235.58531188964844,0)">
  
  
  
</path>
</g><g transform="matrix(0.4067366430758002,0.9135454576426009,-0.9135454576426009,0.4067366430758002,756.0003285139871,-396.1384185110037)" data-idx="112">
<path stroke-width="0.5" stroke-opacity="0" stroke="rgb(255, 106, 0)" fill="none" d="M 0 326.725 C 228 326.725 455 533.275 683 533.275 C 911 533.275 1138 326.725 1366 326.725 C 1594 326.725 1821 533.275 2049 533.275 C 2277 533.275 2504 326.725 2732 326.725" data-idx="113" transform="matrix(1,0,0,1,-240.55258178710938,0)">
  
  
  
</path>
</g><g transform="matrix(0.3583679495453004,0.9335804264972017,-0.9335804264972017,0.3583679495453004,796.7295742354853,-391.248723922984)" data-idx="117">
<path stroke-width="0.5" stroke-opacity="0" stroke="rgb(255, 106, 0)" fill="none" d="M 0 330.979 C 228 330.979 455 529.021 683 529.021 C 911 529.021 1138 330.979 1366 330.979 C 1594 330.979 1821 529.021 2049 529.021 C 2277 529.021 2504 330.979 2732 330.979" data-idx="118" transform="matrix(1,0,0,1,-245.5198516845703,0)">
  
  
  
</path>
</g><g transform="matrix(0.30901699437494745,0.9510565162951535,-0.9510565162951535,0.30901699437494745,837.1470950992498,-384.2341264695697)" data-idx="122">
<path stroke-width="0.5" stroke-opacity="0" stroke="rgb(255, 106, 0)" fill="none" d="M 0 335.341 C 228 335.341 455 524.659 683 524.659 C 911 524.659 1138 335.341 1366 335.341 C 1594 335.341 1821 524.659 2049 524.659 C 2277 524.659 2504 335.341 2732 335.341" data-idx="123" transform="matrix(1,0,0,1,-250.48712158203125,0)">
  
  
  
</path>
</g><g transform="matrix(0.25881904510252074,0.9659258262890683,-0.9659258262890683,0.25881904510252074,877.1421094899806,-375.1138526748016)" data-idx="127">
<path stroke-width="0.5" stroke-opacity="0" stroke="rgb(255, 106, 0)" fill="none" d="M 0 339.81 C 228 339.81 455 520.19 683 520.19 C 911 520.19 1138 339.81 1366 339.81 C 1594 339.81 1821 520.19 2049 520.19 C 2277 520.19 2504 339.81 2732 339.81" data-idx="128" transform="matrix(1,0,0,1,-255.45440673828125,0)">
  
  
  
</path>
</g><g transform="matrix(0.20791169081775945,0.9781476007338056,-0.9781476007338056,0.20791169081775945,916.6049938532516,-363.9129005752088)" data-idx="132">
<path stroke-width="0.5" stroke-opacity="0" stroke="rgb(255, 106, 0)" fill="none" d="M 0 344.383 C 228 344.383 455 515.618 683 515.618 C 911 515.618 1138 344.383 1366 344.383 C 1594 344.383 1821 515.618 2049 515.618 C 2277 515.618 2504 344.383 2732 344.383" data-idx="133" transform="matrix(1,0,0,1,-260.4216613769531,0)">
  
  
  
</path>
</g><g transform="matrix(0.15643446504023092,0.9876883405951378,-0.9876883405951378,0.15643446504023092,955.4275831660552,-350.6619712019277)" data-idx="137">
<path stroke-width="0.5" stroke-opacity="0" stroke="rgb(255, 106, 0)" fill="none" d="M 0 349.056 C 228 349.056 455 510.943 683 510.943 C 911 510.943 1138 349.056 1366 349.056 C 1594 349.056 1821 510.943 2049 510.943 C 2277 510.943 2504 349.056 2732 349.056" data-idx="138" transform="matrix(1,0,0,1,-265.3889465332031,0)">
  
  
  
</path>
</g><g transform="matrix(0.10452846326765346,0.9945218953682733,-0.9945218953682733,0.10452846326765346,993.5034674096096,-335.39738443130955)" data-idx="142">
<path stroke-width="0.5" stroke-opacity="0" stroke="rgb(255, 106, 0)" fill="none" d="M 0 353.829 C 228 353.829 455 506.171 683 506.171 C 911 506.171 1138 353.829 1366 353.829 C 1594 353.829 1821 506.171 2049 506.171 C 2277 506.171 2504 353.829 2732 353.829" data-idx="143" transform="matrix(1,0,0,1,-270.3562316894531,0)">
  
  
  
</path>
</g><g transform="matrix(0.052335956242943966,0.9986295347545738,-0.9986295347545738,0.052335956242943966,1030.7282832318256,-318.16097943466445)" data-idx="147">
<path stroke-width="0.5" stroke-opacity="0" stroke="rgb(255, 106, 0)" fill="none" d="M 0 358.696 C 228 358.696 455 501.304 683 501.304 C 911 501.304 1138 358.696 1366 358.696 C 1594 358.696 1821 501.304 2049 501.304 C 2277 501.304 2504 358.696 2732 358.696" data-idx="148" transform="matrix(1,0,0,1,-275.323486328125,0)">
  
  
  
</path>
</g><g transform="matrix(6.123233995736766e-17,1,-1,6.123233995736766e-17,1067,-299)" data-idx="152">
<path stroke-width="0.5" stroke-opacity="0" stroke="rgb(255, 106, 0)" fill="none" d="M 0 363.655 C 228 363.655 455 496.345 683 496.345 C 911 496.345 1138 363.655 1366 363.655 C 1594 363.655 1821 496.345 2049 496.345 C 2277 496.345 2504 363.655 2732 363.655" data-idx="153" transform="matrix(1,0,0,1,-280.290771484375,0)">
  
  
  
</path>
</g><g transform="matrix(-0.05233595624294384,0.9986295347545738,-0.9986295347545738,-0.05233595624294384,1102.219199459687,-277.96696504008355)" data-idx="157">
<path stroke-width="0.5" stroke-opacity="0" stroke="rgb(255, 106, 0)" fill="none" d="M 0 368.699 C 228 368.699 455 491.301 683 491.301 C 911 491.301 1138 368.699 1366 368.699 C 1594 368.699 1821 491.301 2049 491.301 C 2277 491.301 2504 368.699 2732 368.699" data-idx="158" transform="matrix(1,0,0,1,-285.2580261230469,0)">
  
  
  
</path>
</g><g transform="matrix(-0.10452846326765355,0.9945218953682733,-0.9945218953682733,-0.10452846326765355,1136.2893482332242,-255.1195246417517)" data-idx="162">
<path stroke-width="0.5" stroke-opacity="0" stroke="rgb(255, 106, 0)" fill="none" d="M 0 373.826 C 228 373.826 455 486.174 683 486.174 C 911 486.174 1138 373.826 1366 373.826 C 1594 373.826 1821 486.174 2049 486.174 C 2277 486.174 2504 373.826 2732 373.826" data-idx="163" transform="matrix(1,0,0,1,-290.2253112792969,0)">
  
  
  
</path>
</g><g transform="matrix(-0.1564344650402308,0.9876883405951378,-0.9876883405951378,-0.1564344650402308,1169.1170624110105,-230.5203020510304)" data-idx="167">
<path stroke-width="0.5" stroke-opacity="0" stroke="rgb(255, 106, 0)" fill="none" d="M 0 379.029 C 228 379.029 455 480.971 683 480.971 C 911 480.971 1138 379.029 1366 379.029 C 1594 379.029 1821 480.971 2049 480.971 C 2277 480.971 2504 379.029 2732 379.029" data-idx="168" transform="matrix(1,0,0,1,-295.1925964355469,0)">
  
  
  
</path>
</g><g transform="matrix(-0.20791169081775934,0.9781476007338057,-0.9781476007338057,-0.20791169081775934,1200.612363510311,-204.23672202716966)" data-idx="172">
<path stroke-width="0.5" stroke-opacity="0" stroke="rgb(255, 106, 0)" fill="none" d="M 0 384.302 C 228 384.302 455 475.698 683 475.698 C 911 475.698 1138 384.302 1366 384.302 C 1594 384.302 1821 475.698 2049 475.698 C 2277 475.698 2504 384.302 2732 384.302" data-idx="173" transform="matrix(1,0,0,1,-300.15985107421875,0)">
  
  
  
</path>
</g><g transform="matrix(-0.25881904510252085,0.9659258262890683,-0.9659258262890683,-0.25881904510252085,1230.6889251000239,-176.34082603606566)" data-idx="177">
<path stroke-width="0.5" stroke-opacity="0" stroke="rgb(255, 106, 0)" fill="none" d="M 0 389.64 C 228 389.64 455 470.36 683 470.36 C 911 470.36 1138 389.64 1366 389.64 C 1594 389.64 1821 470.36 2049 470.36 C 2277 470.36 2504 389.64 2732 389.64" data-idx="178" transform="matrix(1,0,0,1,-305.12713623046875,0)">
  
  
  
</path>
</g><g transform="matrix(-0.30901699437494734,0.9510565162951536,-0.9510565162951536,-0.30901699437494734,1259.264309415428,-146.90907478961014)" data-idx="182">
<path stroke-width="0.5" stroke-opacity="0" stroke="rgb(255, 106, 0)" fill="none" d="M 0 395.035 C 228 395.035 455 464.965 683 464.965 C 911 464.965 1138 395.035 1366 395.035 C 1594 395.035 1821 464.965 2049 464.965 C 2277 464.965 2504 395.035 2732 395.035" data-idx="183" transform="matrix(1,0,0,1,-310.0943908691406,0)">
  
  
  
</path>
</g><g transform="matrix(-0.35836794954530027,0.9335804264972017,-0.9335804264972017,-0.35836794954530027,1286.2601933143656,-116.02213867219348)" data-idx="187">
<path stroke-width="0.5" stroke-opacity="0" stroke="rgb(255, 106, 0)" fill="none" d="M 0 400.48 C 228 400.48 455 459.52 683 459.52 C 911 459.52 1138 400.48 1366 400.48 C 1594 400.48 1821 459.52 2049 459.52 C 2277 459.52 2504 400.48 2732 400.48" data-idx="188" transform="matrix(1,0,0,1,-315.0616760253906,0)">
  
  
  
</path>
</g><g transform="matrix(-0.40673664307580026,0.9135454576426009,-0.9135454576426009,-0.40673664307580026,1311.6025829555304,-83.76467662878912)" data-idx="192">
<path stroke-width="0.5" stroke-opacity="0" stroke="rgb(255, 106, 0)" fill="none" d="M 0 405.969 C 228 405.969 455 454.031 683 454.031 C 911 454.031 1138 405.969 1366 405.969 C 1594 405.969 1821 454.031 2049 454.031 C 2277 454.031 2504 405.969 2732 405.969" data-idx="193" transform="matrix(1,0,0,1,-320.0289306640625,0)">
  
  
  
</path>
</g><g transform="matrix(-0.45399049973954675,0.8910065241883679,-0.8910065241883679,-0.45399049973954675,1335.2220166104437,-50.22510412066936)" data-idx="197">
<path stroke-width="0.5" stroke-opacity="0" stroke="rgb(255, 106, 0)" fill="none" d="M 0 411.493 C 228 411.493 455 448.507 683 448.507 C 911 448.507 1138 411.493 1366 411.493 C 1594 411.493 1821 448.507 2049 448.507 C 2277 448.507 2504 411.493 2732 411.493" data-idx="198" transform="matrix(1,0,0,1,-324.9962158203125,0)">
  
  
  
</path>
</g><g transform="matrix(-0.4999999999999998,0.8660254037844387,-0.8660254037844387,-0.4999999999999998,1357.0537550532242,-15.495350784771745)" data-idx="202">
<path stroke-width="0.5" stroke-opacity="0" stroke="rgb(255, 106, 0)" fill="none" d="M 0 417.045 C 228 417.045 455 442.955 683 442.955 C 911 442.955 1138 417.045 1366 417.045 C 1594 417.045 1821 442.955 2049 442.955 C 2277 442.955 2504 417.045 2732 417.045" data-idx="203" transform="matrix(1,0,0,1,-329.9635009765625,0)">
  
  
  
</path>
</g><g transform="matrix(-0.5446390350150271,0.838670567945424,-0.838670567945424,-0.5446390350150271,1377.0379590063062,20.329391539045787)" data-idx="207">
<path stroke-width="0.5" stroke-opacity="0" stroke="rgb(255, 106, 0)" fill="none" d="M 0 422.616 C 228 422.616 455 437.384 683 437.384 C 911 437.384 1138 422.616 1366 422.616 C 1594 422.616 1821 437.384 2049 437.384 C 2277 437.384 2504 422.616 2732 422.616" data-idx="208" transform="matrix(1,0,0,1,-334.9307556152344,0)">
  
  
  
</path>
</g><g transform="matrix(-0.587785252292473,0.8090169943749475,-0.8090169943749475,-0.587785252292473,1395.1198531557388,57.15092972222055)" data-idx="212">
<path stroke-width="0.5" stroke-opacity="0" stroke="rgb(255, 106, 0)" fill="none" d="M 0 428.199 C 228 428.199 455 431.801 683 431.801 C 911 431.801 1138 428.199 1366 428.199 C 1594 428.199 1821 431.801 2049 431.801 C 2277 431.801 2504 428.199 2732 428.199" data-idx="213" transform="matrix(1,0,0,1,-339.8980407714844,0)">
  
  
  
</path>
</g><g transform="matrix(-0.6293203910498373,0.777145961456971,-0.777145961456971,-0.6293203910498373,1411.2498762865157,94.86833848802627)" data-idx="217">
<path stroke-width="0.5" stroke-opacity="0" stroke="rgb(255, 106, 0)" fill="none" d="M 0 433.784 C 228 433.784 455 426.216 683 426.216 C 911 426.216 1138 433.784 1366 433.784 C 1594 433.784 1821 426.216 2049 426.216 C 2277 426.216 2504 433.784 2732 433.784" data-idx="218" transform="matrix(1,0,0,1,-344.86529541015625,0)">
  
  
  
</path>
</g><g transform="matrix(-0.6691306063588582,0.7431448254773942,-0.7431448254773942,-0.6691306063588582,1425.3838171264197,133.37823704074128)" data-idx="222">
<path stroke-width="0.5" stroke-opacity="0" stroke="rgb(255, 106, 0)" fill="none" d="M 0 439.363 C 228 439.363 455 420.637 683 420.637 C 911 420.637 1138 439.363 1366 439.363 C 1594 439.363 1821 420.637 2049 420.637 C 2277 420.637 2504 439.363 2732 439.363" data-idx="223" transform="matrix(1,0,0,1,-349.8326110839844,0)">
  
  
  
</path>
</g><g transform="matrix(-0.7071067811865475,0.7071067811865476,-0.7071067811865476,-0.7071067811865475,1437.4829355260463,172.57507242522223)" data-idx="227">
<path stroke-width="0.5" stroke-opacity="0" stroke="rgb(255, 106, 0)" fill="none" d="M 0 444.928 C 228 444.928 455 415.072 683 415.072 C 911 415.072 1138 444.928 1366 444.928 C 1594 444.928 1821 415.072 2049 415.072 C 2277 415.072 2504 444.928 2732 444.928" data-idx="228" transform="matrix(1,0,0,1,-354.79986572265625,0)">
  
  
  
</path>
</g><g transform="matrix(-0.7431448254773941,0.6691306063588583,-0.6691306063588583,-0.7431448254773941,1447.5140686428617,212.3514088402191)" data-idx="232">
<path stroke-width="0.5" stroke-opacity="0" stroke="rgb(255, 106, 0)" fill="none" d="M 0 450.471 C 228 450.471 455 409.529 683 409.529 C 911 409.529 1138 450.471 1366 450.471 C 1594 450.471 1821 409.529 2049 409.529 C 2277 409.529 2504 450.471 2732 450.471" data-idx="233" transform="matrix(1,0,0,1,-359.7671203613281,0)">
  
  
  
</path>
</g><g transform="matrix(-0.7771459614569709,0.6293203910498374,-0.6293203910498374,-0.7771459614569709,1455.4497218382487,252.5982221124379)" data-idx="237">
<path stroke-width="0.5" stroke-opacity="0" stroke="rgb(255, 106, 0)" fill="none" d="M 0 455.984 C 228 455.984 455 404.016 683 404.016 C 911 404.016 1138 455.984 1366 455.984 C 1594 455.984 1821 404.016 2049 404.016 C 2277 404.016 2504 455.984 2732 455.984" data-idx="238" transform="matrix(1,0,0,1,-364.7344055175781,0)">
  
  
  
</path>
</g><g transform="matrix(-0.8090169943749473,0.5877852522924732,-0.5877852522924732,-0.8090169943749473,1461.2681440383988,293.2051985242205)" data-idx="242">
<path stroke-width="0.5" stroke-opacity="0" stroke="rgb(255, 106, 0)" fill="none" d="M 0 461.458 C 228 461.458 455 398.542 683 398.542 C 911 398.542 1138 461.458 1366 461.458 C 1594 461.458 1821 398.542 2049 398.542 C 2277 398.542 2504 461.458 2732 461.458" data-idx="243" transform="matrix(1,0,0,1,-369.70166015625,0)">
  
  
  
</path>
</g><g transform="matrix(-0.8386705679454239,0.5446390350150273,-0.5446390350150273,-0.8386705679454239,1464.953387352495,334.0610371757791)" data-idx="247">
<path stroke-width="0.5" stroke-opacity="0" stroke="rgb(255, 106, 0)" fill="none" d="M 0 466.887 C 228 466.887 455 393.113 683 393.113 C 911 393.113 1138 466.887 1366 466.887 C 1594 466.887 1821 393.113 2049 393.113 C 2277 393.113 2504 466.887 2732 466.887" data-idx="248" transform="matrix(1,0,0,1,-374.6689453125,0)">
  
  
  
</path>
</g><g transform="matrix(-0.8660254037844387,0.49999999999999994,-0.49999999999999994,-0.8660254037844387,1466.4953507847717,375.0537550532245)" data-idx="252">
<path stroke-width="0.5" stroke-opacity="0" stroke="rgb(255, 106, 0)" fill="none" d="M 0 472.262 C 228 472.262 455 387.738 683 387.738 C 911 387.738 1138 472.262 1366 472.262 C 1594 472.262 1821 387.738 2049 387.738 C 2277 387.738 2504 472.262 2732 472.262" data-idx="253" transform="matrix(1,0,0,1,-379.6361999511719,0)">
  
  
  
</path>
</g><g transform="matrix(-0.8910065241883678,0.45399049973954686,-0.45399049973954686,-0.8910065241883678,1465.8898079206413,416.0709939662227)" data-idx="257">
<path stroke-width="0.5" stroke-opacity="0" stroke="rgb(255, 106, 0)" fill="none" d="M 0 477.578 C 228 477.578 455 382.422 683 382.422 C 911 382.422 1138 477.578 1366 477.578 C 1594 477.578 1821 382.422 2049 382.422 C 2277 382.422 2504 477.578 2732 477.578" data-idx="258" transform="matrix(1,0,0,1,-384.6034851074219,0)">
  
  
  
</path>
</g><g transform="matrix(-0.9135454576426008,0.40673664307580043,-0.40673664307580043,-0.9135454576426008,1463.1384185110037,457.000328513987)" data-idx="262">
<path stroke-width="0.5" stroke-opacity="0" stroke="rgb(255, 106, 0)" fill="none" d="M 0 482.827 C 228 482.827 455 377.173 683 377.173 C 911 377.173 1138 482.827 1366 482.827 C 1594 482.827 1821 377.173 2049 377.173 C 2277 377.173 2504 482.827 2732 482.827" data-idx="263" transform="matrix(1,0,0,1,-389.57073974609375,0)">
  
  
  
</path>
</g><g transform="matrix(-0.9335804264972017,0.3583679495453002,-0.3583679495453002,-0.9335804264972017,1458.248723922984,497.7295742354854)" data-idx="267">
<path stroke-width="0.5" stroke-opacity="0" stroke="rgb(255, 106, 0)" fill="none" d="M 0 488.003 C 228 488.003 455 371.997 683 371.997 C 911 371.997 1138 488.003 1366 488.003 C 1594 488.003 1821 371.997 2049 371.997 C 2277 371.997 2504 488.003 2732 488.003" data-idx="268" transform="matrix(1,0,0,1,-394.5380554199219,0)">
  
  
  
</path>
</g><g transform="matrix(-0.9510565162951535,0.3090169943749475,-0.3090169943749475,-0.9510565162951535,1451.2341264695697,538.1470950992498)" data-idx="272">
<path stroke-width="0.5" stroke-opacity="0" stroke="rgb(255, 106, 0)" fill="none" d="M 0 493.101 C 228 493.101 455 366.899 683 366.899 C 911 366.899 1138 493.101 1366 493.101 C 1594 493.101 1821 366.899 2049 366.899 C 2277 366.899 2504 493.101 2732 493.101" data-idx="273" transform="matrix(1,0,0,1,-399.50531005859375,0)">
  
  
  
</path>
</g><g transform="matrix(-0.9659258262890682,0.258819045102521,-0.258819045102521,-0.9659258262890682,1442.1138526748018,578.1421094899804)" data-idx="277">
<path stroke-width="0.5" stroke-opacity="0" stroke="rgb(255, 106, 0)" fill="none" d="M 0 498.116 C 228 498.116 455 361.884 683 361.884 C 911 361.884 1138 498.116 1366 498.116 C 1594 498.116 1821 361.884 2049 361.884 C 2277 361.884 2504 498.116 2732 498.116" data-idx="278" transform="matrix(1,0,0,1,-404.47259521484375,0)">
  
  
  
</path>
</g><g transform="matrix(-0.9781476007338057,0.20791169081775931,-0.20791169081775931,-0.9781476007338057,1430.9129005752088,617.6049938532518)" data-idx="282">
<path stroke-width="0.5" stroke-opacity="0" stroke="rgb(255, 106, 0)" fill="none" d="M 0 503.042 C 228 503.042 455 356.958 683 356.958 C 911 356.958 1138 503.042 1366 503.042 C 1594 503.042 1821 356.958 2049 356.958 C 2277 356.958 2504 503.042 2732 503.042" data-idx="283" transform="matrix(1,0,0,1,-409.4398498535156,0)">
  
  
  
</path>
</g><g transform="matrix(-0.9876883405951377,0.15643446504023098,-0.15643446504023098,-0.9876883405951377,1417.6619712019278,656.4275831660551)" data-idx="287">
<path stroke-width="0.5" stroke-opacity="0" stroke="rgb(255, 106, 0)" fill="none" d="M 0 507.876 C 228 507.876 455 352.124 683 352.124 C 911 352.124 1138 507.876 1366 507.876 C 1594 507.876 1821 352.124 2049 352.124 C 2277 352.124 2504 507.876 2732 507.876" data-idx="288" transform="matrix(1,0,0,1,-414.4071350097656,0)">
  
  
  
</path>
</g><g transform="matrix(-0.9945218953682733,0.10452846326765373,-0.10452846326765373,-0.9945218953682733,1402.3973844313095,694.5034674096094)" data-idx="292">
<path stroke-width="0.5" stroke-opacity="0" stroke="rgb(255, 106, 0)" fill="none" d="M 0 512.614 C 228 512.614 455 347.386 683 347.386 C 911 347.386 1138 512.614 1366 512.614 C 1594 512.614 1821 347.386 2049 347.386 C 2277 347.386 2504 512.614 2732 512.614" data-idx="293" transform="matrix(1,0,0,1,-419.3743896484375,0)">
  
  
  
</path>
</g><g transform="matrix(-0.9986295347545738,0.05233595624294381,-0.05233595624294381,-0.9986295347545738,1385.1609794346643,731.7282832318258)" data-idx="297">
<path stroke-width="0.5" stroke-opacity="0" stroke="rgb(255, 106, 0)" fill="none" d="M 0 517.253 C 228 517.253 455 342.748 683 342.748 C 911 342.748 1138 517.253 1366 517.253 C 1594 517.253 1821 342.748 2049 342.748 C 2277 342.748 2504 517.253 2732 517.253" data-idx="298" transform="matrix(1,0,0,1,-424.3416442871094,0)">
  
  
  
</path>
</g><g transform="matrix(-1,1.2246467991473532e-16,-1.2246467991473532e-16,-1,1366,768)" data-idx="302">
<path stroke-width="0.5" stroke-opacity="0" stroke="rgb(255, 106, 0)" fill="none" d="M 0 521.788 C 228 521.788 455 338.212 683 338.212 C 911 338.212 1138 521.788 1366 521.788 C 1594 521.788 1821 338.212 2049 338.212 C 2277 338.212 2504 521.788 2732 521.788" data-idx="303" transform="matrix(1,0,0,1,-429.3089294433594,0)">
  
  
  
</path>
</g><g transform="matrix(-0.9986295347545738,-0.052335956242943564,0.052335956242943564,-0.9986295347545738,1344.9669650400838,803.2191994596868)" data-idx="307">
<path stroke-width="0.5" stroke-opacity="0" stroke="rgb(255, 106, 0)" fill="none" d="M 0 526.219 C 228 526.219 455 333.781 683 333.781 C 911 333.781 1138 526.219 1366 526.219 C 1594 526.219 1821 333.781 2049 333.781 C 2277 333.781 2504 526.219 2732 526.219" data-idx="308" transform="matrix(1,0,0,1,-434.2762451171875,0)">
  
  
  
</path>
</g><g transform="matrix(-0.9945218953682733,-0.1045284632676535,0.1045284632676535,-0.9945218953682733,1322.1195246417517,837.2893482332242)" data-idx="312">
<path stroke-width="0.5" stroke-opacity="0" stroke="rgb(255, 106, 0)" fill="none" d="M 0 530.543 C 228 530.543 455 329.457 683 329.457 C 911 329.457 1138 530.543 1366 530.543 C 1594 530.543 1821 329.457 2049 329.457 C 2277 329.457 2504 530.543 2732 530.543" data-idx="313" transform="matrix(1,0,0,1,-439.2434997558594,0)">
  
  
  
</path>
</g><g transform="matrix(-0.9876883405951378,-0.15643446504023073,0.15643446504023073,-0.9876883405951378,1297.5203020510305,870.1170624110105)" data-idx="317">
<path stroke-width="0.5" stroke-opacity="0" stroke="rgb(255, 106, 0)" fill="none" d="M 0 534.758 C 228 534.758 455 325.242 683 325.242 C 911 325.242 1138 534.758 1366 534.758 C 1594 534.758 1821 325.242 2049 325.242 C 2277 325.242 2504 534.758 2732 534.758" data-idx="318" transform="matrix(1,0,0,1,-444.2107849121094,0)">
  
  
  
</path>
</g><g transform="matrix(-0.9781476007338056,-0.2079116908177595,0.2079116908177595,-0.9781476007338056,1271.2367220271694,901.6123635103111)" data-idx="322">
<path stroke-width="0.5" stroke-opacity="0" stroke="rgb(255, 106, 0)" fill="none" d="M 0 538.864 C 228 538.864 455 321.136 683 321.136 C 911 321.136 1138 538.864 1366 538.864 C 1594 538.864 1821 321.136 2049 321.136 C 2277 321.136 2504 538.864 2732 538.864" data-idx="323" transform="matrix(1,0,0,1,-449.17803955078125,0)">
  
  
  
</path>
</g><g transform="matrix(-0.9659258262890683,-0.2588190451025208,0.2588190451025208,-0.9659258262890683,1243.3408260360657,931.6889251000239)" data-idx="327">
<path stroke-width="0.5" stroke-opacity="0" stroke="rgb(255, 106, 0)" fill="none" d="M 0 542.858 C 228 542.858 455 317.142 683 317.142 C 911 317.142 1138 542.858 1366 542.858 C 1594 542.858 1821 317.142 2049 317.142 C 2277 317.142 2504 542.858 2732 542.858" data-idx="328" transform="matrix(1,0,0,1,-454.1452941894531,0)">
  
  
  
</path>
</g><g transform="matrix(-0.9510565162951536,-0.3090169943749473,0.3090169943749473,-0.9510565162951536,1213.9090747896103,960.264309415428)" data-idx="332">
<path stroke-width="0.5" stroke-opacity="0" stroke="rgb(255, 106, 0)" fill="none" d="M 0 546.741 C 228 546.741 455 313.259 683 313.259 C 911 313.259 1138 546.741 1366 546.741 C 1594 546.741 1821 313.259 2049 313.259 C 2277 313.259 2504 546.741 2732 546.741" data-idx="333" transform="matrix(1,0,0,1,-459.1125793457031,0)">
  
  
  
</path>
</g><g transform="matrix(-0.9335804264972017,-0.35836794954530043,0.35836794954530043,-0.9335804264972017,1183.0221386721933,987.2601933143657)" data-idx="337">
<path stroke-width="0.5" stroke-opacity="0.015384615384615385" stroke="rgb(255, 106, 0)" fill="none" d="M 0 550.511 C 228 550.511 455 309.489 683 309.489 C 911 309.489 1138 550.511 1366 550.511 C 1594 550.511 1821 309.489 2049 309.489 C 2277 309.489 2504 550.511 2732 550.511" data-idx="338" transform="matrix(1,0,0,1,-464.079833984375,0)">
  
  
  
</path>
</g><g transform="matrix(-0.9135454576426009,-0.4067366430758002,0.4067366430758002,-0.9135454576426009,1150.7646766287892,1012.6025829555304)" data-idx="342">
<path stroke-width="0.5" stroke-opacity="0.03076923076923077" stroke="rgb(255, 106, 0)" fill="none" d="M 0 554.17 C 228 554.17 455 305.83 683 305.83 C 911 305.83 1138 554.17 1366 554.17 C 1594 554.17 1821 305.83 2049 305.83 C 2277 305.83 2504 554.17 2732 554.17" data-idx="343" transform="matrix(1,0,0,1,-469.047119140625,0)">
  
  
  
</path>
</g><g transform="matrix(-0.8910065241883679,-0.45399049973954664,0.45399049973954664,-0.8910065241883679,1117.2251041206694,1036.2220166104437)" data-idx="347">
<path stroke-width="0.5" stroke-opacity="0.046153846153846156" stroke="rgb(255, 106, 0)" fill="none" d="M 0 557.716 C 228 557.716 455 302.284 683 302.284 C 911 302.284 1138 557.716 1366 557.716 C 1594 557.716 1821 302.284 2049 302.284 C 2277 302.284 2504 557.716 2732 557.716" data-idx="348" transform="matrix(1,0,0,1,-474.0144348144531,0)">
  
  
  
</path>
</g><g transform="matrix(-0.8660254037844386,-0.5000000000000001,0.5000000000000001,-0.8660254037844386,1082.4953507847715,1058.0537550532244)" data-idx="352">
<path stroke-width="0.5" stroke-opacity="0.06153846153846154" stroke="rgb(255, 106, 0)" fill="none" d="M 0 561.151 C 228 561.151 455 298.849 683 298.849 C 911 298.849 1138 561.151 1366 561.151 C 1594 561.151 1821 298.849 2049 298.849 C 2277 298.849 2504 561.151 2732 561.151" data-idx="353" transform="matrix(1,0,0,1,-478.981689453125,0)">
  
  
  
</path>
</g><g transform="matrix(-0.838670567945424,-0.5446390350150271,0.5446390350150271,-0.838670567945424,1046.670608460954,1078.0379590063062)" data-idx="357">
<path stroke-width="0.5" stroke-opacity="0.07692307692307693" stroke="rgb(255, 106, 0)" fill="none" d="M 0 564.475 C 228 564.475 455 295.525 683 295.525 C 911 295.525 1138 564.475 1366 564.475 C 1594 564.475 1821 295.525 2049 295.525 C 2277 295.525 2504 564.475 2732 564.475" data-idx="358" transform="matrix(1,0,0,1,-483.9489440917969,0)">
  
  
  
</path>
</g><g transform="matrix(-0.8090169943749475,-0.587785252292473,0.587785252292473,-0.8090169943749475,1009.8490702777794,1096.1198531557388)" data-idx="362">
<path stroke-width="0.5" stroke-opacity="0.09230769230769231" stroke="rgb(255, 106, 0)" fill="none" d="M 0 567.689 C 228 567.689 455 292.311 683 292.311 C 911 292.311 1138 567.689 1366 567.689 C 1594 567.689 1821 292.311 2049 292.311 C 2277 292.311 2504 567.689 2732 567.689" data-idx="363" transform="matrix(1,0,0,1,-488.9162292480469,0)">
  
  
  
</path>
</g><g transform="matrix(-0.7771459614569708,-0.6293203910498376,0.6293203910498376,-0.7771459614569708,972.1316615119733,1112.249876286516)" data-idx="367">
<path stroke-width="0.5" stroke-opacity="0.1076923076923077" stroke="rgb(255, 106, 0)" fill="none" d="M 0 570.793 C 228 570.793 455 289.207 683 289.207 C 911 289.207 1138 570.793 1366 570.793 C 1594 570.793 1821 289.207 2049 289.207 C 2277 289.207 2504 570.793 2732 570.793" data-idx="368" transform="matrix(1,0,0,1,-493.88348388671875,0)">
  
  
  
</path>
</g><g transform="matrix(-0.7431448254773942,-0.6691306063588582,0.6691306063588582,-0.7431448254773942,933.6217629592587,1126.3838171264197)" data-idx="372">
<path stroke-width="0.5" stroke-opacity="0.12307692307692308" stroke="rgb(255, 106, 0)" fill="none" d="M 0 573.788 C 228 573.788 455 286.212 683 286.212 C 911 286.212 1138 573.788 1366 573.788 C 1594 573.788 1821 286.212 2049 286.212 C 2277 286.212 2504 573.788 2732 573.788" data-idx="373" transform="matrix(1,0,0,1,-498.85076904296875,0)">
  
  
  
</path>
</g><g transform="matrix(-0.7071067811865477,-0.7071067811865475,0.7071067811865475,-0.7071067811865477,894.4249275747778,1138.4829355260463)" data-idx="377">
<path stroke-width="0.5" stroke-opacity="0.13846153846153847" stroke="rgb(255, 106, 0)" fill="none" d="M 0 576.677 C 228 576.677 455 283.324 683 283.324 C 911 283.324 1138 576.677 1366 576.677 C 1594 576.677 1821 283.324 2049 283.324 C 2277 283.324 2504 576.677 2732 576.677" data-idx="378" transform="matrix(1,0,0,1,-503.8180236816406,0)">
  
  
  
</path>
</g><g transform="matrix(-0.6691306063588581,-0.7431448254773944,0.7431448254773944,-0.6691306063588581,854.6485911597806,1148.5140686428617)" data-idx="382">
<path stroke-width="0.5" stroke-opacity="0.15384615384615385" stroke="rgb(255, 106, 0)" fill="none" d="M 0 579.459 C 228 579.459 455 280.541 683 280.541 C 911 280.541 1138 579.459 1366 579.459 C 1594 579.459 1821 280.541 2049 280.541 C 2277 280.541 2504 579.459 2732 579.459" data-idx="383" transform="matrix(1,0,0,1,-508.7853088378906,0)">
  
  
  
</path>
</g><g transform="matrix(-0.6293203910498378,-0.7771459614569706,0.7771459614569706,-0.6293203910498378,814.4017778875625,1156.4497218382487)" data-idx="387">
<path stroke-width="0.5" stroke-opacity="0.16923076923076924" stroke="rgb(255, 106, 0)" fill="none" d="M 0 582.136 C 228 582.136 455 277.864 683 277.864 C 911 277.864 1138 582.136 1366 582.136 C 1594 582.136 1821 277.864 2049 277.864 C 2277 277.864 2504 582.136 2732 582.136" data-idx="388" transform="matrix(1,0,0,1,-513.7526245117188,0)">
  
  
  
</path>
</g><g transform="matrix(-0.5877852522924732,-0.8090169943749473,0.8090169943749473,-0.5877852522924732,773.7948014757794,1162.2681440383988)" data-idx="392">
<path stroke-width="0.5" stroke-opacity="0.18461538461538463" stroke="rgb(255, 106, 0)" fill="none" d="M 0 584.71 C 228 584.71 455 275.29 683 275.29 C 911 275.29 1138 584.71 1366 584.71 C 1594 584.71 1821 275.29 2049 275.29 C 2277 275.29 2504 584.71 2732 584.71" data-idx="393" transform="matrix(1,0,0,1,-518.7198486328125,0)">
  
  
  
</path>
</g><g transform="matrix(-0.544639035015027,-0.8386705679454242,0.8386705679454242,-0.544639035015027,732.9389628242205,1165.9533873524952)" data-idx="397">
<path stroke-width="0.5" stroke-opacity="0.2" stroke="rgb(255, 106, 0)" fill="none" d="M 0 587.183 C 228 587.183 455 272.817 683 272.817 C 911 272.817 1138 587.183 1366 587.183 C 1594 587.183 1821 272.817 2049 272.817 C 2277 272.817 2504 587.183 2732 587.183" data-idx="398" transform="matrix(1,0,0,1,-523.6871337890625,0)">
  
  
  
</path>
</g><g transform="matrix(-0.5000000000000004,-0.8660254037844385,0.8660254037844385,-0.5000000000000004,691.9462449467759,1167.4953507847717)" data-idx="402">
<path stroke-width="0.5" stroke-opacity="0.2153846153846154" stroke="rgb(255, 106, 0)" fill="none" d="M 0 589.555 C 228 589.555 455 270.445 683 270.445 C 911 270.445 1138 589.555 1366 589.555 C 1594 589.555 1821 270.445 2049 270.445 C 2277 270.445 2504 589.555 2732 589.555" data-idx="403" transform="matrix(1,0,0,1,-528.6544189453125,0)">
  
  
  
</path>
</g><g transform="matrix(-0.4539904997395469,-0.8910065241883678,0.8910065241883678,-0.4539904997395469,650.9290060337773,1166.8898079206413)" data-idx="407">
<path stroke-width="0.5" stroke-opacity="0.23076923076923078" stroke="rgb(255, 106, 0)" fill="none" d="M 0 591.828 C 228 591.828 455 268.172 683 268.172 C 911 268.172 1138 591.828 1366 591.828 C 1594 591.828 1821 268.172 2049 268.172 C 2277 268.172 2504 591.828 2732 591.828" data-idx="408" transform="matrix(1,0,0,1,-533.6217041015625,0)">
  
  
  
</path>
</g><g transform="matrix(-0.4067366430758001,-0.913545457642601,0.913545457642601,-0.4067366430758001,609.9996714860127,1164.1384185110037)" data-idx="412">
<path stroke-width="0.5" stroke-opacity="0.24615384615384617" stroke="rgb(255, 106, 0)" fill="none" d="M 0 594.004 C 228 594.004 455 265.996 683 265.996 C 911 265.996 1138 594.004 1366 594.004 C 1594 594.004 1821 265.996 2049 265.996 C 2277 265.996 2504 594.004 2732 594.004" data-idx="413" transform="matrix(1,0,0,1,-538.5889282226562,0)">
  
  
  
</path>
</g><g transform="matrix(-0.3583679495453007,-0.9335804264972016,0.9335804264972016,-0.3583679495453007,569.2704257645149,1159.2487239229843)" data-idx="417">
<path stroke-width="0.5" stroke-opacity="0.26153846153846155" stroke="rgb(255, 106, 0)" fill="none" d="M 0 596.085 C 228 596.085 455 263.915 683 263.915 C 911 263.915 1138 596.085 1366 596.085 C 1594 596.085 1821 263.915 2049 263.915 C 2277 263.915 2504 596.085 2732 596.085" data-idx="418" transform="matrix(1,0,0,1,-543.5562133789062,0)">
  
  
  
</path>
</g><g transform="matrix(-0.30901699437494756,-0.9510565162951535,0.9510565162951535,-0.30901699437494756,528.8529049007502,1152.2341264695697)" data-idx="422">
<path stroke-width="0.5" stroke-opacity="0.27692307692307694" stroke="rgb(255, 106, 0)" fill="none" d="M 0 598.072 C 228 598.072 455 261.928 683 261.928 C 911 261.928 1138 598.072 1366 598.072 C 1594 598.072 1821 261.928 2049 261.928 C 2277 261.928 2504 598.072 2732 598.072" data-idx="423" transform="matrix(1,0,0,1,-548.5234985351562,0)">
  
  
  
</path>
</g><g transform="matrix(-0.25881904510252063,-0.9659258262890683,0.9659258262890683,-0.25881904510252063,488.85789051001933,1143.1138526748016)" data-idx="427">
<path stroke-width="0.5" stroke-opacity="0.2923076923076923" stroke="rgb(255, 106, 0)" fill="none" d="M 0 599.966 C 228 599.966 455 260.033 683 260.033 C 911 260.033 1138 599.966 1366 599.966 C 1594 599.966 1821 260.033 2049 260.033 C 2277 260.033 2504 599.966 2732 599.966" data-idx="428" transform="matrix(1,0,0,1,-553.49072265625,0)">
  
  
  
</path>
</g><g transform="matrix(-0.2079116908177598,-0.9781476007338056,0.9781476007338056,-0.2079116908177598,449.39500614674864,1131.912900575209)" data-idx="432">
<path stroke-width="0.5" stroke-opacity="0.3076923076923077" stroke="rgb(255, 106, 0)" fill="none" d="M 0 601.771 C 228 601.771 455 258.229 683 258.229 C 911 258.229 1138 601.771 1366 601.771 C 1594 601.771 1821 258.229 2049 258.229 C 2277 258.229 2504 601.771 2732 601.771" data-idx="433" transform="matrix(1,0,0,1,-558.4580078125,0)">
  
  
  
</path>
</g><g transform="matrix(-0.15643446504023104,-0.9876883405951377,0.9876883405951377,-0.15643446504023104,410.57241683394494,1118.6619712019278)" data-idx="437">
<path stroke-width="0.5" stroke-opacity="0.3230769230769231" stroke="rgb(255, 106, 0)" fill="none" d="M 0 603.486 C 228 603.486 455 256.514 683 256.514 C 911 256.514 1138 603.486 1366 603.486 C 1594 603.486 1821 256.514 2049 256.514 C 2277 256.514 2504 603.486 2732 603.486" data-idx="438" transform="matrix(1,0,0,1,-563.42529296875,0)">
  
  
  
</path>
</g><g transform="matrix(-0.10452846326765336,-0.9945218953682734,0.9945218953682734,-0.10452846326765336,372.4965325903903,1103.3973844313095)" data-idx="442">
<path stroke-width="0.5" stroke-opacity="0.3384615384615385" stroke="rgb(255, 106, 0)" fill="none" d="M 0 605.114 C 228 605.114 455 254.886 683 254.886 C 911 254.886 1138 605.114 1366 605.114 C 1594 605.114 1821 254.886 2049 254.886 C 2277 254.886 2504 605.114 2732 605.114" data-idx="443" transform="matrix(1,0,0,1,-568.392578125,0)">
  
  
  
</path>
</g><g transform="matrix(-0.052335956242944306,-0.9986295347545738,0.9986295347545738,-0.052335956242944306,335.2717167681746,1086.1609794346646)" data-idx="447">
<path stroke-width="0.5" stroke-opacity="0.35384615384615387" stroke="rgb(255, 106, 0)" fill="none" d="M 0 606.656 C 228 606.656 455 253.344 683 253.344 C 911 253.344 1138 606.656 1366 606.656 C 1594 606.656 1821 253.344 2049 253.344 C 2277 253.344 2504 606.656 2732 606.656" data-idx="448" transform="matrix(1,0,0,1,-573.35986328125,0)">
  
  
  
</path>
</g><g transform="matrix(-1.8369701987210297e-16,-1,1,-1.8369701987210297e-16,299.0000000000001,1067)" data-idx="452">
<path stroke-width="0.5" stroke-opacity="0.36923076923076925" stroke="rgb(255, 106, 0)" fill="none" d="M 0 608.115 C 228 608.115 455 251.886 683 251.886 C 911 251.886 1138 608.115 1366 608.115 C 1594 608.115 1821 251.886 2049 251.886 C 2277 251.886 2504 608.115 2732 608.115" data-idx="453" transform="matrix(1,0,0,1,-578.3271484375,0)">
  
  
  
</path>
</g><g transform="matrix(0.052335956242943946,-0.9986295347545738,0.9986295347545738,0.052335956242943946,263.7808005403129,1045.9669650400833)" data-idx="457">
<path stroke-width="0.5" stroke-opacity="0.38461538461538464" stroke="rgb(255, 106, 0)" fill="none" d="M 0 609.49 C 228 609.49 455 250.509 683 250.509 C 911 250.509 1138 609.49 1366 609.49 C 1594 609.49 1821 250.509 2049 250.509 C 2277 250.509 2504 609.49 2732 609.49" data-idx="458" transform="matrix(1,0,0,1,-583.2943725585938,0)">
  
  
  
</path>
</g><g transform="matrix(0.10452846326765299,-0.9945218953682734,0.9945218953682734,0.10452846326765299,229.71065176677604,1023.119524641752)" data-idx="462">
<path stroke-width="0.5" stroke-opacity="0.4" stroke="rgb(255, 106, 0)" fill="none" d="M 0 610.786 C 228 610.786 455 249.214 683 249.214 C 911 249.214 1138 610.786 1366 610.786 C 1594 610.786 1821 249.214 2049 249.214 C 2277 249.214 2504 610.786 2732 610.786" data-idx="463" transform="matrix(1,0,0,1,-588.2616577148438,0)">
  
  
  
</path>
</g><g transform="matrix(0.15643446504023067,-0.9876883405951378,0.9876883405951378,0.15643446504023067,196.88293758898953,998.5203020510305)" data-idx="467">
<path stroke-width="0.5" stroke-opacity="0.4153846153846154" stroke="rgb(255, 106, 0)" fill="none" d="M 0 612.002 C 228 612.002 455 247.998 683 247.998 C 911 247.998 1138 612.002 1366 612.002 C 1594 612.002 1821 247.998 2049 247.998 C 2277 247.998 2504 612.002 2732 612.002" data-idx="468" transform="matrix(1,0,0,1,-593.2289428710938,0)">
  
  
  
</path>
</g><g transform="matrix(0.20791169081775943,-0.9781476007338056,0.9781476007338056,0.20791169081775943,165.38763648968893,972.2367220271697)" data-idx="472">
<path stroke-width="0.5" stroke-opacity="0.4307692307692308" stroke="rgb(255, 106, 0)" fill="none" d="M 0 613.14 C 228 613.14 455 246.859 683 246.859 C 911 246.859 1138 613.14 1366 613.14 C 1594 613.14 1821 246.859 2049 246.859 C 2277 246.859 2504 613.14 2732 613.14" data-idx="473" transform="matrix(1,0,0,1,-598.1962280273438,0)">
  
  
  
</path>
</g><g transform="matrix(0.2588190451025203,-0.9659258262890684,0.9659258262890684,0.2588190451025203,135.31107489997635,944.3408260360659)" data-idx="477">
<path stroke-width="0.5" stroke-opacity="0.4461538461538462" stroke="rgb(255, 106, 0)" fill="none" d="M 0 614.203 C 228 614.203 455 245.797 683 245.797 C 911 245.797 1138 614.203 1366 614.203 C 1594 614.203 1821 245.797 2049 245.797 C 2277 245.797 2504 614.203 2732 614.203" data-idx="478" transform="matrix(1,0,0,1,-603.1634521484375,0)">
  
  
  
</path>
</g><g transform="matrix(0.30901699437494723,-0.9510565162951536,0.9510565162951536,0.30901699437494723,106.73569058457201,914.9090747896103)" data-idx="482">
<path stroke-width="0.5" stroke-opacity="0.46153846153846156" stroke="rgb(255, 106, 0)" fill="none" d="M 0 615.191 C 228 615.191 455 244.809 683 244.809 C 911 244.809 1138 615.191 1366 615.191 C 1594 615.191 1821 244.809 2049 244.809 C 2277 244.809 2504 615.191 2732 615.191" data-idx="483" transform="matrix(1,0,0,1,-608.1307373046875,0)">
  
  
  
</path>
</g><g transform="matrix(0.3583679495453004,-0.9335804264972017,0.9335804264972017,0.3583679495453004,79.73980668563433,884.0221386721935)" data-idx="487">
<path stroke-width="0.5" stroke-opacity="0.47692307692307695" stroke="rgb(255, 106, 0)" fill="none" d="M 0 616.106 C 228 616.106 455 243.894 683 243.894 C 911 243.894 1138 616.106 1366 616.106 C 1594 616.106 1821 243.894 2049 243.894 C 2277 243.894 2504 616.106 2732 616.106" data-idx="488" transform="matrix(1,0,0,1,-613.0980224609375,0)">
  
  
  
</path>
</g><g transform="matrix(0.40673664307579976,-0.9135454576426011,0.9135454576426011,0.40673664307579976,54.397417044469876,851.7646766287894)" data-idx="492">
<path stroke-width="0.5" stroke-opacity="0.49230769230769234" stroke="rgb(255, 106, 0)" fill="none" d="M 0 616.949 C 228 616.949 455 243.051 683 243.051 C 911 243.051 1138 616.949 1366 616.949 C 1594 616.949 1821 243.051 2049 243.051 C 2277 243.051 2504 616.949 2732 616.949" data-idx="493" transform="matrix(1,0,0,1,-618.0653076171875,0)">
  
  
  
</path>
</g><g transform="matrix(0.45399049973954664,-0.891006524188368,0.891006524188368,0.45399049973954664,30.77798338955631,818.2251041206694)" data-idx="497">
<path stroke-width="0.5" stroke-opacity="0.5076923076923077" stroke="rgb(255, 106, 0)" fill="none" d="M 0 617.722 C 228 617.722 455 242.278 683 242.278 C 911 242.278 1138 617.722 1366 617.722 C 1594 617.722 1821 242.278 2049 242.278 C 2277 242.278 2504 617.722 2732 617.722" data-idx="498" transform="matrix(1,0,0,1,-623.0325927734375,0)">
  
  
  
</path>
</g><g transform="matrix(0.5000000000000001,-0.8660254037844386,0.8660254037844386,0.5000000000000001,8.94624494677555,783.4953507847715)" data-idx="502">
<path stroke-width="0.5" stroke-opacity="0.5230769230769231" stroke="rgb(255, 106, 0)" fill="none" d="M 0 618.426 C 228 618.426 455 241.574 683 241.574 C 911 241.574 1138 618.426 1366 618.426 C 1594 618.426 1821 241.574 2049 241.574 C 2277 241.574 2504 618.426 2732 618.426" data-idx="503" transform="matrix(1,0,0,1,-627.9998779296875,0)">
  
  
  
</path>
</g><g transform="matrix(0.5446390350150266,-0.8386705679454243,0.8386705679454243,0.5446390350150266,-11.037959006306096,747.6706084609546)" data-idx="507">
<path stroke-width="0.5" stroke-opacity="0.5384615384615384" stroke="rgb(255, 106, 0)" fill="none" d="M 0 619.062 C 228 619.062 455 240.938 683 240.938 C 911 240.938 1138 619.062 1366 619.062 C 1594 619.062 1821 240.938 2049 240.938 C 2277 240.938 2504 619.062 2732 619.062" data-idx="508" transform="matrix(1,0,0,1,-632.9671020507812,0)">
  
  
  
</path>
</g><g transform="matrix(0.5877852522924729,-0.8090169943749476,0.8090169943749476,0.5877852522924729,-29.119853155738838,710.8490702777797)" data-idx="512">
<path stroke-width="0.5" stroke-opacity="0.5538461538461539" stroke="rgb(255, 106, 0)" fill="none" d="M 0 619.633 C 228 619.633 455 240.367 683 240.367 C 911 240.367 1138 619.633 1366 619.633 C 1594 619.633 1821 240.367 2049 240.367 C 2277 240.367 2504 619.633 2732 619.633" data-idx="513" transform="matrix(1,0,0,1,-637.9343872070312,0)">
  
  
  
</path>
</g><g transform="matrix(0.6293203910498375,-0.7771459614569708,0.7771459614569708,0.6293203910498375,-45.2498762865157,673.1316615119734)" data-idx="517">
<path stroke-width="0.5" stroke-opacity="0.5692307692307692" stroke="rgb(255, 106, 0)" fill="none" d="M 0 620.139 C 228 620.139 455 239.862 683 239.862 C 911 239.862 1138 620.139 1366 620.139 C 1594 620.139 1821 239.862 2049 239.862 C 2277 239.862 2504 620.139 2732 620.139" data-idx="518" transform="matrix(1,0,0,1,-642.9016723632812,0)">
  
  
  
</path>
</g><g transform="matrix(0.6691306063588578,-0.7431448254773946,0.7431448254773946,0.6691306063588578,-59.383817126419444,634.6217629592591)" data-idx="522">
<path stroke-width="0.5" stroke-opacity="0.5846153846153846" stroke="rgb(255, 106, 0)" fill="none" d="M 0 620.581 C 228 620.581 455 239.419 683 239.419 C 911 239.419 1138 620.581 1366 620.581 C 1594 620.581 1821 239.419 2049 239.419 C 2277 239.419 2504 620.581 2732 620.581" data-idx="523" transform="matrix(1,0,0,1,-647.868896484375,0)">
  
  
  
</path>
</g><g transform="matrix(0.7071067811865474,-0.7071067811865477,0.7071067811865477,0.7071067811865474,-71.48293552604605,595.4249275747779)" data-idx="527">
<path stroke-width="0.5" stroke-opacity="0.6" stroke="rgb(255, 106, 0)" fill="none" d="M 0 620.961 C 228 620.961 455 239.039 683 239.039 C 911 239.039 1138 620.961 1366 620.961 C 1594 620.961 1821 239.039 2049 239.039 C 2277 239.039 2504 620.961 2732 620.961" data-idx="528" transform="matrix(1,0,0,1,-652.8362426757812,0)">
  
  
  
</path>
</g><g transform="matrix(0.7431448254773942,-0.6691306063588581,0.6691306063588581,0.7431448254773942,-81.51406864286173,555.6485911597806)" data-idx="532">
<path stroke-width="0.5" stroke-opacity="0.6153846153846154" stroke="rgb(255, 106, 0)" fill="none" d="M 0 621.28 C 228 621.28 455 238.72 683 238.72 C 911 238.72 1138 621.28 1366 621.28 C 1594 621.28 1821 238.72 2049 238.72 C 2277 238.72 2504 621.28 2732 621.28" data-idx="533" transform="matrix(1,0,0,1,-657.8035278320312,0)">
  
  
  
</path>
</g><g transform="matrix(0.7771459614569706,-0.6293203910498378,0.6293203910498378,0.7771459614569706,-89.4497218382487,515.4017778875625)" data-idx="537">
<path stroke-width="0.5" stroke-opacity="0.6307692307692307" stroke="rgb(255, 106, 0)" fill="none" d="M 0 621.539 C 228 621.539 455 238.461 683 238.461 C 911 238.461 1138 621.539 1366 621.539 C 1594 621.539 1821 238.461 2049 238.461 C 2277 238.461 2504 621.539 2732 621.539" data-idx="538" transform="matrix(1,0,0,1,-662.770751953125,0)">
  
  
  
</path>
</g><g transform="matrix(0.8090169943749473,-0.5877852522924734,0.5877852522924734,0.8090169943749473,-95.26814403839876,474.79480147577954)" data-idx="542">
<path stroke-width="0.5" stroke-opacity="0.6461538461538462" stroke="rgb(255, 106, 0)" fill="none" d="M 0 621.739 C 228 621.739 455 238.261 683 238.261 C 911 238.261 1138 621.739 1366 621.739 C 1594 621.739 1821 238.261 2049 238.261 C 2277 238.261 2504 621.739 2732 621.739" data-idx="543" transform="matrix(1,0,0,1,-667.738037109375,0)">
  
  
  
</path>
</g><g transform="matrix(0.838670567945424,-0.544639035015027,0.544639035015027,0.838670567945424,-98.95338735249493,433.9389628242206)" data-idx="547">
<path stroke-width="0.5" stroke-opacity="0.6615384615384615" stroke="rgb(255, 106, 0)" fill="none" d="M 0 621.882 C 228 621.882 455 238.118 683 238.118 C 911 238.118 1138 621.882 1366 621.882 C 1594 621.882 1821 238.118 2049 238.118 C 2277 238.118 2504 621.882 2732 621.882" data-idx="548" transform="matrix(1,0,0,1,-672.705322265625,0)">
  
  
  
</path>
</g><g data-idx="552"></g></g></svg>