<svg xmlns="http://www.w3.org/2000/svg" version="1.1" xmlns:xlink="http://www.w3.org/1999/xlink" xmlns:svgjs="http://svgjs.dev/svgjs" width="1440" height="1000" preserveAspectRatio="none" viewBox="0 0 1440 1000"><g mask="url(&quot;#SvgjsMask1163&quot;)" fill="none"><g mask="url(&quot;#SvgjsMask1164&quot;)"><path d="M1212.5 512.5L1187.5 537.5L1162.5 537.5L1137.5 537.5M1312.5 537.5L1287.5 512.5L1262.5 512.5M1387.5 512.5L1362.5 512.5L1337.5 512.5L1312.5 512.5M1137.5 512.5L1112.5 512.5M1462.5 512.5L1437.5 512.5L1412.5 512.5L1387.5 512.5L1362.5 537.5L1337.5 537.5L1312.5 537.5L1287.5 537.5L1262.5 537.5L1237.5 537.5L1212.5 512.5L1187.5 512.5L1162.5 512.5L1137.5 512.5L1112.5 537.5L1087.5 537.5" stroke="rgba(254, 112, 24, 0.3)" stroke-width="4.17"></path><path d="M1081.25 537.5 a6.25 6.25 0 1 0 12.5 0 a6.25 6.25 0 1 0 -12.5 0zM1131.25 537.5 a6.25 6.25 0 1 0 12.5 0 a6.25 6.25 0 1 0 -12.5 0zM1256.25 512.5 a6.25 6.25 0 1 0 12.5 0 a6.25 6.25 0 1 0 -12.5 0zM1306.25 512.5 a6.25 6.25 0 1 0 12.5 0 a6.25 6.25 0 1 0 -12.5 0zM1106.25 512.5 a6.25 6.25 0 1 0 12.5 0 a6.25 6.25 0 1 0 -12.5 0z" fill="rgba(254, 112, 24, 0.3)"></path><path d="M1362.5 487.5L1337.5 462.5M987.5 512.5L962.5 537.5M1037.5 512.5L1012.5 537.5L987.5 537.5M962.5 512.5L937.5 512.5L912.5 512.5M1062.5 512.5L1037.5 487.5L1012.5 462.5L987.5 462.5M1287.5 487.5L1262.5 462.5L1237.5 437.5M1187.5 487.5L1162.5 462.5L1137.5 462.5L1112.5 462.5L1087.5 462.5L1062.5 462.5L1037.5 462.5L1012.5 437.5M1462.5 487.5L1437.5 487.5L1412.5 487.5L1387.5 487.5L1362.5 487.5L1337.5 487.5L1312.5 487.5L1287.5 487.5L1262.5 487.5L1237.5 487.5L1212.5 487.5L1187.5 487.5L1162.5 487.5L1137.5 487.5L1112.5 487.5L1087.5 512.5L1062.5 512.5L1037.5 512.5L1012.5 512.5L987.5 512.5L962.5 512.5L937.5 537.5L912.5 537.5L887.5 537.5L862.5 537.5L837.5 537.5L812.5 537.5L787.5 537.5L762.5 537.5" stroke="rgba(254, 112, 24, 0.29)" stroke-width="4.17"></path><path d="M756.25 537.5 a6.25 6.25 0 1 0 12.5 0 a6.25 6.25 0 1 0 -12.5 0zM1331.25 462.5 a6.25 6.25 0 1 0 12.5 0 a6.25 6.25 0 1 0 -12.5 0zM956.25 537.5 a6.25 6.25 0 1 0 12.5 0 a6.25 6.25 0 1 0 -12.5 0zM981.25 537.5 a6.25 6.25 0 1 0 12.5 0 a6.25 6.25 0 1 0 -12.5 0zM906.25 512.5 a6.25 6.25 0 1 0 12.5 0 a6.25 6.25 0 1 0 -12.5 0zM981.25 462.5 a6.25 6.25 0 1 0 12.5 0 a6.25 6.25 0 1 0 -12.5 0zM1231.25 437.5 a6.25 6.25 0 1 0 12.5 0 a6.25 6.25 0 1 0 -12.5 0zM1006.25 437.5 a6.25 6.25 0 1 0 12.5 0 a6.25 6.25 0 1 0 -12.5 0z" fill="rgba(254, 112, 24, 0.29)"></path><path d="M437.5 562.5L412.5 537.5L387.5 512.5L362.5 512.5L337.5 512.5L312.5 512.5M937.5 562.5L912.5 587.5L887.5 587.5L862.5 587.5L837.5 587.5M487.5 562.5L462.5 537.5L437.5 537.5L412.5 512.5L387.5 487.5L362.5 487.5L337.5 487.5M337.5 537.5L312.5 562.5L287.5 562.5L262.5 562.5M962.5 562.5L937.5 587.5L912.5 612.5L887.5 612.5L862.5 637.5L837.5 637.5L812.5 612.5L787.5 612.5L762.5 587.5L737.5 587.5L712.5 587.5L687.5 587.5L662.5 587.5L637.5 587.5L612.5 587.5M1087.5 562.5L1062.5 587.5L1037.5 587.5L1012.5 587.5M687.5 562.5L662.5 537.5L637.5 512.5L612.5 512.5L587.5 512.5L562.5 512.5L537.5 512.5L512.5 512.5L487.5 512.5L462.5 512.5L437.5 512.5L412.5 487.5L387.5 462.5L362.5 462.5L337.5 462.5L312.5 462.5M1162.5 562.5L1137.5 587.5L1112.5 587.5M637.5 562.5L612.5 537.5M362.5 537.5L337.5 562.5L312.5 587.5L287.5 587.5L262.5 587.5M387.5 537.5L362.5 562.5L337.5 587.5L312.5 612.5M1462.5 537.5L1437.5 537.5L1412.5 537.5L1387.5 537.5L1362.5 562.5L1337.5 562.5L1312.5 562.5L1287.5 562.5L1262.5 562.5L1237.5 562.5L1212.5 562.5L1187.5 562.5L1162.5 562.5L1137.5 562.5L1112.5 562.5L1087.5 562.5L1062.5 562.5L1037.5 562.5L1012.5 562.5L987.5 562.5L962.5 562.5L937.5 562.5L912.5 562.5L887.5 562.5L862.5 562.5L837.5 562.5L812.5 562.5L787.5 562.5L762.5 562.5L737.5 562.5L712.5 562.5L687.5 562.5L662.5 562.5L637.5 562.5L612.5 562.5L587.5 562.5L562.5 562.5L537.5 562.5L512.5 562.5L487.5 562.5L462.5 562.5L437.5 562.5L412.5 562.5L387.5 537.5L362.5 537.5L337.5 537.5L312.5 537.5" stroke="rgba(254, 112, 24, 0.29)" stroke-width="4.17"></path><path d="M306.25 537.5 a6.25 6.25 0 1 0 12.5 0 a6.25 6.25 0 1 0 -12.5 0zM306.25 512.5 a6.25 6.25 0 1 0 12.5 0 a6.25 6.25 0 1 0 -12.5 0zM831.25 587.5 a6.25 6.25 0 1 0 12.5 0 a6.25 6.25 0 1 0 -12.5 0zM331.25 487.5 a6.25 6.25 0 1 0 12.5 0 a6.25 6.25 0 1 0 -12.5 0zM256.25 562.5 a6.25 6.25 0 1 0 12.5 0 a6.25 6.25 0 1 0 -12.5 0zM606.25 587.5 a6.25 6.25 0 1 0 12.5 0 a6.25 6.25 0 1 0 -12.5 0zM1006.25 587.5 a6.25 6.25 0 1 0 12.5 0 a6.25 6.25 0 1 0 -12.5 0zM306.25 462.5 a6.25 6.25 0 1 0 12.5 0 a6.25 6.25 0 1 0 -12.5 0zM1106.25 587.5 a6.25 6.25 0 1 0 12.5 0 a6.25 6.25 0 1 0 -12.5 0zM606.25 537.5 a6.25 6.25 0 1 0 12.5 0 a6.25 6.25 0 1 0 -12.5 0zM256.25 587.5 a6.25 6.25 0 1 0 12.5 0 a6.25 6.25 0 1 0 -12.5 0zM306.25 612.5 a6.25 6.25 0 1 0 12.5 0 a6.25 6.25 0 1 0 -12.5 0z" fill="rgba(254, 112, 24, 0.29)"></path><path d="M1412.5 462.5L1387.5 462.5L1362.5 462.5M1337.5 412.5L1312.5 412.5M1237.5 387.5L1212.5 412.5M1462.5 462.5L1437.5 462.5L1412.5 462.5L1387.5 437.5L1362.5 437.5L1337.5 412.5L1312.5 387.5L1287.5 387.5L1262.5 387.5L1237.5 387.5L1212.5 387.5L1187.5 387.5" stroke="rgba(254, 112, 24, 0.29)" stroke-width="4.17"></path><path d="M1181.25 387.5 a6.25 6.25 0 1 0 12.5 0 a6.25 6.25 0 1 0 -12.5 0zM1356.25 462.5 a6.25 6.25 0 1 0 12.5 0 a6.25 6.25 0 1 0 -12.5 0zM1306.25 412.5 a6.25 6.25 0 1 0 12.5 0 a6.25 6.25 0 1 0 -12.5 0zM1206.25 412.5 a6.25 6.25 0 1 0 12.5 0 a6.25 6.25 0 1 0 -12.5 0z" fill="rgba(254, 112, 24, 0.29)"></path><path d="M1462.5 562.5L1437.5 562.5L1412.5 562.5" stroke="rgba(254, 112, 24, 0.29)" stroke-width="4.17"></path><path d="M1406.25 562.5 a6.25 6.25 0 1 0 12.5 0 a6.25 6.25 0 1 0 -12.5 0z" fill="rgba(254, 112, 24, 0.29)"></path><path d="M1137.5 337.5L1112.5 362.5L1087.5 387.5L1062.5 387.5L1037.5 387.5M1012.5 362.5L987.5 362.5L962.5 362.5L937.5 362.5L912.5 362.5L887.5 362.5L862.5 362.5L837.5 362.5M1212.5 337.5L1187.5 362.5L1162.5 362.5L1137.5 362.5M987.5 337.5L962.5 312.5L937.5 312.5L912.5 312.5M787.5 337.5L762.5 312.5L737.5 312.5L712.5 312.5L687.5 312.5L662.5 312.5L637.5 312.5M1287.5 337.5L1262.5 362.5L1237.5 362.5L1212.5 362.5M1087.5 362.5L1062.5 337.5L1037.5 337.5M1462.5 437.5L1437.5 437.5L1412.5 437.5L1387.5 412.5L1362.5 412.5L1337.5 387.5L1312.5 362.5L1287.5 337.5L1262.5 337.5L1237.5 337.5L1212.5 337.5L1187.5 337.5L1162.5 337.5L1137.5 337.5L1112.5 337.5L1087.5 362.5L1062.5 362.5L1037.5 362.5L1012.5 362.5L987.5 337.5L962.5 337.5L937.5 337.5L912.5 337.5L887.5 337.5L862.5 337.5L837.5 337.5L812.5 337.5L787.5 337.5L762.5 337.5L737.5 337.5L712.5 337.5" stroke="rgba(254, 112, 24, 0.29)" stroke-width="4.17"></path><path d="M706.25 337.5 a6.25 6.25 0 1 0 12.5 0 a6.25 6.25 0 1 0 -12.5 0zM1031.25 387.5 a6.25 6.25 0 1 0 12.5 0 a6.25 6.25 0 1 0 -12.5 0zM831.25 362.5 a6.25 6.25 0 1 0 12.5 0 a6.25 6.25 0 1 0 -12.5 0zM1131.25 362.5 a6.25 6.25 0 1 0 12.5 0 a6.25 6.25 0 1 0 -12.5 0zM906.25 312.5 a6.25 6.25 0 1 0 12.5 0 a6.25 6.25 0 1 0 -12.5 0zM631.25 312.5 a6.25 6.25 0 1 0 12.5 0 a6.25 6.25 0 1 0 -12.5 0zM1206.25 362.5 a6.25 6.25 0 1 0 12.5 0 a6.25 6.25 0 1 0 -12.5 0zM1031.25 337.5 a6.25 6.25 0 1 0 12.5 0 a6.25 6.25 0 1 0 -12.5 0z" fill="rgba(254, 112, 24, 0.29)"></path><path d="M1012.5 637.5L987.5 612.5M962.5 637.5L937.5 612.5M1037.5 612.5L1012.5 612.5M1287.5 587.5L1262.5 612.5M1062.5 612.5L1037.5 637.5M1462.5 587.5L1437.5 587.5L1412.5 587.5L1387.5 587.5L1362.5 587.5L1337.5 587.5L1312.5 587.5L1287.5 587.5L1262.5 587.5L1237.5 587.5L1212.5 587.5L1187.5 587.5L1162.5 612.5L1137.5 612.5L1112.5 612.5L1087.5 612.5L1062.5 612.5L1037.5 612.5L1012.5 637.5L987.5 637.5L962.5 637.5L937.5 637.5L912.5 637.5" stroke="rgba(254, 112, 24, 0.29)" stroke-width="4.17"></path><path d="M906.25 637.5 a6.25 6.25 0 1 0 12.5 0 a6.25 6.25 0 1 0 -12.5 0zM981.25 612.5 a6.25 6.25 0 1 0 12.5 0 a6.25 6.25 0 1 0 -12.5 0zM931.25 612.5 a6.25 6.25 0 1 0 12.5 0 a6.25 6.25 0 1 0 -12.5 0zM1006.25 612.5 a6.25 6.25 0 1 0 12.5 0 a6.25 6.25 0 1 0 -12.5 0zM1256.25 612.5 a6.25 6.25 0 1 0 12.5 0 a6.25 6.25 0 1 0 -12.5 0zM1031.25 637.5 a6.25 6.25 0 1 0 12.5 0 a6.25 6.25 0 1 0 -12.5 0z" fill="rgba(254, 112, 24, 0.29)"></path><path d="M1137.5 312.5L1112.5 287.5L1087.5 287.5L1062.5 287.5L1037.5 287.5L1012.5 287.5L987.5 287.5M1037.5 312.5L1012.5 312.5L987.5 312.5M1212.5 312.5L1187.5 287.5L1162.5 287.5L1137.5 287.5M1462.5 412.5L1437.5 412.5L1412.5 412.5L1387.5 387.5L1362.5 387.5L1337.5 362.5L1312.5 337.5L1287.5 312.5L1262.5 312.5L1237.5 312.5L1212.5 312.5L1187.5 312.5L1162.5 312.5L1137.5 312.5L1112.5 312.5L1087.5 312.5L1062.5 312.5L1037.5 312.5L1012.5 337.5" stroke="rgba(254, 112, 24, 0.29)" stroke-width="4.17"></path><path d="M1006.25 337.5 a6.25 6.25 0 1 0 12.5 0 a6.25 6.25 0 1 0 -12.5 0zM981.25 287.5 a6.25 6.25 0 1 0 12.5 0 a6.25 6.25 0 1 0 -12.5 0zM981.25 312.5 a6.25 6.25 0 1 0 12.5 0 a6.25 6.25 0 1 0 -12.5 0zM1131.25 287.5 a6.25 6.25 0 1 0 12.5 0 a6.25 6.25 0 1 0 -12.5 0z" fill="rgba(254, 112, 24, 0.29)"></path><path d="M1162.5 637.5L1137.5 662.5L1112.5 662.5L1087.5 662.5L1062.5 662.5L1037.5 662.5M1262.5 637.5L1237.5 662.5L1212.5 662.5L1187.5 662.5M1237.5 637.5L1212.5 612.5L1187.5 612.5M1312.5 612.5L1287.5 612.5M1462.5 612.5L1437.5 612.5L1412.5 612.5L1387.5 612.5L1362.5 612.5L1337.5 612.5L1312.5 612.5L1287.5 637.5L1262.5 637.5L1237.5 637.5L1212.5 637.5L1187.5 637.5L1162.5 637.5L1137.5 637.5L1112.5 637.5L1087.5 637.5" stroke="rgba(254, 112, 24, 0.3)" stroke-width="4.17"></path><path d="M1081.25 637.5 a6.25 6.25 0 1 0 12.5 0 a6.25 6.25 0 1 0 -12.5 0zM1031.25 662.5 a6.25 6.25 0 1 0 12.5 0 a6.25 6.25 0 1 0 -12.5 0zM1181.25 662.5 a6.25 6.25 0 1 0 12.5 0 a6.25 6.25 0 1 0 -12.5 0zM1181.25 612.5 a6.25 6.25 0 1 0 12.5 0 a6.25 6.25 0 1 0 -12.5 0zM1281.25 612.5 a6.25 6.25 0 1 0 12.5 0 a6.25 6.25 0 1 0 -12.5 0z" fill="rgba(254, 112, 24, 0.3)"></path><path d="M512.5 262.5L487.5 287.5L462.5 287.5L437.5 312.5L412.5 312.5L387.5 312.5L362.5 312.5L337.5 312.5L312.5 312.5M637.5 237.5L612.5 262.5L587.5 262.5L562.5 287.5L537.5 287.5L512.5 287.5L487.5 312.5M787.5 237.5L762.5 212.5M362.5 287.5L337.5 262.5L312.5 262.5L287.5 262.5L262.5 262.5M812.5 237.5L787.5 212.5M737.5 212.5L712.5 237.5L687.5 237.5L662.5 237.5M962.5 262.5L937.5 262.5L912.5 262.5L887.5 262.5M762.5 237.5L737.5 237.5L712.5 262.5L687.5 262.5L662.5 262.5L637.5 262.5L612.5 287.5L587.5 287.5L562.5 312.5L537.5 312.5L512.5 312.5L487.5 337.5L462.5 337.5M837.5 237.5L812.5 262.5L787.5 262.5M1037.5 262.5L1012.5 237.5L987.5 237.5L962.5 237.5M662.5 212.5L637.5 212.5L612.5 212.5L587.5 212.5L562.5 212.5L537.5 212.5M537.5 262.5L512.5 237.5L487.5 237.5L462.5 237.5M1462.5 387.5L1437.5 387.5L1412.5 387.5L1387.5 362.5L1362.5 362.5L1337.5 337.5L1312.5 312.5L1287.5 287.5L1262.5 287.5L1237.5 287.5L1212.5 262.5L1187.5 262.5L1162.5 262.5L1137.5 262.5L1112.5 262.5L1087.5 262.5L1062.5 262.5L1037.5 262.5L1012.5 262.5L987.5 262.5L962.5 262.5L937.5 237.5L912.5 237.5L887.5 237.5L862.5 237.5L837.5 237.5L812.5 237.5L787.5 237.5L762.5 237.5L737.5 212.5L712.5 212.5L687.5 212.5L662.5 212.5L637.5 237.5L612.5 237.5L587.5 237.5L562.5 262.5L537.5 262.5L512.5 262.5L487.5 262.5L462.5 262.5L437.5 287.5L412.5 287.5L387.5 287.5L362.5 287.5L337.5 287.5L312.5 287.5L287.5 287.5" stroke="rgba(254, 112, 24, 0.29)" stroke-width="4.17"></path><path d="M281.25 287.5 a6.25 6.25 0 1 0 12.5 0 a6.25 6.25 0 1 0 -12.5 0zM306.25 312.5 a6.25 6.25 0 1 0 12.5 0 a6.25 6.25 0 1 0 -12.5 0zM481.25 312.5 a6.25 6.25 0 1 0 12.5 0 a6.25 6.25 0 1 0 -12.5 0zM756.25 212.5 a6.25 6.25 0 1 0 12.5 0 a6.25 6.25 0 1 0 -12.5 0zM256.25 262.5 a6.25 6.25 0 1 0 12.5 0 a6.25 6.25 0 1 0 -12.5 0zM781.25 212.5 a6.25 6.25 0 1 0 12.5 0 a6.25 6.25 0 1 0 -12.5 0zM656.25 237.5 a6.25 6.25 0 1 0 12.5 0 a6.25 6.25 0 1 0 -12.5 0zM881.25 262.5 a6.25 6.25 0 1 0 12.5 0 a6.25 6.25 0 1 0 -12.5 0zM456.25 337.5 a6.25 6.25 0 1 0 12.5 0 a6.25 6.25 0 1 0 -12.5 0zM781.25 262.5 a6.25 6.25 0 1 0 12.5 0 a6.25 6.25 0 1 0 -12.5 0zM956.25 237.5 a6.25 6.25 0 1 0 12.5 0 a6.25 6.25 0 1 0 -12.5 0zM531.25 212.5 a6.25 6.25 0 1 0 12.5 0 a6.25 6.25 0 1 0 -12.5 0zM456.25 237.5 a6.25 6.25 0 1 0 12.5 0 a6.25 6.25 0 1 0 -12.5 0z" fill="rgba(254, 112, 24, 0.29)"></path><path d="M1462.5 637.5L1437.5 637.5L1412.5 637.5L1387.5 637.5L1362.5 637.5L1337.5 637.5L1312.5 637.5" stroke="rgba(254, 112, 24, 0.3)" stroke-width="4.17"></path><path d="M1306.25 637.5 a6.25 6.25 0 1 0 12.5 0 a6.25 6.25 0 1 0 -12.5 0z" fill="rgba(254, 112, 24, 0.3)"></path><path d="M1137.5 237.5L1112.5 237.5L1087.5 237.5L1062.5 237.5L1037.5 237.5M762.5 187.5L737.5 162.5L712.5 162.5L687.5 162.5L662.5 162.5M837.5 212.5L812.5 212.5M787.5 187.5L762.5 162.5M812.5 187.5L787.5 162.5M1462.5 362.5L1437.5 362.5L1412.5 362.5L1387.5 337.5L1362.5 337.5L1337.5 312.5L1312.5 287.5L1287.5 262.5L1262.5 262.5L1237.5 262.5L1212.5 237.5L1187.5 237.5L1162.5 237.5L1137.5 237.5L1112.5 212.5L1087.5 212.5L1062.5 212.5L1037.5 212.5L1012.5 212.5L987.5 212.5L962.5 212.5L937.5 212.5L912.5 212.5L887.5 212.5L862.5 212.5L837.5 212.5L812.5 187.5L787.5 187.5L762.5 187.5L737.5 187.5" stroke="rgba(254, 112, 24, 0.29)" stroke-width="4.17"></path><path d="M731.25 187.5 a6.25 6.25 0 1 0 12.5 0 a6.25 6.25 0 1 0 -12.5 0zM1031.25 237.5 a6.25 6.25 0 1 0 12.5 0 a6.25 6.25 0 1 0 -12.5 0zM656.25 162.5 a6.25 6.25 0 1 0 12.5 0 a6.25 6.25 0 1 0 -12.5 0zM806.25 212.5 a6.25 6.25 0 1 0 12.5 0 a6.25 6.25 0 1 0 -12.5 0zM756.25 162.5 a6.25 6.25 0 1 0 12.5 0 a6.25 6.25 0 1 0 -12.5 0zM781.25 162.5 a6.25 6.25 0 1 0 12.5 0 a6.25 6.25 0 1 0 -12.5 0z" fill="rgba(254, 112, 24, 0.29)"></path><path d="M1462.5 662.5L1437.5 662.5L1412.5 662.5L1387.5 662.5L1362.5 662.5L1337.5 662.5L1312.5 662.5" stroke="rgba(254, 112, 24, 0.29)" stroke-width="4.17"></path><path d="M1306.25 662.5 a6.25 6.25 0 1 0 12.5 0 a6.25 6.25 0 1 0 -12.5 0z" fill="rgba(254, 112, 24, 0.29)"></path><path d="M887.5 187.5L862.5 162.5L837.5 162.5L812.5 162.5M1087.5 187.5L1062.5 162.5L1037.5 162.5L1012.5 162.5L987.5 162.5L962.5 162.5L937.5 162.5L912.5 162.5L887.5 162.5M1462.5 337.5L1437.5 337.5L1412.5 337.5L1387.5 312.5L1362.5 312.5L1337.5 287.5L1312.5 262.5L1287.5 237.5L1262.5 237.5L1237.5 237.5L1212.5 212.5L1187.5 212.5L1162.5 212.5L1137.5 212.5L1112.5 187.5L1087.5 187.5L1062.5 187.5L1037.5 187.5L1012.5 187.5L987.5 187.5L962.5 187.5L937.5 187.5L912.5 187.5L887.5 187.5L862.5 187.5" stroke="rgba(254, 112, 24, 0.3)" stroke-width="4.17"></path><path d="M856.25 187.5 a6.25 6.25 0 1 0 12.5 0 a6.25 6.25 0 1 0 -12.5 0zM806.25 162.5 a6.25 6.25 0 1 0 12.5 0 a6.25 6.25 0 1 0 -12.5 0zM881.25 162.5 a6.25 6.25 0 1 0 12.5 0 a6.25 6.25 0 1 0 -12.5 0z" fill="rgba(254, 112, 24, 0.3)"></path><path d="M887.5 662.5L862.5 687.5M1037.5 687.5L1012.5 687.5L987.5 687.5L962.5 712.5L937.5 712.5L912.5 712.5L887.5 712.5L862.5 712.5L837.5 712.5L812.5 712.5M1412.5 687.5L1387.5 712.5L1362.5 712.5L1337.5 712.5L1312.5 712.5M1162.5 687.5L1137.5 712.5L1112.5 712.5L1087.5 712.5L1062.5 712.5M1187.5 687.5L1162.5 712.5M787.5 637.5L762.5 637.5L737.5 637.5L712.5 637.5L687.5 637.5L662.5 612.5L637.5 612.5L612.5 612.5M937.5 662.5L912.5 687.5L887.5 687.5M1462.5 687.5L1437.5 687.5L1412.5 687.5L1387.5 687.5L1362.5 687.5L1337.5 687.5L1312.5 687.5L1287.5 687.5L1262.5 687.5L1237.5 687.5L1212.5 687.5L1187.5 687.5L1162.5 687.5L1137.5 687.5L1112.5 687.5L1087.5 687.5L1062.5 687.5L1037.5 687.5L1012.5 662.5L987.5 662.5L962.5 662.5L937.5 662.5L912.5 662.5L887.5 662.5L862.5 662.5L837.5 662.5L812.5 637.5L787.5 637.5L762.5 612.5" stroke="rgba(254, 112, 24, 0.29)" stroke-width="4.17"></path><path d="M756.25 612.5 a6.25 6.25 0 1 0 12.5 0 a6.25 6.25 0 1 0 -12.5 0zM856.25 687.5 a6.25 6.25 0 1 0 12.5 0 a6.25 6.25 0 1 0 -12.5 0zM806.25 712.5 a6.25 6.25 0 1 0 12.5 0 a6.25 6.25 0 1 0 -12.5 0zM1306.25 712.5 a6.25 6.25 0 1 0 12.5 0 a6.25 6.25 0 1 0 -12.5 0zM1056.25 712.5 a6.25 6.25 0 1 0 12.5 0 a6.25 6.25 0 1 0 -12.5 0zM1156.25 712.5 a6.25 6.25 0 1 0 12.5 0 a6.25 6.25 0 1 0 -12.5 0zM606.25 612.5 a6.25 6.25 0 1 0 12.5 0 a6.25 6.25 0 1 0 -12.5 0zM881.25 687.5 a6.25 6.25 0 1 0 12.5 0 a6.25 6.25 0 1 0 -12.5 0z" fill="rgba(254, 112, 24, 0.29)"></path><path d="M1462.5 312.5L1437.5 312.5L1412.5 312.5" stroke="rgba(254, 112, 24, 0.3)" stroke-width="4.17"></path><path d="M1406.25 312.5 a6.25 6.25 0 1 0 12.5 0 a6.25 6.25 0 1 0 -12.5 0z" fill="rgba(254, 112, 24, 0.3)"></path><path d="M787.5 137.5L762.5 112.5L737.5 112.5L712.5 112.5L687.5 112.5M1112.5 162.5L1087.5 162.5M812.5 137.5L787.5 112.5L762.5 87.5L737.5 87.5L712.5 87.5L687.5 87.5L662.5 87.5L637.5 87.5L612.5 87.5L587.5 87.5L562.5 87.5L537.5 87.5M937.5 137.5L912.5 112.5L887.5 112.5L862.5 112.5L837.5 87.5L812.5 87.5M987.5 137.5L962.5 112.5M1037.5 137.5L1012.5 112.5L987.5 112.5M837.5 137.5L812.5 112.5M1462.5 287.5L1437.5 287.5L1412.5 287.5L1387.5 287.5L1362.5 287.5L1337.5 262.5L1312.5 237.5L1287.5 212.5L1262.5 212.5L1237.5 212.5L1212.5 187.5L1187.5 187.5L1162.5 187.5L1137.5 187.5L1112.5 162.5L1087.5 137.5L1062.5 137.5L1037.5 137.5L1012.5 137.5L987.5 137.5L962.5 137.5L937.5 137.5L912.5 137.5L887.5 137.5L862.5 137.5L837.5 137.5L812.5 137.5L787.5 137.5L762.5 137.5L737.5 137.5L712.5 137.5" stroke="rgba(254, 112, 24, 0.29)" stroke-width="4.17"></path><path d="M706.25 137.5 a6.25 6.25 0 1 0 12.5 0 a6.25 6.25 0 1 0 -12.5 0zM681.25 112.5 a6.25 6.25 0 1 0 12.5 0 a6.25 6.25 0 1 0 -12.5 0zM1081.25 162.5 a6.25 6.25 0 1 0 12.5 0 a6.25 6.25 0 1 0 -12.5 0zM531.25 87.5 a6.25 6.25 0 1 0 12.5 0 a6.25 6.25 0 1 0 -12.5 0zM806.25 87.5 a6.25 6.25 0 1 0 12.5 0 a6.25 6.25 0 1 0 -12.5 0zM956.25 112.5 a6.25 6.25 0 1 0 12.5 0 a6.25 6.25 0 1 0 -12.5 0zM981.25 112.5 a6.25 6.25 0 1 0 12.5 0 a6.25 6.25 0 1 0 -12.5 0zM806.25 112.5 a6.25 6.25 0 1 0 12.5 0 a6.25 6.25 0 1 0 -12.5 0z" fill="rgba(254, 112, 24, 0.29)"></path><path d="M1162.5 737.5L1137.5 762.5L1112.5 762.5L1087.5 762.5M987.5 737.5L962.5 762.5L937.5 762.5M1437.5 737.5L1412.5 712.5M1037.5 737.5L1012.5 712.5M1287.5 737.5L1262.5 712.5L1237.5 712.5L1212.5 712.5L1187.5 712.5M1462.5 737.5L1437.5 737.5L1412.5 737.5L1387.5 737.5L1362.5 737.5L1337.5 737.5L1312.5 737.5L1287.5 737.5L1262.5 737.5L1237.5 737.5L1212.5 737.5L1187.5 737.5L1162.5 737.5L1137.5 737.5L1112.5 737.5L1087.5 737.5L1062.5 737.5L1037.5 737.5L1012.5 737.5L987.5 737.5L962.5 737.5L937.5 737.5L912.5 737.5" stroke="rgba(254, 112, 24, 0.29)" stroke-width="4.17"></path><path d="M906.25 737.5 a6.25 6.25 0 1 0 12.5 0 a6.25 6.25 0 1 0 -12.5 0zM1081.25 762.5 a6.25 6.25 0 1 0 12.5 0 a6.25 6.25 0 1 0 -12.5 0zM931.25 762.5 a6.25 6.25 0 1 0 12.5 0 a6.25 6.25 0 1 0 -12.5 0zM1406.25 712.5 a6.25 6.25 0 1 0 12.5 0 a6.25 6.25 0 1 0 -12.5 0zM1006.25 712.5 a6.25 6.25 0 1 0 12.5 0 a6.25 6.25 0 1 0 -12.5 0zM1181.25 712.5 a6.25 6.25 0 1 0 12.5 0 a6.25 6.25 0 1 0 -12.5 0z" fill="rgba(254, 112, 24, 0.29)"></path><path d="M1287.5 187.5L1262.5 162.5L1237.5 137.5L1212.5 137.5L1187.5 137.5L1162.5 137.5M937.5 62.5L912.5 87.5M1387.5 262.5L1362.5 237.5L1337.5 212.5L1312.5 187.5M887.5 62.5L862.5 87.5M962.5 62.5L937.5 87.5M1062.5 112.5L1037.5 112.5M1462.5 262.5L1437.5 262.5L1412.5 262.5L1387.5 262.5L1362.5 262.5L1337.5 237.5L1312.5 212.5L1287.5 187.5L1262.5 187.5L1237.5 162.5L1212.5 162.5L1187.5 162.5L1162.5 162.5L1137.5 162.5L1112.5 137.5L1087.5 112.5L1062.5 112.5L1037.5 87.5L1012.5 87.5L987.5 62.5L962.5 62.5L937.5 62.5L912.5 62.5L887.5 62.5L862.5 62.5L837.5 62.5" stroke="rgba(254, 112, 24, 0.29)" stroke-width="4.17"></path><path d="M831.25 62.5 a6.25 6.25 0 1 0 12.5 0 a6.25 6.25 0 1 0 -12.5 0zM1156.25 137.5 a6.25 6.25 0 1 0 12.5 0 a6.25 6.25 0 1 0 -12.5 0zM906.25 87.5 a6.25 6.25 0 1 0 12.5 0 a6.25 6.25 0 1 0 -12.5 0zM1306.25 187.5 a6.25 6.25 0 1 0 12.5 0 a6.25 6.25 0 1 0 -12.5 0zM856.25 87.5 a6.25 6.25 0 1 0 12.5 0 a6.25 6.25 0 1 0 -12.5 0zM931.25 87.5 a6.25 6.25 0 1 0 12.5 0 a6.25 6.25 0 1 0 -12.5 0zM1031.25 112.5 a6.25 6.25 0 1 0 12.5 0 a6.25 6.25 0 1 0 -12.5 0z" fill="rgba(254, 112, 24, 0.29)"></path></g></g><defs><mask id="SvgjsMask1163"><rect width="1440" height="1000" fill="#ffffff"></rect></mask><mask id="SvgjsMask1164"><rect width="1440" height="1000" fill="white"></rect><path d="M1084.37 537.5 a3.13 3.13 0 1 0 6.26 0 a3.13 3.13 0 1 0 -6.26 0zM1134.37 537.5 a3.13 3.13 0 1 0 6.26 0 a3.13 3.13 0 1 0 -6.26 0zM1259.37 512.5 a3.13 3.13 0 1 0 6.26 0 a3.13 3.13 0 1 0 -6.26 0zM1309.37 512.5 a3.13 3.13 0 1 0 6.26 0 a3.13 3.13 0 1 0 -6.26 0zM1109.37 512.5 a3.13 3.13 0 1 0 6.26 0 a3.13 3.13 0 1 0 -6.26 0z" fill="black"></path><path d="M759.37 537.5 a3.13 3.13 0 1 0 6.26 0 a3.13 3.13 0 1 0 -6.26 0zM1334.37 462.5 a3.13 3.13 0 1 0 6.26 0 a3.13 3.13 0 1 0 -6.26 0zM959.37 537.5 a3.13 3.13 0 1 0 6.26 0 a3.13 3.13 0 1 0 -6.26 0zM984.37 537.5 a3.13 3.13 0 1 0 6.26 0 a3.13 3.13 0 1 0 -6.26 0zM909.37 512.5 a3.13 3.13 0 1 0 6.26 0 a3.13 3.13 0 1 0 -6.26 0zM984.37 462.5 a3.13 3.13 0 1 0 6.26 0 a3.13 3.13 0 1 0 -6.26 0zM1234.37 437.5 a3.13 3.13 0 1 0 6.26 0 a3.13 3.13 0 1 0 -6.26 0zM1009.37 437.5 a3.13 3.13 0 1 0 6.26 0 a3.13 3.13 0 1 0 -6.26 0z" fill="black"></path><path d="M309.37 537.5 a3.13 3.13 0 1 0 6.26 0 a3.13 3.13 0 1 0 -6.26 0zM309.37 512.5 a3.13 3.13 0 1 0 6.26 0 a3.13 3.13 0 1 0 -6.26 0zM834.37 587.5 a3.13 3.13 0 1 0 6.26 0 a3.13 3.13 0 1 0 -6.26 0zM334.37 487.5 a3.13 3.13 0 1 0 6.26 0 a3.13 3.13 0 1 0 -6.26 0zM259.37 562.5 a3.13 3.13 0 1 0 6.26 0 a3.13 3.13 0 1 0 -6.26 0zM609.37 587.5 a3.13 3.13 0 1 0 6.26 0 a3.13 3.13 0 1 0 -6.26 0zM1009.37 587.5 a3.13 3.13 0 1 0 6.26 0 a3.13 3.13 0 1 0 -6.26 0zM309.37 462.5 a3.13 3.13 0 1 0 6.26 0 a3.13 3.13 0 1 0 -6.26 0zM1109.37 587.5 a3.13 3.13 0 1 0 6.26 0 a3.13 3.13 0 1 0 -6.26 0zM609.37 537.5 a3.13 3.13 0 1 0 6.26 0 a3.13 3.13 0 1 0 -6.26 0zM259.37 587.5 a3.13 3.13 0 1 0 6.26 0 a3.13 3.13 0 1 0 -6.26 0zM309.37 612.5 a3.13 3.13 0 1 0 6.26 0 a3.13 3.13 0 1 0 -6.26 0z" fill="black"></path><path d="M1184.37 387.5 a3.13 3.13 0 1 0 6.26 0 a3.13 3.13 0 1 0 -6.26 0zM1359.37 462.5 a3.13 3.13 0 1 0 6.26 0 a3.13 3.13 0 1 0 -6.26 0zM1309.37 412.5 a3.13 3.13 0 1 0 6.26 0 a3.13 3.13 0 1 0 -6.26 0zM1209.37 412.5 a3.13 3.13 0 1 0 6.26 0 a3.13 3.13 0 1 0 -6.26 0z" fill="black"></path><path d="M1409.37 562.5 a3.13 3.13 0 1 0 6.26 0 a3.13 3.13 0 1 0 -6.26 0z" fill="black"></path><path d="M709.37 337.5 a3.13 3.13 0 1 0 6.26 0 a3.13 3.13 0 1 0 -6.26 0zM1034.37 387.5 a3.13 3.13 0 1 0 6.26 0 a3.13 3.13 0 1 0 -6.26 0zM834.37 362.5 a3.13 3.13 0 1 0 6.26 0 a3.13 3.13 0 1 0 -6.26 0zM1134.37 362.5 a3.13 3.13 0 1 0 6.26 0 a3.13 3.13 0 1 0 -6.26 0zM909.37 312.5 a3.13 3.13 0 1 0 6.26 0 a3.13 3.13 0 1 0 -6.26 0zM634.37 312.5 a3.13 3.13 0 1 0 6.26 0 a3.13 3.13 0 1 0 -6.26 0zM1209.37 362.5 a3.13 3.13 0 1 0 6.26 0 a3.13 3.13 0 1 0 -6.26 0zM1034.37 337.5 a3.13 3.13 0 1 0 6.26 0 a3.13 3.13 0 1 0 -6.26 0z" fill="black"></path><path d="M909.37 637.5 a3.13 3.13 0 1 0 6.26 0 a3.13 3.13 0 1 0 -6.26 0zM984.37 612.5 a3.13 3.13 0 1 0 6.26 0 a3.13 3.13 0 1 0 -6.26 0zM934.37 612.5 a3.13 3.13 0 1 0 6.26 0 a3.13 3.13 0 1 0 -6.26 0zM1009.37 612.5 a3.13 3.13 0 1 0 6.26 0 a3.13 3.13 0 1 0 -6.26 0zM1259.37 612.5 a3.13 3.13 0 1 0 6.26 0 a3.13 3.13 0 1 0 -6.26 0zM1034.37 637.5 a3.13 3.13 0 1 0 6.26 0 a3.13 3.13 0 1 0 -6.26 0z" fill="black"></path><path d="M1009.37 337.5 a3.13 3.13 0 1 0 6.26 0 a3.13 3.13 0 1 0 -6.26 0zM984.37 287.5 a3.13 3.13 0 1 0 6.26 0 a3.13 3.13 0 1 0 -6.26 0zM984.37 312.5 a3.13 3.13 0 1 0 6.26 0 a3.13 3.13 0 1 0 -6.26 0zM1134.37 287.5 a3.13 3.13 0 1 0 6.26 0 a3.13 3.13 0 1 0 -6.26 0z" fill="black"></path><path d="M1084.37 637.5 a3.13 3.13 0 1 0 6.26 0 a3.13 3.13 0 1 0 -6.26 0zM1034.37 662.5 a3.13 3.13 0 1 0 6.26 0 a3.13 3.13 0 1 0 -6.26 0zM1184.37 662.5 a3.13 3.13 0 1 0 6.26 0 a3.13 3.13 0 1 0 -6.26 0zM1184.37 612.5 a3.13 3.13 0 1 0 6.26 0 a3.13 3.13 0 1 0 -6.26 0zM1284.37 612.5 a3.13 3.13 0 1 0 6.26 0 a3.13 3.13 0 1 0 -6.26 0z" fill="black"></path><path d="M284.37 287.5 a3.13 3.13 0 1 0 6.26 0 a3.13 3.13 0 1 0 -6.26 0zM309.37 312.5 a3.13 3.13 0 1 0 6.26 0 a3.13 3.13 0 1 0 -6.26 0zM484.37 312.5 a3.13 3.13 0 1 0 6.26 0 a3.13 3.13 0 1 0 -6.26 0zM759.37 212.5 a3.13 3.13 0 1 0 6.26 0 a3.13 3.13 0 1 0 -6.26 0zM259.37 262.5 a3.13 3.13 0 1 0 6.26 0 a3.13 3.13 0 1 0 -6.26 0zM784.37 212.5 a3.13 3.13 0 1 0 6.26 0 a3.13 3.13 0 1 0 -6.26 0zM659.37 237.5 a3.13 3.13 0 1 0 6.26 0 a3.13 3.13 0 1 0 -6.26 0zM884.37 262.5 a3.13 3.13 0 1 0 6.26 0 a3.13 3.13 0 1 0 -6.26 0zM459.37 337.5 a3.13 3.13 0 1 0 6.26 0 a3.13 3.13 0 1 0 -6.26 0zM784.37 262.5 a3.13 3.13 0 1 0 6.26 0 a3.13 3.13 0 1 0 -6.26 0zM959.37 237.5 a3.13 3.13 0 1 0 6.26 0 a3.13 3.13 0 1 0 -6.26 0zM534.37 212.5 a3.13 3.13 0 1 0 6.26 0 a3.13 3.13 0 1 0 -6.26 0zM459.37 237.5 a3.13 3.13 0 1 0 6.26 0 a3.13 3.13 0 1 0 -6.26 0z" fill="black"></path><path d="M1309.37 637.5 a3.13 3.13 0 1 0 6.26 0 a3.13 3.13 0 1 0 -6.26 0z" fill="black"></path><path d="M734.37 187.5 a3.13 3.13 0 1 0 6.26 0 a3.13 3.13 0 1 0 -6.26 0zM1034.37 237.5 a3.13 3.13 0 1 0 6.26 0 a3.13 3.13 0 1 0 -6.26 0zM659.37 162.5 a3.13 3.13 0 1 0 6.26 0 a3.13 3.13 0 1 0 -6.26 0zM809.37 212.5 a3.13 3.13 0 1 0 6.26 0 a3.13 3.13 0 1 0 -6.26 0zM759.37 162.5 a3.13 3.13 0 1 0 6.26 0 a3.13 3.13 0 1 0 -6.26 0zM784.37 162.5 a3.13 3.13 0 1 0 6.26 0 a3.13 3.13 0 1 0 -6.26 0z" fill="black"></path><path d="M1309.37 662.5 a3.13 3.13 0 1 0 6.26 0 a3.13 3.13 0 1 0 -6.26 0z" fill="black"></path><path d="M859.37 187.5 a3.13 3.13 0 1 0 6.26 0 a3.13 3.13 0 1 0 -6.26 0zM809.37 162.5 a3.13 3.13 0 1 0 6.26 0 a3.13 3.13 0 1 0 -6.26 0zM884.37 162.5 a3.13 3.13 0 1 0 6.26 0 a3.13 3.13 0 1 0 -6.26 0z" fill="black"></path><path d="M759.37 612.5 a3.13 3.13 0 1 0 6.26 0 a3.13 3.13 0 1 0 -6.26 0zM859.37 687.5 a3.13 3.13 0 1 0 6.26 0 a3.13 3.13 0 1 0 -6.26 0zM809.37 712.5 a3.13 3.13 0 1 0 6.26 0 a3.13 3.13 0 1 0 -6.26 0zM1309.37 712.5 a3.13 3.13 0 1 0 6.26 0 a3.13 3.13 0 1 0 -6.26 0zM1059.37 712.5 a3.13 3.13 0 1 0 6.26 0 a3.13 3.13 0 1 0 -6.26 0zM1159.37 712.5 a3.13 3.13 0 1 0 6.26 0 a3.13 3.13 0 1 0 -6.26 0zM609.37 612.5 a3.13 3.13 0 1 0 6.26 0 a3.13 3.13 0 1 0 -6.26 0zM884.37 687.5 a3.13 3.13 0 1 0 6.26 0 a3.13 3.13 0 1 0 -6.26 0z" fill="black"></path><path d="M1409.37 312.5 a3.13 3.13 0 1 0 6.26 0 a3.13 3.13 0 1 0 -6.26 0z" fill="black"></path><path d="M709.37 137.5 a3.13 3.13 0 1 0 6.26 0 a3.13 3.13 0 1 0 -6.26 0zM684.37 112.5 a3.13 3.13 0 1 0 6.26 0 a3.13 3.13 0 1 0 -6.26 0zM1084.37 162.5 a3.13 3.13 0 1 0 6.26 0 a3.13 3.13 0 1 0 -6.26 0zM534.37 87.5 a3.13 3.13 0 1 0 6.26 0 a3.13 3.13 0 1 0 -6.26 0zM809.37 87.5 a3.13 3.13 0 1 0 6.26 0 a3.13 3.13 0 1 0 -6.26 0zM959.37 112.5 a3.13 3.13 0 1 0 6.26 0 a3.13 3.13 0 1 0 -6.26 0zM984.37 112.5 a3.13 3.13 0 1 0 6.26 0 a3.13 3.13 0 1 0 -6.26 0zM809.37 112.5 a3.13 3.13 0 1 0 6.26 0 a3.13 3.13 0 1 0 -6.26 0z" fill="black"></path><path d="M909.37 737.5 a3.13 3.13 0 1 0 6.26 0 a3.13 3.13 0 1 0 -6.26 0zM1084.37 762.5 a3.13 3.13 0 1 0 6.26 0 a3.13 3.13 0 1 0 -6.26 0zM934.37 762.5 a3.13 3.13 0 1 0 6.26 0 a3.13 3.13 0 1 0 -6.26 0zM1409.37 712.5 a3.13 3.13 0 1 0 6.26 0 a3.13 3.13 0 1 0 -6.26 0zM1009.37 712.5 a3.13 3.13 0 1 0 6.26 0 a3.13 3.13 0 1 0 -6.26 0zM1184.37 712.5 a3.13 3.13 0 1 0 6.26 0 a3.13 3.13 0 1 0 -6.26 0z" fill="black"></path><path d="M834.37 62.5 a3.13 3.13 0 1 0 6.26 0 a3.13 3.13 0 1 0 -6.26 0zM1159.37 137.5 a3.13 3.13 0 1 0 6.26 0 a3.13 3.13 0 1 0 -6.26 0zM909.37 87.5 a3.13 3.13 0 1 0 6.26 0 a3.13 3.13 0 1 0 -6.26 0zM1309.37 187.5 a3.13 3.13 0 1 0 6.26 0 a3.13 3.13 0 1 0 -6.26 0zM859.37 87.5 a3.13 3.13 0 1 0 6.26 0 a3.13 3.13 0 1 0 -6.26 0zM934.37 87.5 a3.13 3.13 0 1 0 6.26 0 a3.13 3.13 0 1 0 -6.26 0zM1034.37 112.5 a3.13 3.13 0 1 0 6.26 0 a3.13 3.13 0 1 0 -6.26 0z" fill="black"></path></mask></defs></svg>