<svg xmlns="http://www.w3.org/2000/svg" version="1.1" xmlns:xlink="http://www.w3.org/1999/xlink" xmlns:svgjs="http://svgjs.dev/svgjs" width="1440" height="1000" preserveAspectRatio="none" viewBox="0 0 1440 1000"><g mask="url(&quot;#SvgjsMask1123&quot;)" fill="none"><path d="M71.14 37.19L131.77 72.19L131.77 142.19L71.14 177.19L10.52 142.19L10.52 72.19zM10.52 352.19L71.14 387.19L71.14 457.19L10.52 492.19L-50.1 457.19L-50.1 387.19zM10.52 982.19L71.14 1017.19L71.14 1087.19L10.52 1122.19L-50.1 1087.19L-50.1 1017.19zM131.77 352.19L192.39 387.19L192.39 457.19L131.77 492.19L71.14 457.19L71.14 387.19zM131.77 562.19L192.39 597.19L192.39 667.19L131.77 702.19L71.14 667.19L71.14 597.19zM192.39 667.19L253.01 702.19L253.01 772.19L192.39 807.19L131.77 772.19L131.77 702.19zM131.77 982.19L192.39 1017.19L192.39 1087.19L131.77 1122.19L71.14 1087.19L71.14 1017.19zM253.01 142.19L313.64 177.19L313.64 247.19L253.01 282.19L192.39 247.19L192.39 177.19zM313.64 877.19L374.26 912.19L374.26 982.19L313.64 1017.19L253.01 982.19L253.01 912.19zM253.01 982.19L313.64 1017.19L313.64 1087.19L253.01 1122.19L192.39 1087.19L192.39 1017.19zM374.26 562.19L434.88 597.19L434.88 667.19L374.26 702.19L313.64 667.19L313.64 597.19zM434.88 667.19L495.51 702.19L495.51 772.19L434.88 807.19L374.26 772.19L374.26 702.19zM556.13 37.19L616.75 72.19L616.75 142.19L556.13 177.19L495.51 142.19L495.51 72.19zM495.51 352.19L556.13 387.19L556.13 457.19L495.51 492.19L434.88 457.19L434.88 387.19zM677.38 877.19L738 912.19L738 982.19L677.38 1017.19L616.75 982.19L616.75 912.19zM616.75 982.19L677.38 1017.19L677.38 1087.19L616.75 1122.19L556.13 1087.19L556.13 1017.19zM738 562.19L798.63 597.19L798.63 667.19L738 702.19L677.38 667.19L677.38 597.19zM798.63 667.19L859.25 702.19L859.25 772.19L798.63 807.19L738 772.19L738 702.19zM798.63 877.19L859.25 912.19L859.25 982.19L798.63 1017.19L738 982.19L738 912.19zM919.87 247.19L980.5 282.19L980.5 352.19L919.87 387.19L859.25 352.19L859.25 282.19zM1041.12 247.19L1101.74 282.19L1101.74 352.19L1041.12 387.19L980.5 352.19L980.5 282.19zM980.5 562.19L1041.12 597.19L1041.12 667.19L980.5 702.19L919.87 667.19L919.87 597.19zM1283.61 247.19L1344.24 282.19L1344.24 352.19L1283.61 387.19L1222.99 352.19L1222.99 282.19zM1222.99 352.19L1283.61 387.19L1283.61 457.19L1222.99 492.19L1162.37 457.19L1162.37 387.19zM1222.99 772.19L1283.61 807.19L1283.61 877.19L1222.99 912.19L1162.37 877.19L1162.37 807.19zM1404.86 37.19L1465.48 72.19L1465.48 142.19L1404.86 177.19L1344.24 142.19L1344.24 72.19zM1344.24 142.19L1404.86 177.19L1404.86 247.19L1344.24 282.19L1283.61 247.19L1283.61 177.19zM1404.86 247.19L1465.48 282.19L1465.48 352.19L1404.86 387.19L1344.24 352.19L1344.24 282.19zM1344.24 562.19L1404.86 597.19L1404.86 667.19L1344.24 702.19L1283.61 667.19L1283.61 597.19z" stroke="rgba(254, 112, 24, 0.45)" stroke-width="2"></path><path d="M64.14 37.19 a7 7 0 1 0 14 0 a7 7 0 1 0 -14 0zM124.77 72.19 a7 7 0 1 0 14 0 a7 7 0 1 0 -14 0zM124.77 142.19 a7 7 0 1 0 14 0 a7 7 0 1 0 -14 0zM64.14 177.19 a7 7 0 1 0 14 0 a7 7 0 1 0 -14 0zM3.52 142.19 a7 7 0 1 0 14 0 a7 7 0 1 0 -14 0zM3.52 72.19 a7 7 0 1 0 14 0 a7 7 0 1 0 -14 0zM3.52 352.19 a7 7 0 1 0 14 0 a7 7 0 1 0 -14 0zM64.14 387.19 a7 7 0 1 0 14 0 a7 7 0 1 0 -14 0zM64.14 457.19 a7 7 0 1 0 14 0 a7 7 0 1 0 -14 0zM3.52 492.19 a7 7 0 1 0 14 0 a7 7 0 1 0 -14 0zM-57.1 457.19 a7 7 0 1 0 14 0 a7 7 0 1 0 -14 0zM-57.1 387.19 a7 7 0 1 0 14 0 a7 7 0 1 0 -14 0zM3.52 982.19 a7 7 0 1 0 14 0 a7 7 0 1 0 -14 0zM64.14 1017.19 a7 7 0 1 0 14 0 a7 7 0 1 0 -14 0zM64.14 1087.19 a7 7 0 1 0 14 0 a7 7 0 1 0 -14 0zM3.52 1122.19 a7 7 0 1 0 14 0 a7 7 0 1 0 -14 0zM-57.1 1087.19 a7 7 0 1 0 14 0 a7 7 0 1 0 -14 0zM-57.1 1017.19 a7 7 0 1 0 14 0 a7 7 0 1 0 -14 0zM124.77 352.19 a7 7 0 1 0 14 0 a7 7 0 1 0 -14 0zM185.39 387.19 a7 7 0 1 0 14 0 a7 7 0 1 0 -14 0zM185.39 457.19 a7 7 0 1 0 14 0 a7 7 0 1 0 -14 0zM124.77 492.19 a7 7 0 1 0 14 0 a7 7 0 1 0 -14 0zM124.77 562.19 a7 7 0 1 0 14 0 a7 7 0 1 0 -14 0zM185.39 597.19 a7 7 0 1 0 14 0 a7 7 0 1 0 -14 0zM185.39 667.19 a7 7 0 1 0 14 0 a7 7 0 1 0 -14 0zM124.77 702.19 a7 7 0 1 0 14 0 a7 7 0 1 0 -14 0zM64.14 667.19 a7 7 0 1 0 14 0 a7 7 0 1 0 -14 0zM64.14 597.19 a7 7 0 1 0 14 0 a7 7 0 1 0 -14 0zM246.01 702.19 a7 7 0 1 0 14 0 a7 7 0 1 0 -14 0zM246.01 772.19 a7 7 0 1 0 14 0 a7 7 0 1 0 -14 0zM185.39 807.19 a7 7 0 1 0 14 0 a7 7 0 1 0 -14 0zM124.77 772.19 a7 7 0 1 0 14 0 a7 7 0 1 0 -14 0zM124.77 982.19 a7 7 0 1 0 14 0 a7 7 0 1 0 -14 0zM185.39 1017.19 a7 7 0 1 0 14 0 a7 7 0 1 0 -14 0zM185.39 1087.19 a7 7 0 1 0 14 0 a7 7 0 1 0 -14 0zM124.77 1122.19 a7 7 0 1 0 14 0 a7 7 0 1 0 -14 0zM246.01 142.19 a7 7 0 1 0 14 0 a7 7 0 1 0 -14 0zM306.64 177.19 a7 7 0 1 0 14 0 a7 7 0 1 0 -14 0zM306.64 247.19 a7 7 0 1 0 14 0 a7 7 0 1 0 -14 0zM246.01 282.19 a7 7 0 1 0 14 0 a7 7 0 1 0 -14 0zM185.39 247.19 a7 7 0 1 0 14 0 a7 7 0 1 0 -14 0zM185.39 177.19 a7 7 0 1 0 14 0 a7 7 0 1 0 -14 0zM306.64 877.19 a7 7 0 1 0 14 0 a7 7 0 1 0 -14 0zM367.26 912.19 a7 7 0 1 0 14 0 a7 7 0 1 0 -14 0zM367.26 982.19 a7 7 0 1 0 14 0 a7 7 0 1 0 -14 0zM306.64 1017.19 a7 7 0 1 0 14 0 a7 7 0 1 0 -14 0zM246.01 982.19 a7 7 0 1 0 14 0 a7 7 0 1 0 -14 0zM246.01 912.19 a7 7 0 1 0 14 0 a7 7 0 1 0 -14 0zM306.64 1087.19 a7 7 0 1 0 14 0 a7 7 0 1 0 -14 0zM246.01 1122.19 a7 7 0 1 0 14 0 a7 7 0 1 0 -14 0zM367.26 562.19 a7 7 0 1 0 14 0 a7 7 0 1 0 -14 0zM427.88 597.19 a7 7 0 1 0 14 0 a7 7 0 1 0 -14 0zM427.88 667.19 a7 7 0 1 0 14 0 a7 7 0 1 0 -14 0zM367.26 702.19 a7 7 0 1 0 14 0 a7 7 0 1 0 -14 0zM306.64 667.19 a7 7 0 1 0 14 0 a7 7 0 1 0 -14 0zM306.64 597.19 a7 7 0 1 0 14 0 a7 7 0 1 0 -14 0zM488.51 702.19 a7 7 0 1 0 14 0 a7 7 0 1 0 -14 0zM488.51 772.19 a7 7 0 1 0 14 0 a7 7 0 1 0 -14 0zM427.88 807.19 a7 7 0 1 0 14 0 a7 7 0 1 0 -14 0zM367.26 772.19 a7 7 0 1 0 14 0 a7 7 0 1 0 -14 0zM549.13 37.19 a7 7 0 1 0 14 0 a7 7 0 1 0 -14 0zM609.75 72.19 a7 7 0 1 0 14 0 a7 7 0 1 0 -14 0zM609.75 142.19 a7 7 0 1 0 14 0 a7 7 0 1 0 -14 0zM549.13 177.19 a7 7 0 1 0 14 0 a7 7 0 1 0 -14 0zM488.51 142.19 a7 7 0 1 0 14 0 a7 7 0 1 0 -14 0zM488.51 72.19 a7 7 0 1 0 14 0 a7 7 0 1 0 -14 0zM488.51 352.19 a7 7 0 1 0 14 0 a7 7 0 1 0 -14 0zM549.13 387.19 a7 7 0 1 0 14 0 a7 7 0 1 0 -14 0zM549.13 457.19 a7 7 0 1 0 14 0 a7 7 0 1 0 -14 0zM488.51 492.19 a7 7 0 1 0 14 0 a7 7 0 1 0 -14 0zM427.88 457.19 a7 7 0 1 0 14 0 a7 7 0 1 0 -14 0zM427.88 387.19 a7 7 0 1 0 14 0 a7 7 0 1 0 -14 0zM670.38 877.19 a7 7 0 1 0 14 0 a7 7 0 1 0 -14 0zM731 912.19 a7 7 0 1 0 14 0 a7 7 0 1 0 -14 0zM731 982.19 a7 7 0 1 0 14 0 a7 7 0 1 0 -14 0zM670.38 1017.19 a7 7 0 1 0 14 0 a7 7 0 1 0 -14 0zM609.75 982.19 a7 7 0 1 0 14 0 a7 7 0 1 0 -14 0zM609.75 912.19 a7 7 0 1 0 14 0 a7 7 0 1 0 -14 0zM670.38 1087.19 a7 7 0 1 0 14 0 a7 7 0 1 0 -14 0zM609.75 1122.19 a7 7 0 1 0 14 0 a7 7 0 1 0 -14 0zM549.13 1087.19 a7 7 0 1 0 14 0 a7 7 0 1 0 -14 0zM549.13 1017.19 a7 7 0 1 0 14 0 a7 7 0 1 0 -14 0zM731 562.19 a7 7 0 1 0 14 0 a7 7 0 1 0 -14 0zM791.63 597.19 a7 7 0 1 0 14 0 a7 7 0 1 0 -14 0zM791.63 667.19 a7 7 0 1 0 14 0 a7 7 0 1 0 -14 0zM731 702.19 a7 7 0 1 0 14 0 a7 7 0 1 0 -14 0zM670.38 667.19 a7 7 0 1 0 14 0 a7 7 0 1 0 -14 0zM670.38 597.19 a7 7 0 1 0 14 0 a7 7 0 1 0 -14 0zM852.25 702.19 a7 7 0 1 0 14 0 a7 7 0 1 0 -14 0zM852.25 772.19 a7 7 0 1 0 14 0 a7 7 0 1 0 -14 0zM791.63 807.19 a7 7 0 1 0 14 0 a7 7 0 1 0 -14 0zM731 772.19 a7 7 0 1 0 14 0 a7 7 0 1 0 -14 0zM791.63 877.19 a7 7 0 1 0 14 0 a7 7 0 1 0 -14 0zM852.25 912.19 a7 7 0 1 0 14 0 a7 7 0 1 0 -14 0zM852.25 982.19 a7 7 0 1 0 14 0 a7 7 0 1 0 -14 0zM791.63 1017.19 a7 7 0 1 0 14 0 a7 7 0 1 0 -14 0zM912.87 247.19 a7 7 0 1 0 14 0 a7 7 0 1 0 -14 0zM973.5 282.19 a7 7 0 1 0 14 0 a7 7 0 1 0 -14 0zM973.5 352.19 a7 7 0 1 0 14 0 a7 7 0 1 0 -14 0zM912.87 387.19 a7 7 0 1 0 14 0 a7 7 0 1 0 -14 0zM852.25 352.19 a7 7 0 1 0 14 0 a7 7 0 1 0 -14 0zM852.25 282.19 a7 7 0 1 0 14 0 a7 7 0 1 0 -14 0zM1034.12 247.19 a7 7 0 1 0 14 0 a7 7 0 1 0 -14 0zM1094.74 282.19 a7 7 0 1 0 14 0 a7 7 0 1 0 -14 0zM1094.74 352.19 a7 7 0 1 0 14 0 a7 7 0 1 0 -14 0zM1034.12 387.19 a7 7 0 1 0 14 0 a7 7 0 1 0 -14 0zM973.5 562.19 a7 7 0 1 0 14 0 a7 7 0 1 0 -14 0zM1034.12 597.19 a7 7 0 1 0 14 0 a7 7 0 1 0 -14 0zM1034.12 667.19 a7 7 0 1 0 14 0 a7 7 0 1 0 -14 0zM973.5 702.19 a7 7 0 1 0 14 0 a7 7 0 1 0 -14 0zM912.87 667.19 a7 7 0 1 0 14 0 a7 7 0 1 0 -14 0zM912.87 597.19 a7 7 0 1 0 14 0 a7 7 0 1 0 -14 0zM1276.61 247.19 a7 7 0 1 0 14 0 a7 7 0 1 0 -14 0zM1337.24 282.19 a7 7 0 1 0 14 0 a7 7 0 1 0 -14 0zM1337.24 352.19 a7 7 0 1 0 14 0 a7 7 0 1 0 -14 0zM1276.61 387.19 a7 7 0 1 0 14 0 a7 7 0 1 0 -14 0zM1215.99 352.19 a7 7 0 1 0 14 0 a7 7 0 1 0 -14 0zM1215.99 282.19 a7 7 0 1 0 14 0 a7 7 0 1 0 -14 0zM1276.61 457.19 a7 7 0 1 0 14 0 a7 7 0 1 0 -14 0zM1215.99 492.19 a7 7 0 1 0 14 0 a7 7 0 1 0 -14 0zM1155.37 457.19 a7 7 0 1 0 14 0 a7 7 0 1 0 -14 0zM1155.37 387.19 a7 7 0 1 0 14 0 a7 7 0 1 0 -14 0zM1215.99 772.19 a7 7 0 1 0 14 0 a7 7 0 1 0 -14 0zM1276.61 807.19 a7 7 0 1 0 14 0 a7 7 0 1 0 -14 0zM1276.61 877.19 a7 7 0 1 0 14 0 a7 7 0 1 0 -14 0zM1215.99 912.19 a7 7 0 1 0 14 0 a7 7 0 1 0 -14 0zM1155.37 877.19 a7 7 0 1 0 14 0 a7 7 0 1 0 -14 0zM1155.37 807.19 a7 7 0 1 0 14 0 a7 7 0 1 0 -14 0zM1397.86 37.19 a7 7 0 1 0 14 0 a7 7 0 1 0 -14 0zM1458.48 72.19 a7 7 0 1 0 14 0 a7 7 0 1 0 -14 0zM1458.48 142.19 a7 7 0 1 0 14 0 a7 7 0 1 0 -14 0zM1397.86 177.19 a7 7 0 1 0 14 0 a7 7 0 1 0 -14 0zM1337.24 142.19 a7 7 0 1 0 14 0 a7 7 0 1 0 -14 0zM1337.24 72.19 a7 7 0 1 0 14 0 a7 7 0 1 0 -14 0zM1397.86 247.19 a7 7 0 1 0 14 0 a7 7 0 1 0 -14 0zM1276.61 177.19 a7 7 0 1 0 14 0 a7 7 0 1 0 -14 0zM1458.48 282.19 a7 7 0 1 0 14 0 a7 7 0 1 0 -14 0zM1458.48 352.19 a7 7 0 1 0 14 0 a7 7 0 1 0 -14 0zM1397.86 387.19 a7 7 0 1 0 14 0 a7 7 0 1 0 -14 0zM1337.24 562.19 a7 7 0 1 0 14 0 a7 7 0 1 0 -14 0zM1397.86 597.19 a7 7 0 1 0 14 0 a7 7 0 1 0 -14 0zM1397.86 667.19 a7 7 0 1 0 14 0 a7 7 0 1 0 -14 0zM1337.24 702.19 a7 7 0 1 0 14 0 a7 7 0 1 0 -14 0zM1276.61 667.19 a7 7 0 1 0 14 0 a7 7 0 1 0 -14 0zM1276.61 597.19 a7 7 0 1 0 14 0 a7 7 0 1 0 -14 0z" fill="rgba(254, 112, 24, 0.45)"></path><path d="M22.81 -8.03L48.79 6.97L48.79 36.97L22.81 51.97L-3.17 36.97L-3.17 6.97zM22.81 81.97L48.79 96.97L48.79 126.97L22.81 141.97L-3.17 126.97L-3.17 96.97zM48.79 126.97L74.77 141.97L74.77 171.97L48.79 186.97L22.81 171.97L22.81 141.97zM48.79 216.97L74.77 231.97L74.77 261.97L48.79 276.97L22.81 261.97L22.81 231.97zM22.81 261.97L48.79 276.97L48.79 306.97L22.81 321.97L-3.17 306.97L-3.17 276.97zM22.81 351.97L48.79 366.97L48.79 396.97L22.81 411.97L-3.17 396.97L-3.17 366.97zM48.79 396.97L74.77 411.97L74.77 441.97L48.79 456.97L22.81 441.97L22.81 411.97zM48.79 486.97L74.77 501.97L74.77 531.97L48.79 546.97L22.81 531.97L22.81 501.97zM22.81 531.97L48.79 546.97L48.79 576.97L22.81 591.97L-3.17 576.97L-3.17 546.97zM48.79 576.97L74.77 591.97L74.77 621.97L48.79 636.97L22.81 621.97L22.81 591.97zM22.81 621.97L48.79 636.97L48.79 666.97L22.81 681.97L-3.17 666.97L-3.17 636.97zM48.79 666.97L74.77 681.97L74.77 711.97L48.79 726.97L22.81 711.97L22.81 681.97zM48.79 756.97L74.77 771.97L74.77 801.97L48.79 816.97L22.81 801.97L22.81 771.97zM22.81 801.97L48.79 816.97L48.79 846.97L22.81 861.97L-3.17 846.97L-3.17 816.97zM48.79 936.97L74.77 951.97L74.77 981.97L48.79 996.97L22.81 981.97L22.81 951.97zM74.77 -8.03L100.75 6.97L100.75 36.97L74.77 51.97L48.79 36.97L48.79 6.97zM74.77 81.97L100.75 96.97L100.75 126.97L74.77 141.97L48.79 126.97L48.79 96.97zM100.75 126.97L126.74 141.97L126.74 171.97L100.75 186.97L74.77 171.97L74.77 141.97zM100.75 216.97L126.74 231.97L126.74 261.97L100.75 276.97L74.77 261.97L74.77 231.97zM74.77 351.97L100.75 366.97L100.75 396.97L74.77 411.97L48.79 396.97L48.79 366.97zM100.75 486.97L126.74 501.97L126.74 531.97L100.75 546.97L74.77 531.97L74.77 501.97zM100.75 666.97L126.74 681.97L126.74 711.97L100.75 726.97L74.77 711.97L74.77 681.97zM100.75 756.97L126.74 771.97L126.74 801.97L100.75 816.97L74.77 801.97L74.77 771.97zM74.77 801.97L100.75 816.97L100.75 846.97L74.77 861.97L48.79 846.97L48.79 816.97zM100.75 846.97L126.74 861.97L126.74 891.97L100.75 906.97L74.77 891.97L74.77 861.97zM74.77 981.97L100.75 996.97L100.75 1026.97L74.77 1041.97L48.79 1026.97L48.79 996.97zM126.74 81.97L152.72 96.97L152.72 126.97L126.74 141.97L100.75 126.97L100.75 96.97zM126.74 171.97L152.72 186.97L152.72 216.97L126.74 231.97L100.75 216.97L100.75 186.97zM152.72 306.97L178.7 321.97L178.7 351.97L152.72 366.97L126.74 351.97L126.74 321.97zM152.72 936.97L178.7 951.97L178.7 981.97L152.72 996.97L126.74 981.97L126.74 951.97zM178.7 81.97L204.68 96.97L204.68 126.97L178.7 141.97L152.72 126.97L152.72 96.97zM204.68 216.97L230.66 231.97L230.66 261.97L204.68 276.97L178.7 261.97L178.7 231.97zM178.7 261.97L204.68 276.97L204.68 306.97L178.7 321.97L152.72 306.97L152.72 276.97zM204.68 486.97L230.66 501.97L230.66 531.97L204.68 546.97L178.7 531.97L178.7 501.97zM178.7 531.97L204.68 546.97L204.68 576.97L178.7 591.97L152.72 576.97L152.72 546.97zM204.68 756.97L230.66 771.97L230.66 801.97L204.68 816.97L178.7 801.97L178.7 771.97zM178.7 981.97L204.68 996.97L204.68 1026.97L178.7 1041.97L152.72 1026.97L152.72 996.97zM230.66 171.97L256.64 186.97L256.64 216.97L230.66 231.97L204.68 216.97L204.68 186.97zM256.64 216.97L282.63 231.97L282.63 261.97L256.64 276.97L230.66 261.97L230.66 231.97zM230.66 261.97L256.64 276.97L256.64 306.97L230.66 321.97L204.68 306.97L204.68 276.97zM230.66 621.97L256.64 636.97L256.64 666.97L230.66 681.97L204.68 666.97L204.68 636.97zM256.64 666.97L282.63 681.97L282.63 711.97L256.64 726.97L230.66 711.97L230.66 681.97zM230.66 711.97L256.64 726.97L256.64 756.97L230.66 771.97L204.68 756.97L204.68 726.97zM230.66 801.97L256.64 816.97L256.64 846.97L230.66 861.97L204.68 846.97L204.68 816.97zM256.64 846.97L282.63 861.97L282.63 891.97L256.64 906.97L230.66 891.97L230.66 861.97zM282.63 171.97L308.61 186.97L308.61 216.97L282.63 231.97L256.64 216.97L256.64 186.97zM308.61 306.97L334.59 321.97L334.59 351.97L308.61 366.97L282.63 351.97L282.63 321.97zM308.61 486.97L334.59 501.97L334.59 531.97L308.61 546.97L282.63 531.97L282.63 501.97zM282.63 531.97L308.61 546.97L308.61 576.97L282.63 591.97L256.64 576.97L256.64 546.97zM308.61 666.97L334.59 681.97L334.59 711.97L308.61 726.97L282.63 711.97L282.63 681.97zM282.63 711.97L308.61 726.97L308.61 756.97L282.63 771.97L256.64 756.97L256.64 726.97zM308.61 756.97L334.59 771.97L334.59 801.97L308.61 816.97L282.63 801.97L282.63 771.97zM282.63 801.97L308.61 816.97L308.61 846.97L282.63 861.97L256.64 846.97L256.64 816.97zM308.61 846.97L334.59 861.97L334.59 891.97L308.61 906.97L282.63 891.97L282.63 861.97zM308.61 936.97L334.59 951.97L334.59 981.97L308.61 996.97L282.63 981.97L282.63 951.97zM282.63 981.97L308.61 996.97L308.61 1026.97L282.63 1041.97L256.64 1026.97L256.64 996.97zM334.59 81.97L360.57 96.97L360.57 126.97L334.59 141.97L308.61 126.97L308.61 96.97zM334.59 261.97L360.57 276.97L360.57 306.97L334.59 321.97L308.61 306.97L308.61 276.97zM334.59 351.97L360.57 366.97L360.57 396.97L334.59 411.97L308.61 396.97L308.61 366.97zM360.57 486.97L386.55 501.97L386.55 531.97L360.57 546.97L334.59 531.97L334.59 501.97zM334.59 801.97L360.57 816.97L360.57 846.97L334.59 861.97L308.61 846.97L308.61 816.97zM360.57 846.97L386.55 861.97L386.55 891.97L360.57 906.97L334.59 891.97L334.59 861.97zM334.59 981.97L360.57 996.97L360.57 1026.97L334.59 1041.97L308.61 1026.97L308.61 996.97zM386.55 -8.03L412.53 6.97L412.53 36.97L386.55 51.97L360.57 36.97L360.57 6.97zM386.55 81.97L412.53 96.97L412.53 126.97L386.55 141.97L360.57 126.97L360.57 96.97zM412.53 126.97L438.51 141.97L438.51 171.97L412.53 186.97L386.55 171.97L386.55 141.97zM386.55 261.97L412.53 276.97L412.53 306.97L386.55 321.97L360.57 306.97L360.57 276.97zM386.55 351.97L412.53 366.97L412.53 396.97L386.55 411.97L360.57 396.97L360.57 366.97zM412.53 666.97L438.51 681.97L438.51 711.97L412.53 726.97L386.55 711.97L386.55 681.97zM386.55 891.97L412.53 906.97L412.53 936.97L386.55 951.97L360.57 936.97L360.57 906.97zM464.5 126.97L490.48 141.97L490.48 171.97L464.5 186.97L438.51 171.97L438.51 141.97zM438.51 171.97L464.5 186.97L464.5 216.97L438.51 231.97L412.53 216.97L412.53 186.97zM464.5 216.97L490.48 231.97L490.48 261.97L464.5 276.97L438.51 261.97L438.51 231.97zM438.51 351.97L464.5 366.97L464.5 396.97L438.51 411.97L412.53 396.97L412.53 366.97zM438.51 441.97L464.5 456.97L464.5 486.97L438.51 501.97L412.53 486.97L412.53 456.97zM438.51 531.97L464.5 546.97L464.5 576.97L438.51 591.97L412.53 576.97L412.53 546.97zM438.51 621.97L464.5 636.97L464.5 666.97L438.51 681.97L412.53 666.97L412.53 636.97zM464.5 756.97L490.48 771.97L490.48 801.97L464.5 816.97L438.51 801.97L438.51 771.97zM464.5 936.97L490.48 951.97L490.48 981.97L464.5 996.97L438.51 981.97L438.51 951.97zM516.46 36.97L542.44 51.97L542.44 81.97L516.46 96.97L490.48 81.97L490.48 51.97zM490.48 81.97L516.46 96.97L516.46 126.97L490.48 141.97L464.5 126.97L464.5 96.97zM516.46 216.97L542.44 231.97L542.44 261.97L516.46 276.97L490.48 261.97L490.48 231.97zM516.46 306.97L542.44 321.97L542.44 351.97L516.46 366.97L490.48 351.97L490.48 321.97zM516.46 396.97L542.44 411.97L542.44 441.97L516.46 456.97L490.48 441.97L490.48 411.97zM490.48 531.97L516.46 546.97L516.46 576.97L490.48 591.97L464.5 576.97L464.5 546.97zM490.48 621.97L516.46 636.97L516.46 666.97L490.48 681.97L464.5 666.97L464.5 636.97zM516.46 666.97L542.44 681.97L542.44 711.97L516.46 726.97L490.48 711.97L490.48 681.97zM490.48 891.97L516.46 906.97L516.46 936.97L490.48 951.97L464.5 936.97L464.5 906.97zM568.42 36.97L594.4 51.97L594.4 81.97L568.42 96.97L542.44 81.97L542.44 51.97zM542.44 81.97L568.42 96.97L568.42 126.97L542.44 141.97L516.46 126.97L516.46 96.97zM542.44 171.97L568.42 186.97L568.42 216.97L542.44 231.97L516.46 216.97L516.46 186.97zM542.44 261.97L568.42 276.97L568.42 306.97L542.44 321.97L516.46 306.97L516.46 276.97zM568.42 396.97L594.4 411.97L594.4 441.97L568.42 456.97L542.44 441.97L542.44 411.97zM542.44 531.97L568.42 546.97L568.42 576.97L542.44 591.97L516.46 576.97L516.46 546.97zM568.42 576.97L594.4 591.97L594.4 621.97L568.42 636.97L542.44 621.97L542.44 591.97zM542.44 621.97L568.42 636.97L568.42 666.97L542.44 681.97L516.46 666.97L516.46 636.97zM568.42 666.97L594.4 681.97L594.4 711.97L568.42 726.97L542.44 711.97L542.44 681.97zM568.42 936.97L594.4 951.97L594.4 981.97L568.42 996.97L542.44 981.97L542.44 951.97zM542.44 981.97L568.42 996.97L568.42 1026.97L542.44 1041.97L516.46 1026.97L516.46 996.97zM594.4 81.97L620.38 96.97L620.38 126.97L594.4 141.97L568.42 126.97L568.42 96.97zM594.4 261.97L620.38 276.97L620.38 306.97L594.4 321.97L568.42 306.97L568.42 276.97zM594.4 441.97L620.38 456.97L620.38 486.97L594.4 501.97L568.42 486.97L568.42 456.97zM594.4 621.97L620.38 636.97L620.38 666.97L594.4 681.97L568.42 666.97L568.42 636.97zM594.4 711.97L620.38 726.97L620.38 756.97L594.4 771.97L568.42 756.97L568.42 726.97zM594.4 801.97L620.38 816.97L620.38 846.97L594.4 861.97L568.42 846.97L568.42 816.97zM646.37 261.97L672.35 276.97L672.35 306.97L646.37 321.97L620.38 306.97L620.38 276.97zM672.35 306.97L698.33 321.97L698.33 351.97L672.35 366.97L646.37 351.97L646.37 321.97zM672.35 396.97L698.33 411.97L698.33 441.97L672.35 456.97L646.37 441.97L646.37 411.97zM646.37 441.97L672.35 456.97L672.35 486.97L646.37 501.97L620.38 486.97L620.38 456.97zM672.35 666.97L698.33 681.97L698.33 711.97L672.35 726.97L646.37 711.97L646.37 681.97zM672.35 936.97L698.33 951.97L698.33 981.97L672.35 996.97L646.37 981.97L646.37 951.97zM646.37 981.97L672.35 996.97L672.35 1026.97L646.37 1041.97L620.38 1026.97L620.38 996.97zM698.33 -8.03L724.31 6.97L724.31 36.97L698.33 51.97L672.35 36.97L672.35 6.97zM724.31 36.97L750.29 51.97L750.29 81.97L724.31 96.97L698.33 81.97L698.33 51.97zM698.33 81.97L724.31 96.97L724.31 126.97L698.33 141.97L672.35 126.97L672.35 96.97zM698.33 171.97L724.31 186.97L724.31 216.97L698.33 231.97L672.35 216.97L672.35 186.97zM724.31 216.97L750.29 231.97L750.29 261.97L724.31 276.97L698.33 261.97L698.33 231.97zM698.33 261.97L724.31 276.97L724.31 306.97L698.33 321.97L672.35 306.97L672.35 276.97zM698.33 351.97L724.31 366.97L724.31 396.97L698.33 411.97L672.35 396.97L672.35 366.97zM698.33 441.97L724.31 456.97L724.31 486.97L698.33 501.97L672.35 486.97L672.35 456.97zM724.31 666.97L750.29 681.97L750.29 711.97L724.31 726.97L698.33 711.97L698.33 681.97zM724.31 846.97L750.29 861.97L750.29 891.97L724.31 906.97L698.33 891.97L698.33 861.97zM698.33 891.97L724.31 906.97L724.31 936.97L698.33 951.97L672.35 936.97L672.35 906.97zM776.27 36.97L802.25 51.97L802.25 81.97L776.27 96.97L750.29 81.97L750.29 51.97zM750.29 81.97L776.27 96.97L776.27 126.97L750.29 141.97L724.31 126.97L724.31 96.97zM750.29 351.97L776.27 366.97L776.27 396.97L750.29 411.97L724.31 396.97L724.31 366.97zM750.29 441.97L776.27 456.97L776.27 486.97L750.29 501.97L724.31 486.97L724.31 456.97zM776.27 486.97L802.25 501.97L802.25 531.97L776.27 546.97L750.29 531.97L750.29 501.97zM776.27 576.97L802.25 591.97L802.25 621.97L776.27 636.97L750.29 621.97L750.29 591.97zM750.29 621.97L776.27 636.97L776.27 666.97L750.29 681.97L724.31 666.97L724.31 636.97zM776.27 666.97L802.25 681.97L802.25 711.97L776.27 726.97L750.29 711.97L750.29 681.97zM776.27 846.97L802.25 861.97L802.25 891.97L776.27 906.97L750.29 891.97L750.29 861.97zM750.29 891.97L776.27 906.97L776.27 936.97L750.29 951.97L724.31 936.97L724.31 906.97zM750.29 981.97L776.27 996.97L776.27 1026.97L750.29 1041.97L724.31 1026.97L724.31 996.97zM828.24 36.97L854.22 51.97L854.22 81.97L828.24 96.97L802.25 81.97L802.25 51.97zM828.24 126.97L854.22 141.97L854.22 171.97L828.24 186.97L802.25 171.97L802.25 141.97zM802.25 171.97L828.24 186.97L828.24 216.97L802.25 231.97L776.27 216.97L776.27 186.97zM828.24 216.97L854.22 231.97L854.22 261.97L828.24 276.97L802.25 261.97L802.25 231.97zM802.25 261.97L828.24 276.97L828.24 306.97L802.25 321.97L776.27 306.97L776.27 276.97zM802.25 351.97L828.24 366.97L828.24 396.97L802.25 411.97L776.27 396.97L776.27 366.97zM802.25 441.97L828.24 456.97L828.24 486.97L802.25 501.97L776.27 486.97L776.27 456.97zM802.25 531.97L828.24 546.97L828.24 576.97L802.25 591.97L776.27 576.97L776.27 546.97zM828.24 756.97L854.22 771.97L854.22 801.97L828.24 816.97L802.25 801.97L802.25 771.97zM802.25 801.97L828.24 816.97L828.24 846.97L802.25 861.97L776.27 846.97L776.27 816.97zM828.24 846.97L854.22 861.97L854.22 891.97L828.24 906.97L802.25 891.97L802.25 861.97zM828.24 936.97L854.22 951.97L854.22 981.97L828.24 996.97L802.25 981.97L802.25 951.97zM880.2 36.97L906.18 51.97L906.18 81.97L880.2 96.97L854.22 81.97L854.22 51.97zM880.2 216.97L906.18 231.97L906.18 261.97L880.2 276.97L854.22 261.97L854.22 231.97zM880.2 306.97L906.18 321.97L906.18 351.97L880.2 366.97L854.22 351.97L854.22 321.97zM880.2 396.97L906.18 411.97L906.18 441.97L880.2 456.97L854.22 441.97L854.22 411.97zM880.2 486.97L906.18 501.97L906.18 531.97L880.2 546.97L854.22 531.97L854.22 501.97zM880.2 576.97L906.18 591.97L906.18 621.97L880.2 636.97L854.22 621.97L854.22 591.97zM880.2 756.97L906.18 771.97L906.18 801.97L880.2 816.97L854.22 801.97L854.22 771.97zM906.18 81.97L932.16 96.97L932.16 126.97L906.18 141.97L880.2 126.97L880.2 96.97zM932.16 126.97L958.14 141.97L958.14 171.97L932.16 186.97L906.18 171.97L906.18 141.97zM906.18 171.97L932.16 186.97L932.16 216.97L906.18 231.97L880.2 216.97L880.2 186.97zM932.16 216.97L958.14 231.97L958.14 261.97L932.16 276.97L906.18 261.97L906.18 231.97zM932.16 306.97L958.14 321.97L958.14 351.97L932.16 366.97L906.18 351.97L906.18 321.97zM906.18 351.97L932.16 366.97L932.16 396.97L906.18 411.97L880.2 396.97L880.2 366.97zM906.18 531.97L932.16 546.97L932.16 576.97L906.18 591.97L880.2 576.97L880.2 546.97zM932.16 576.97L958.14 591.97L958.14 621.97L932.16 636.97L906.18 621.97L906.18 591.97zM932.16 666.97L958.14 681.97L958.14 711.97L932.16 726.97L906.18 711.97L906.18 681.97zM906.18 801.97L932.16 816.97L932.16 846.97L906.18 861.97L880.2 846.97L880.2 816.97zM906.18 891.97L932.16 906.97L932.16 936.97L906.18 951.97L880.2 936.97L880.2 906.97zM906.18 981.97L932.16 996.97L932.16 1026.97L906.18 1041.97L880.2 1026.97L880.2 996.97zM984.13 126.97L1010.11 141.97L1010.11 171.97L984.13 186.97L958.14 171.97L958.14 141.97zM958.14 261.97L984.13 276.97L984.13 306.97L958.14 321.97L932.16 306.97L932.16 276.97zM984.13 486.97L1010.11 501.97L1010.11 531.97L984.13 546.97L958.14 531.97L958.14 501.97zM984.13 576.97L1010.11 591.97L1010.11 621.97L984.13 636.97L958.14 621.97L958.14 591.97zM984.13 756.97L1010.11 771.97L1010.11 801.97L984.13 816.97L958.14 801.97L958.14 771.97zM984.13 846.97L1010.11 861.97L1010.11 891.97L984.13 906.97L958.14 891.97L958.14 861.97zM984.13 936.97L1010.11 951.97L1010.11 981.97L984.13 996.97L958.14 981.97L958.14 951.97zM1010.11 -8.03L1036.09 6.97L1036.09 36.97L1010.11 51.97L984.13 36.97L984.13 6.97zM1010.11 171.97L1036.09 186.97L1036.09 216.97L1010.11 231.97L984.13 216.97L984.13 186.97zM1036.09 216.97L1062.07 231.97L1062.07 261.97L1036.09 276.97L1010.11 261.97L1010.11 231.97zM1010.11 441.97L1036.09 456.97L1036.09 486.97L1010.11 501.97L984.13 486.97L984.13 456.97zM1036.09 486.97L1062.07 501.97L1062.07 531.97L1036.09 546.97L1010.11 531.97L1010.11 501.97zM1036.09 576.97L1062.07 591.97L1062.07 621.97L1036.09 636.97L1010.11 621.97L1010.11 591.97zM1036.09 666.97L1062.07 681.97L1062.07 711.97L1036.09 726.97L1010.11 711.97L1010.11 681.97zM1010.11 981.97L1036.09 996.97L1036.09 1026.97L1010.11 1041.97L984.13 1026.97L984.13 996.97zM1062.07 -8.03L1088.05 6.97L1088.05 36.97L1062.07 51.97L1036.09 36.97L1036.09 6.97zM1088.05 36.97L1114.03 51.97L1114.03 81.97L1088.05 96.97L1062.07 81.97L1062.07 51.97zM1062.07 351.97L1088.05 366.97L1088.05 396.97L1062.07 411.97L1036.09 396.97L1036.09 366.97zM1062.07 621.97L1088.05 636.97L1088.05 666.97L1062.07 681.97L1036.09 666.97L1036.09 636.97zM1088.05 666.97L1114.03 681.97L1114.03 711.97L1088.05 726.97L1062.07 711.97L1062.07 681.97zM1062.07 711.97L1088.05 726.97L1088.05 756.97L1062.07 771.97L1036.09 756.97L1036.09 726.97zM1062.07 891.97L1088.05 906.97L1088.05 936.97L1062.07 951.97L1036.09 936.97L1036.09 906.97zM1062.07 981.97L1088.05 996.97L1088.05 1026.97L1062.07 1041.97L1036.09 1026.97L1036.09 996.97zM1114.03 81.97L1140.01 96.97L1140.01 126.97L1114.03 141.97L1088.05 126.97L1088.05 96.97zM1114.03 351.97L1140.01 366.97L1140.01 396.97L1114.03 411.97L1088.05 396.97L1088.05 366.97zM1114.03 441.97L1140.01 456.97L1140.01 486.97L1114.03 501.97L1088.05 486.97L1088.05 456.97zM1140.01 486.97L1166 501.97L1166 531.97L1140.01 546.97L1114.03 531.97L1114.03 501.97zM1114.03 531.97L1140.01 546.97L1140.01 576.97L1114.03 591.97L1088.05 576.97L1088.05 546.97zM1114.03 711.97L1140.01 726.97L1140.01 756.97L1114.03 771.97L1088.05 756.97L1088.05 726.97zM1140.01 756.97L1166 771.97L1166 801.97L1140.01 816.97L1114.03 801.97L1114.03 771.97zM1140.01 846.97L1166 861.97L1166 891.97L1140.01 906.97L1114.03 891.97L1114.03 861.97zM1114.03 891.97L1140.01 906.97L1140.01 936.97L1114.03 951.97L1088.05 936.97L1088.05 906.97zM1166 81.97L1191.98 96.97L1191.98 126.97L1166 141.97L1140.01 126.97L1140.01 96.97zM1191.98 126.97L1217.96 141.97L1217.96 171.97L1191.98 186.97L1166 171.97L1166 141.97zM1166 171.97L1191.98 186.97L1191.98 216.97L1166 231.97L1140.01 216.97L1140.01 186.97zM1191.98 216.97L1217.96 231.97L1217.96 261.97L1191.98 276.97L1166 261.97L1166 231.97zM1166 351.97L1191.98 366.97L1191.98 396.97L1166 411.97L1140.01 396.97L1140.01 366.97zM1191.98 396.97L1217.96 411.97L1217.96 441.97L1191.98 456.97L1166 441.97L1166 411.97zM1191.98 756.97L1217.96 771.97L1217.96 801.97L1191.98 816.97L1166 801.97L1166 771.97zM1191.98 846.97L1217.96 861.97L1217.96 891.97L1191.98 906.97L1166 891.97L1166 861.97zM1166 891.97L1191.98 906.97L1191.98 936.97L1166 951.97L1140.01 936.97L1140.01 906.97zM1217.96 -8.03L1243.94 6.97L1243.94 36.97L1217.96 51.97L1191.98 36.97L1191.98 6.97zM1217.96 171.97L1243.94 186.97L1243.94 216.97L1217.96 231.97L1191.98 216.97L1191.98 186.97zM1217.96 261.97L1243.94 276.97L1243.94 306.97L1217.96 321.97L1191.98 306.97L1191.98 276.97zM1217.96 441.97L1243.94 456.97L1243.94 486.97L1217.96 501.97L1191.98 486.97L1191.98 456.97zM1217.96 711.97L1243.94 726.97L1243.94 756.97L1217.96 771.97L1191.98 756.97L1191.98 726.97zM1243.94 756.97L1269.92 771.97L1269.92 801.97L1243.94 816.97L1217.96 801.97L1217.96 771.97zM1217.96 801.97L1243.94 816.97L1243.94 846.97L1217.96 861.97L1191.98 846.97L1191.98 816.97zM1217.96 891.97L1243.94 906.97L1243.94 936.97L1217.96 951.97L1191.98 936.97L1191.98 906.97zM1217.96 981.97L1243.94 996.97L1243.94 1026.97L1217.96 1041.97L1191.98 1026.97L1191.98 996.97zM1269.92 81.97L1295.9 96.97L1295.9 126.97L1269.92 141.97L1243.94 126.97L1243.94 96.97zM1295.9 126.97L1321.89 141.97L1321.89 171.97L1295.9 186.97L1269.92 171.97L1269.92 141.97zM1269.92 171.97L1295.9 186.97L1295.9 216.97L1269.92 231.97L1243.94 216.97L1243.94 186.97zM1269.92 261.97L1295.9 276.97L1295.9 306.97L1269.92 321.97L1243.94 306.97L1243.94 276.97zM1295.9 396.97L1321.89 411.97L1321.89 441.97L1295.9 456.97L1269.92 441.97L1269.92 411.97zM1295.9 486.97L1321.89 501.97L1321.89 531.97L1295.9 546.97L1269.92 531.97L1269.92 501.97zM1269.92 531.97L1295.9 546.97L1295.9 576.97L1269.92 591.97L1243.94 576.97L1243.94 546.97zM1295.9 576.97L1321.89 591.97L1321.89 621.97L1295.9 636.97L1269.92 621.97L1269.92 591.97zM1269.92 711.97L1295.9 726.97L1295.9 756.97L1269.92 771.97L1243.94 756.97L1243.94 726.97zM1295.9 756.97L1321.89 771.97L1321.89 801.97L1295.9 816.97L1269.92 801.97L1269.92 771.97zM1295.9 846.97L1321.89 861.97L1321.89 891.97L1295.9 906.97L1269.92 891.97L1269.92 861.97zM1269.92 891.97L1295.9 906.97L1295.9 936.97L1269.92 951.97L1243.94 936.97L1243.94 906.97zM1321.88 81.97L1347.87 96.97L1347.87 126.97L1321.88 141.97L1295.9 126.97L1295.9 96.97zM1321.88 171.97L1347.87 186.97L1347.87 216.97L1321.88 231.97L1295.9 216.97L1295.9 186.97zM1347.87 216.97L1373.85 231.97L1373.85 261.97L1347.87 276.97L1321.88 261.97L1321.88 231.97zM1321.88 261.97L1347.87 276.97L1347.87 306.97L1321.88 321.97L1295.9 306.97L1295.9 276.97zM1347.87 306.97L1373.85 321.97L1373.85 351.97L1347.87 366.97L1321.88 351.97L1321.88 321.97zM1321.88 441.97L1347.87 456.97L1347.87 486.97L1321.88 501.97L1295.9 486.97L1295.9 456.97zM1321.88 531.97L1347.87 546.97L1347.87 576.97L1321.88 591.97L1295.9 576.97L1295.9 546.97zM1347.87 576.97L1373.85 591.97L1373.85 621.97L1347.87 636.97L1321.88 621.97L1321.88 591.97zM1321.88 621.97L1347.87 636.97L1347.87 666.97L1321.88 681.97L1295.9 666.97L1295.9 636.97zM1347.87 846.97L1373.85 861.97L1373.85 891.97L1347.87 906.97L1321.88 891.97L1321.88 861.97zM1321.88 891.97L1347.87 906.97L1347.87 936.97L1321.88 951.97L1295.9 936.97L1295.9 906.97zM1321.88 981.97L1347.87 996.97L1347.87 1026.97L1321.88 1041.97L1295.9 1026.97L1295.9 996.97zM1373.85 -8.03L1399.83 6.97L1399.83 36.97L1373.85 51.97L1347.87 36.97L1347.87 6.97zM1399.83 36.97L1425.81 51.97L1425.81 81.97L1399.83 96.97L1373.85 81.97L1373.85 51.97zM1373.85 171.97L1399.83 186.97L1399.83 216.97L1373.85 231.97L1347.87 216.97L1347.87 186.97zM1373.85 261.97L1399.83 276.97L1399.83 306.97L1373.85 321.97L1347.87 306.97L1347.87 276.97zM1399.83 486.97L1425.81 501.97L1425.81 531.97L1399.83 546.97L1373.85 531.97L1373.85 501.97zM1399.83 666.97L1425.81 681.97L1425.81 711.97L1399.83 726.97L1373.85 711.97L1373.85 681.97zM1399.83 756.97L1425.81 771.97L1425.81 801.97L1399.83 816.97L1373.85 801.97L1373.85 771.97zM1373.85 801.97L1399.83 816.97L1399.83 846.97L1373.85 861.97L1347.87 846.97L1347.87 816.97zM1451.79 216.97L1477.77 231.97L1477.77 261.97L1451.79 276.97L1425.81 261.97L1425.81 231.97zM1425.81 261.97L1451.79 276.97L1451.79 306.97L1425.81 321.97L1399.83 306.97L1399.83 276.97zM1451.79 306.97L1477.77 321.97L1477.77 351.97L1451.79 366.97L1425.81 351.97L1425.81 321.97zM1451.79 486.97L1477.77 501.97L1477.77 531.97L1451.79 546.97L1425.81 531.97L1425.81 501.97zM1451.79 576.97L1477.77 591.97L1477.77 621.97L1451.79 636.97L1425.81 621.97L1425.81 591.97zM1425.81 711.97L1451.79 726.97L1451.79 756.97L1425.81 771.97L1399.83 756.97L1399.83 726.97z" stroke="rgba(254, 112, 24, 0.21)" stroke-width="2"></path></g><defs><mask id="SvgjsMask1123"><rect width="1440" height="1000" fill="#ffffff"></rect></mask></defs></svg>